Puralecka Narrow-Regular.ufo
<glyph name="dollar" format="1">
  <advance width="403"/>
  <unicode hex="0024"/>
  <outline>
	<contour>
	  <point x="222" y="639" type="line"/>
	  <point x="179" y="639" type="line"/>
	  <point x="179" y="545" type="line"/>
	  <point x="103" y="535"/>
	  <point x="57" y="487"/>
	  <point x="57" y="414" type="curve" smooth="yes"/>
	  <point x="57" y="327"/>
	  <point x="119" y="302"/>
	  <point x="179" y="282" type="curve"/>
	  <point x="179" y="124" type="line"/>
	  <point x="144" y="132"/>
	  <point x="120" y="157"/>
	  <point x="120" y="207" type="curve" smooth="yes"/>
	  <point x="120" y="216" type="line"/>
	  <point x="48" y="216" type="line"/>
	  <point x="48" y="214"/>
	  <point x="47" y="209"/>
	  <point x="47" y="196" type="curve" smooth="yes"/>
	  <point x="47" y="132"/>
	  <point x="84" y="69"/>
	  <point x="179" y="61" type="curve"/>
	  <point x="179" y="-43" type="line"/>
	  <point x="222" y="-43" type="line"/>
	  <point x="222" y="61" type="line"/>
	  <point x="299" y="67"/>
	  <point x="354" y="111"/>
	  <point x="354" y="203" type="curve" smooth="yes"/>
	  <point x="354" y="298"/>
	  <point x="284" y="323"/>
	  <point x="222" y="343" type="curve"/>
	  <point x="222" y="483" type="line"/>
	  <point x="260" y="474"/>
	  <point x="272" y="442"/>
	  <point x="272" y="410" type="curve" smooth="yes"/>
	  <point x="272" y="402" type="line"/>
	  <point x="344" y="402" type="line"/>
	  <point x="344" y="404"/>
	  <point x="345" y="413"/>
	  <point x="345" y="419" type="curve" smooth="yes"/>
	  <point x="345" y="484"/>
	  <point x="301" y="539"/>
	  <point x="222" y="545" type="curve"/>
	</contour>
	<contour>
	  <point x="222" y="266" type="line"/>
	  <point x="255" y="251"/>
	  <point x="281" y="232"/>
	  <point x="281" y="193" type="curve" smooth="yes"/>
	  <point x="281" y="151"/>
	  <point x="255" y="128"/>
	  <point x="222" y="123" type="curve"/>
	</contour>
	<contour>
	  <point x="179" y="360" type="line"/>
	  <point x="150" y="372"/>
	  <point x="130" y="388"/>
	  <point x="130" y="419" type="curve" smooth="yes"/>
	  <point x="130" y="442"/>
	  <point x="139" y="475"/>
	  <point x="179" y="483" type="curve"/>
	</contour>
  </outline>
</glyph>
<glyph name="percent" format="1">
  <advance width="644"/>
  <unicode hex="0025"/>
  <outline>
	<contour>
	  <point x="543" y="606" type="line"/>
	  <point x="480" y="606" type="line"/>
	  <point x="110" y="0" type="line"/>
	  <point x="172" y="0" type="line"/>
	</contour>
	<contour>
	  <point x="82" y="617"/>
	  <point x="40" y="580"/>
	  <point x="40" y="457" type="curve" smooth="yes"/>
	  <point x="40" y="335"/>
	  <point x="82" y="298"/>
	  <point x="153" y="298" type="curve" smooth="yes"/>
	  <point x="224" y="298"/>
	  <point x="266" y="334"/>
	  <point x="266" y="457" type="curve" smooth="yes"/>
	  <point x="266" y="580"/>
	  <point x="224" y="617"/>
	  <point x="153" y="617" type="curve" smooth="yes"/>
	</contour>
	<contour>
	  <point x="195" y="565"/>
	  <point x="205" y="523"/>
	  <point x="205" y="464" type="curve" smooth="yes"/>
	  <point x="205" y="451" type="line" smooth="yes"/>
	  <point x="205" y="392"/>
	  <point x="195" y="350"/>
	  <point x="153" y="350" type="curve" smooth="yes"/>
	  <point x="110" y="350"/>
	  <point x="101" y="392"/>
	  <point x="101" y="451" type="curve" smooth="yes"/>
	  <point x="101" y="464" type="line" smooth="yes"/>
	  <point x="101" y="523"/>
	  <point x="110" y="565"/>
	  <point x="153" y="565" type="curve" smooth="yes"/>
	</contour>
	<contour>
	  <point x="429" y="309"/>
	  <point x="386" y="271"/>
	  <point x="386" y="149" type="curve" smooth="yes"/>
	  <point x="386" y="27"/>
	  <point x="429" y="-11"/>
	  <point x="499" y="-11" type="curve" smooth="yes"/>
	  <point x="570" y="-11"/>
	  <point x="613" y="26"/>
	  <point x="613" y="149" type="curve" smooth="yes"/>
	  <point x="613" y="271"/>
	  <point x="570" y="309"/>
	  <point x="499" y="309" type="curve" smooth="yes"/>
	</contour>
	<contour>
	  <point x="542" y="256"/>
	  <point x="552" y="215"/>
	  <point x="552" y="156" type="curve" smooth="yes"/>
	  <point x="552" y="142" type="line" smooth="yes"/>
	  <point x="552" y="83"/>
	  <point x="542" y="42"/>
	  <point x="499" y="42" type="curve" smooth="yes"/>
	  <point x="457" y="42"/>
	  <point x="447" y="83"/>
	  <point x="447" y="142" type="curve" smooth="yes"/>
	  <point x="447" y="156" type="line" smooth="yes"/>
	  <point x="447" y="215"/>
	  <point x="457" y="256"/>
	  <point x="499" y="256" type="curve" smooth="yes"/>
	</contour>
  </outline>
</glyph>
<glyph name="parenleft" format="1">
  <advance width="241"/>
  <unicode hex="0028"/>
  <outline>
	<contour>
	  <point x="180" y="650" type="line"/>
	  <point x="88" y="541"/>
	  <point x="35" y="400"/>
	  <point x="35" y="255" type="curve" smooth="yes"/>
	  <point x="35" y="110"/>
	  <point x="88" y="-30"/>
	  <point x="180" y="-139" type="curve"/>
	  <point x="228" y="-139" type="line"/>
	  <point x="162" y="-31"/>
	  <point x="110" y="118"/>
	  <point x="110" y="256" type="curve" smooth="yes"/>
	  <point x="110" y="394"/>
	  <point x="162" y="542"/>
	  <point x="228" y="650" type="curve"/>
	</contour>
  </outline>
</glyph>
<glyph name="asterisk" format="1">
  <advance width="282"/>
  <unicode hex="002A"/>
  <outline>
	<contour>
	  <point x="163" y="529" type="line"/>
	  <point x="171" y="606" type="line"/>
	  <point x="110" y="606" type="line"/>
	  <point x="118" y="528" type="line"/>
	  <point x="53" y="574" type="line"/>
	  <point x="23" y="522" type="line"/>
	  <point x="95" y="489" type="line"/>
	  <point x="23" y="455" type="line"/>
	  <point x="53" y="403" type="line"/>
	  <point x="118" y="449" type="line"/>
	  <point x="110" y="370" type="line"/>
	  <point x="171" y="370" type="line"/>
	  <point x="163" y="449" type="line"/>
	  <point x="228" y="403" type="line"/>
	  <point x="258" y="455" type="line"/>
	  <point x="186" y="489" type="line"/>
	  <point x="258" y="522" type="line"/>
	  <point x="228" y="574" type="line"/>
	</contour>
  </outline>
</glyph>
<glyph name="comma" format="1">
  <advance width="202"/>
  <unicode hex="002C"/>
  <outline>
	<contour>
	  <point x="145" y="8" type="line"/>
	  <point x="145" y="95" type="line"/>
	  <point x="57" y="95" type="line"/>
	  <point x="57" y="0" type="line"/>
	  <point x="92" y="0" type="line"/>
	  <point x="57" y="-110" type="line"/>
	  <point x="103" y="-110" type="line"/>
	</contour>
  </outline>
</glyph>
<glyph name="hyphen" format="1">
  <advance width="241"/>
  <unicode hex="002D"/>
  <outline>
	<contour>
	  <point x="232" y="195" type="line"/>
	  <point x="232" y="282" type="line"/>
	  <point x="9" y="282" type="line"/>
	  <point x="9" y="195" type="line"/>
	</contour>
  </outline>
</glyph>
<glyph name="slash" format="1">
  <advance width="202"/>
  <unicode hex="002F"/>
  <outline>
	<contour>
	  <point x="64" y="-43" type="line"/>
	  <point x="202" y="650" type="line"/>
	  <point x="140" y="650" type="line"/>
	  <point x="1" y="-43" type="line"/>
	</contour>
  </outline>
</glyph>
<glyph name="one" format="1">
  <advance width="403"/>
  <unicode hex="0031"/>
  <outline>
	<contour>
	  <point x="261" y="65" type="line"/>
	  <point x="261" y="606" type="line"/>
	  <point x="232" y="606" type="line"/>
	  <point x="176" y="573"/>
	  <point x="93" y="547"/>
	  <point x="43" y="542" type="curve"/>
	  <point x="43" y="496" type="line"/>
	  <point x="188" y="496" type="line"/>
	  <point x="188" y="65" type="line"/>
	  <point x="44" y="65" type="line"/>
	  <point x="44" y="0" type="line"/>
	  <point x="393" y="0" type="line"/>
	  <point x="393" y="65" type="line"/>
	</contour>
  </outline>
</glyph>
<glyph name="three" format="1">
  <advance width="403"/>
  <unicode hex="0033"/>
  <outline>
	<contour>
	  <point x="107" y="617"/>
	  <point x="42" y="552"/>
	  <point x="42" y="451" type="curve" smooth="yes"/>
	  <point x="42" y="435" type="line"/>
	  <point x="116" y="435" type="line"/>
	  <point x="116" y="443" type="line" smooth="yes"/>
	  <point x="116" y="518"/>
	  <point x="151" y="552"/>
	  <point x="200" y="552" type="curve" smooth="yes"/>
	  <point x="244" y="552"/>
	  <point x="283" y="522"/>
	  <point x="283" y="446" type="curve" smooth="yes"/>
	  <point x="283" y="375"/>
	  <point x="242" y="340"/>
	  <point x="195" y="340" type="curve" smooth="yes"/>
	  <point x="143" y="340" type="line"/>
	  <point x="143" y="276" type="line"/>
	  <point x="194" y="276" type="line" smooth="yes"/>
	  <point x="245" y="276"/>
	  <point x="293" y="254"/>
	  <point x="293" y="168" type="curve" smooth="yes"/>
	  <point x="293" y="88"/>
	  <point x="254" y="54"/>
	  <point x="196" y="54" type="curve" smooth="yes"/>
	  <point x="137" y="54"/>
	  <point x="105" y="94"/>
	  <point x="105" y="169" type="curve" smooth="yes"/>
	  <point x="105" y="179" type="line"/>
	  <point x="31" y="179" type="line"/>
	  <point x="31" y="171" type="line" smooth="yes"/>
	  <point x="31" y="61"/>
	  <point x="91" y="-11"/>
	  <point x="202" y="-11" type="curve" smooth="yes"/>
	  <point x="299" y="-11"/>
	  <point x="368" y="55"/>
	  <point x="368" y="163" type="curve" smooth="yes"/>
	  <point x="368" y="243"/>
	  <point x="330" y="292"/>
	  <point x="278" y="311" type="curve"/>
	  <point x="278" y="315" type="line"/>
	  <point x="324" y="340"/>
	  <point x="357" y="379"/>
	  <point x="357" y="451" type="curve" smooth="yes"/>
	  <point x="357" y="559"/>
	  <point x="293" y="617"/>
	  <point x="199" y="617" type="curve" smooth="yes"/>
	</contour>
  </outline>
</glyph>
<glyph name="seven" format="1">
  <advance width="403"/>
  <unicode hex="0037"/>
  <outline>
	<contour>
	  <point x="374" y="606" type="line"/>
	  <point x="29" y="606" type="line"/>
	  <point x="29" y="532" type="line"/>
	  <point x="283" y="532" type="line"/>
	  <point x="204" y="406"/>
	  <point x="105" y="209"/>
	  <point x="105" y="0" type="curve"/>
	  <point x="187" y="0" type="line"/>
	  <point x="187" y="21"/>
	  <point x="187" y="28"/>
	  <point x="187" y="45" type="curve" smooth="yes"/>
	  <point x="187" y="241"/>
	  <point x="291" y="434"/>
	  <point x="374" y="560" type="curve"/>
	</contour>
  </outline>
</glyph>
<glyph name="eight" format="1">
  <advance width="403"/>
  <unicode hex="0038"/>
  <outline>
	<contour>
	  <point x="100" y="617"/>
	  <point x="48" y="541"/>
	  <point x="48" y="448" type="curve" smooth="yes"/>
	  <point x="48" y="391"/>
	  <point x="70" y="340"/>
	  <point x="113" y="311" type="curve"/>
	  <point x="58" y="284"/>
	  <point x="35" y="232"/>
	  <point x="35" y="166" type="curve" smooth="yes"/>
	  <point x="35" y="69"/>
	  <point x="84" y="-11"/>
	  <point x="202" y="-11" type="curve" smooth="yes"/>
	  <point x="319" y="-11"/>
	  <point x="368" y="69"/>
	  <point x="368" y="166" type="curve" smooth="yes"/>
	  <point x="368" y="232"/>
	  <point x="345" y="284"/>
	  <point x="289" y="311" type="curve"/>
	  <point x="333" y="340"/>
	  <point x="355" y="391"/>
	  <point x="355" y="448" type="curve" smooth="yes"/>
	  <point x="355" y="541"/>
	  <point x="303" y="617"/>
	  <point x="202" y="617" type="curve" smooth="yes"/>
	</contour>
	<contour>
	  <point x="262" y="278"/>
	  <point x="293" y="235"/>
	  <point x="293" y="166" type="curve" smooth="yes"/>
	  <point x="293" y="97"/>
	  <point x="262" y="54"/>
	  <point x="202" y="54" type="curve" smooth="yes"/>
	  <point x="141" y="54"/>
	  <point x="110" y="97"/>
	  <point x="110" y="166" type="curve" smooth="yes"/>
	  <point x="110" y="235"/>
	  <point x="141" y="278"/>
	  <point x="202" y="278" type="curve" smooth="yes"/>
	</contour>
	<contour>
	  <point x="251" y="552"/>
	  <point x="284" y="513"/>
	  <point x="284" y="447" type="curve" smooth="yes"/>
	  <point x="284" y="382"/>
	  <point x="251" y="342"/>
	  <point x="202" y="342" type="curve" smooth="yes"/>
	  <point x="152" y="342"/>
	  <point x="120" y="382"/>
	  <point x="120" y="447" type="curve" smooth="yes"/>
	  <point x="120" y="513"/>
	  <point x="152" y="552"/>
	  <point x="202" y="552" type="curve" smooth="yes"/>
	</contour>
  </outline>
</glyph>
<glyph name="nine" format="1">
  <advance width="403"/>
  <unicode hex="0039"/>
  <outline>
	<contour>
	  <point x="103" y="617"/>
	  <point x="35" y="542"/>
	  <point x="35" y="421" type="curve" smooth="yes"/>
	  <point x="35" y="312"/>
	  <point x="84" y="225"/>
	  <point x="187" y="225" type="curve" smooth="yes"/>
	  <point x="231" y="225"/>
	  <point x="267" y="247"/>
	  <point x="293" y="282" type="curve"/>
	  <point x="292" y="142"/>
	  <point x="276" y="54"/>
	  <point x="205" y="54" type="curve" smooth="yes"/>
	  <point x="151" y="54"/>
	  <point x="125" y="103"/>
	  <point x="125" y="187" type="curve"/>
	  <point x="51" y="187" type="line"/>
	  <point x="51" y="74"/>
	  <point x="95" y="-11"/>
	  <point x="202" y="-11" type="curve" smooth="yes"/>
	  <point x="306" y="-11"/>
	  <point x="368" y="68"/>
	  <point x="368" y="321" type="curve" smooth="yes"/>
	  <point x="368" y="545"/>
	  <point x="302" y="617"/>
	  <point x="194" y="617" type="curve" smooth="yes"/>
	</contour>
	<contour>
	  <point x="259" y="552"/>
	  <point x="287" y="493"/>
	  <point x="287" y="421" type="curve" smooth="yes"/>
	  <point x="287" y="348"/>
	  <point x="259" y="289"/>
	  <point x="198" y="289" type="curve" smooth="yes"/>
	  <point x="137" y="289"/>
	  <point x="110" y="348"/>
	  <point x="110" y="421" type="curve" smooth="yes"/>
	  <point x="110" y="493"/>
	  <point x="137" y="552"/>
	  <point x="198" y="552" type="curve" smooth="yes"/>
	</contour>
  </outline>
</glyph>
<glyph name="colon" format="1">
  <advance width="202"/>
  <unicode hex="003A"/>
  <outline>
	<contour>
	  <point x="145" y="0" type="line"/>
	  <point x="145" y="95" type="line"/>
	  <point x="57" y="95" type="line"/>
	  <point x="57" y="0" type="line"/>
	</contour>
	<contour>
	  <point x="145" y="370" type="line"/>
	  <point x="145" y="465" type="line"/>
	  <point x="57" y="465" type="line"/>
	  <point x="57" y="370" type="line"/>
	</contour>
  </outline>
</glyph>
<glyph name="less" format="1">
  <advance width="423"/>
  <unicode hex="003C"/>
  <outline>
	<contour>
	  <point x="385" y="366" type="line"/>
	  <point x="385" y="446" type="line"/>
	  <point x="39" y="271" type="line"/>
	  <point x="39" y="177" type="line"/>
	  <point x="385" y="4" type="line"/>
	  <point x="385" y="83" type="line"/>
	  <point x="110" y="225" type="line"/>
	</contour>
  </outline>
</glyph>
<glyph name="question" format="1">
  <advance width="403"/>
  <unicode hex="003F"/>
  <outline>
	<contour>
	  <point x="95" y="617"/>
	  <point x="38" y="536"/>
	  <point x="38" y="437" type="curve" smooth="yes"/>
	  <point x="38" y="426"/>
	  <point x="41" y="406"/>
	  <point x="41" y="406" type="curve"/>
	  <point x="119" y="406" type="line"/>
	  <point x="119" y="406"/>
	  <point x="118" y="415"/>
	  <point x="118" y="430" type="curve" smooth="yes"/>
	  <point x="118" y="470"/>
	  <point x="127" y="549"/>
	  <point x="202" y="549" type="curve" smooth="yes"/>
	  <point x="273" y="549"/>
	  <point x="281" y="475"/>
	  <point x="281" y="450" type="curve" smooth="yes"/>
	  <point x="281" y="334"/>
	  <point x="170" y="327"/>
	  <point x="170" y="209" type="curve" smooth="yes"/>
	  <point x="170" y="159" type="line"/>
	  <point x="247" y="159" type="line"/>
	  <point x="247" y="195" type="line" smooth="yes"/>
	  <point x="247" y="301"/>
	  <point x="362" y="289"/>
	  <point x="362" y="460" type="curve" smooth="yes"/>
	  <point x="362" y="552"/>
	  <point x="296" y="617"/>
	  <point x="209" y="617" type="curve" smooth="yes"/>
	</contour>
	<contour>
	  <point x="252" y="0" type="line"/>
	  <point x="252" y="95" type="line"/>
	  <point x="164" y="95" type="line"/>
	  <point x="164" y="0" type="line"/>
	</contour>
  </outline>
</glyph>
<glyph name="at" format="1">
  <advance width="735"/>
  <unicode hex="0040"/>
  <outline>
	<contour>
	  <point x="195" y="617"/>
	  <point x="40" y="514"/>
	  <point x="40" y="232" type="curve" smooth="yes"/>
	  <point x="40" y="-24"/>
	  <point x="158" y="-135"/>
	  <point x="349" y="-135" type="curve" smooth="yes"/>
	  <point x="384" y="-135"/>
	  <point x="448" y="-126"/>
	  <point x="482" y="-111" type="curve"/>
	  <point x="482" y="-58" type="line"/>
	  <point x="453" y="-74"/>
	  <point x="386" y="-87"/>
	  <point x="349" y="-87" type="curve" smooth="yes"/>
	  <point x="173" y="-87"/>
	  <point x="91" y="19"/>
	  <point x="91" y="231" type="curve" smooth="yes"/>
	  <point x="91" y="459"/>
	  <point x="201" y="568"/>
	  <point x="377" y="568" type="curve" smooth="yes"/>
	  <point x="534" y="568"/>
	  <point x="644" y="485"/>
	  <point x="644" y="285" type="curve" smooth="yes"/>
	  <point x="644" y="121"/>
	  <point x="587" y="77"/>
	  <point x="541" y="77" type="curve" smooth="yes"/>
	  <point x="522" y="77"/>
	  <point x="511" y="87"/>
	  <point x="511" y="110" type="curve" smooth="yes"/>
	  <point x="511" y="342" type="line" smooth="yes"/>
	  <point x="511" y="417"/>
	  <point x="469" y="461"/>
	  <point x="384" y="461" type="curve" smooth="yes"/>
	  <point x="304" y="461"/>
	  <point x="248" y="421"/>
	  <point x="248" y="343" type="curve" smooth="yes"/>
	  <point x="248" y="336"/>
	  <point x="248" y="331"/>
	  <point x="248" y="325" type="curve"/>
	  <point x="314" y="325" type="line"/>
	  <point x="314" y="335" type="line" smooth="yes"/>
	  <point x="314" y="368"/>
	  <point x="329" y="402"/>
	  <point x="378" y="402" type="curve" smooth="yes"/>
	  <point x="432" y="402"/>
	  <point x="446" y="374"/>
	  <point x="446" y="333" type="curve" smooth="yes"/>
	  <point x="446" y="278" type="line"/>
	  <point x="323" y="278"/>
	  <point x="232" y="254"/>
	  <point x="232" y="137" type="curve" smooth="yes"/>
	  <point x="232" y="35"/>
	  <point x="301" y="19"/>
	  <point x="342" y="19" type="curve" smooth="yes"/>
	  <point x="386" y="19"/>
	  <point x="423" y="40"/>
	  <point x="446" y="74" type="curve"/>
	  <point x="449" y="74" type="line"/>
	  <point x="457" y="42"/>
	  <point x="477" y="19"/>
	  <point x="528" y="19" type="curve" smooth="yes"/>
	  <point x="598" y="19"/>
	  <point x="695" y="83"/>
	  <point x="695" y="284" type="curve" smooth="yes"/>
	  <point x="695" y="521"/>
	  <point x="560" y="617"/>
	  <point x="377" y="617" type="curve" smooth="yes"/>
	</contour>
	<contour>
	  <point x="446" y="181" type="line"/>
	  <point x="446" y="111"/>
	  <point x="400" y="77"/>
	  <point x="358" y="77" type="curve" smooth="yes"/>
	  <point x="321" y="77"/>
	  <point x="301" y="93"/>
	  <point x="301" y="141" type="curve" smooth="yes"/>
	  <point x="301" y="208"/>
	  <point x="360" y="220"/>
	  <point x="446" y="220" type="curve"/>
	</contour>
  </outline>
</glyph>
<glyph name="B" format="1">
  <advance width="484"/>
  <unicode hex="0042"/>
  <outline>
	<contour>
	  <point x="57" y="606" type="line"/>
	  <point x="57" y="0" type="line"/>
	  <point x="287" y="0" type="line" smooth="yes"/>
	  <point x="380" y="0"/>
	  <point x="458" y="59"/>
	  <point x="458" y="161" type="curve" smooth="yes"/>
	  <point x="458" y="239"/>
	  <point x="411" y="296"/>
	  <point x="351" y="315" type="curve"/>
	  <point x="351" y="318" type="line"/>
	  <point x="403" y="337"/>
	  <point x="444" y="388"/>
	  <point x="444" y="458" type="curve" smooth="yes"/>
	  <point x="444" y="547"/>
	  <point x="377" y="606"/>
	  <point x="287" y="606" type="curve" smooth="yes"/>
	</contour>
	<contour>
	  <point x="135" y="275" type="line"/>
	  <point x="271" y="275" type="line" smooth="yes"/>
	  <point x="336" y="275"/>
	  <point x="377" y="226"/>
	  <point x="377" y="171" type="curve" smooth="yes"/>
	  <point x="377" y="106"/>
	  <point x="334" y="71"/>
	  <point x="277" y="71" type="curve" smooth="yes"/>
	  <point x="135" y="71" type="line"/>
	</contour>
	<contour>
	  <point x="135" y="536" type="line"/>
	  <point x="270" y="536" type="line" smooth="yes"/>
	  <point x="325" y="536"/>
	  <point x="362" y="505"/>
	  <point x="362" y="441" type="curve" smooth="yes"/>
	  <point x="362" y="390"/>
	  <point x="324" y="346"/>
	  <point x="264" y="346" type="curve" smooth="yes"/>
	  <point x="135" y="346" type="line"/>
	</contour>
  </outline>
</glyph>
<glyph name="D" format="1">
  <advance width="523"/>
  <unicode hex="0044"/>
  <outline>
	<contour>
	  <point x="62" y="0" type="line"/>
	  <point x="250" y="0" type="line" smooth="yes"/>
	  <point x="393" y="0"/>
	  <point x="480" y="104"/>
	  <point x="480" y="312" type="curve" smooth="yes"/>
	  <point x="480" y="507"/>
	  <point x="393" y="606"/>
	  <point x="250" y="606" type="curve" smooth="yes"/>
	  <point x="62" y="606" type="line"/>
	</contour>
	<contour>
	  <point x="140" y="536" type="line"/>
	  <point x="243" y="536" type="line" smooth="yes"/>
	  <point x="339" y="536"/>
	  <point x="399" y="469"/>
	  <point x="399" y="334" type="curve" smooth="yes"/>
	  <point x="399" y="290" type="line" smooth="yes"/>
	  <point x="399" y="142"/>
	  <point x="339" y="71"/>
	  <point x="243" y="71" type="curve" smooth="yes"/>
	  <point x="140" y="71" type="line"/>
	</contour>
	<contour>
	  <point x="262" y="303" type="move" name="center"/>
	</contour>
	<contour>
	  <point x="262" y="606" type="move" name="top"/>
	</contour>
  </outline>
</glyph>
<glyph name="H" format="1">
  <advance width="523"/>
  <unicode hex="0048"/>
  <outline>
	<contour>
	  <point x="461" y="606" type="line"/>
	  <point x="384" y="606" type="line"/>
	  <point x="384" y="346" type="line"/>
	  <point x="140" y="346" type="line"/>
	  <point x="140" y="606" type="line"/>
	  <point x="62" y="606" type="line"/>
	  <point x="62" y="0" type="line"/>
	  <point x="140" y="0" type="line"/>
	  <point x="140" y="275" type="line"/>
	  <point x="384" y="275" type="line"/>
	  <point x="384" y="0" type="line"/>
	  <point x="461" y="0" type="line"/>
	</contour>
	<contour>
	  <point x="262" y="303" type="move" name="center"/>
	</contour>
	<contour>
	  <point x="262" y="606" type="move" name="top"/>
	</contour>
  </outline>
</glyph>
<glyph name="K" format="1">
  <advance width="484"/>
  <unicode hex="004B"/>
  <outline>
	<contour>
	  <point x="140" y="286" type="line"/>
	  <point x="140" y="606" type="line"/>
	  <point x="62" y="606" type="line"/>
	  <point x="62" y="0" type="line"/>
	  <point x="140" y="0" type="line"/>
	  <point x="140" y="188" type="line"/>
	  <point x="237" y="296" type="line"/>
	  <point x="385" y="0" type="line"/>
	  <point x="473" y="0" type="line"/>
	  <point x="285" y="362" type="line"/>
	  <point x="467" y="606" type="line"/>
	  <point x="380" y="606" type="line"/>
	</contour>
	<contour>
	  <point x="242" y="606" type="move" name="top"/>
	</contour>
	<contour>
	  <point x="242" y="0" type="move" name="bottom"/>
	</contour>
  </outline>
</glyph>
<glyph name="M" format="1">
  <advance width="604"/>
  <unicode hex="004D"/>
  <outline>
	<contour>
	  <point x="549" y="606" type="line"/>
	  <point x="431" y="606" type="line"/>
	  <point x="324" y="209" type="line" smooth="yes"/>
	  <point x="312" y="166"/>
	  <point x="304" y="72"/>
	  <point x="304" y="72" type="curve" smooth="yes"/>
	  <point x="301" y="72" type="line" smooth="yes"/>
	  <point x="301" y="72"/>
	  <point x="292" y="164"/>
	  <point x="280" y="209" type="curve" smooth="yes"/>
	  <point x="173" y="606" type="line"/>
	  <point x="55" y="606" type="line"/>
	  <point x="55" y="0" type="line"/>
	  <point x="125" y="0" type="line"/>
	  <point x="125" y="440" type="line" smooth="yes"/>
	  <point x="125" y="458"/>
	  <point x="119" y="534"/>
	  <point x="119" y="534" type="curve"/>
	  <point x="123" y="534" type="line"/>
	  <point x="129" y="503"/>
	  <point x="133" y="470"/>
	  <point x="141" y="440" type="curve" smooth="yes"/>
	  <point x="263" y="0" type="line"/>
	  <point x="332" y="0" type="line"/>
	  <point x="453" y="440" type="line" smooth="yes"/>
	  <point x="462" y="471"/>
	  <point x="467" y="503"/>
	  <point x="474" y="534" type="curve"/>
	  <point x="477" y="534" type="line"/>
	  <point x="477" y="534"/>
	  <point x="471" y="461"/>
	  <point x="471" y="440" type="curve" smooth="yes"/>
	  <point x="471" y="0" type="line"/>
	  <point x="549" y="0" type="line"/>
	</contour>
  </outline>
</glyph>
<glyph name="P" format="1">
  <advance width="484"/>
  <unicode hex="0050"/>
  <outline>
	<contour>
	  <point x="140" y="250" type="line"/>
	  <point x="278" y="250" type="line" smooth="yes"/>
	  <point x="391" y="250"/>
	  <point x="460" y="323"/>
	  <point x="460" y="430" type="curve" smooth="yes"/>
	  <point x="460" y="535"/>
	  <point x="398" y="606"/>
	  <point x="278" y="606" type="curve" smooth="yes"/>
	  <point x="62" y="606" type="line"/>
	  <point x="62" y="0" type="line"/>
	  <point x="140" y="0" type="line"/>
	</contour>
	<contour>
	  <point x="140" y="536" type="line"/>
	  <point x="276" y="536" type="line" smooth="yes"/>
	  <point x="342" y="536"/>
	  <point x="378" y="495"/>
	  <point x="378" y="430" type="curve" smooth="yes"/>
	  <point x="378" y="364"/>
	  <point x="338" y="321"/>
	  <point x="276" y="321" type="curve" smooth="yes"/>
	  <point x="140" y="321" type="line"/>
	</contour>
  </outline>
</glyph>
<glyph name="T" format="1">
  <advance width="443"/>
  <unicode hex="0054"/>
  <outline>
	<contour>
	  <point x="425" y="606" type="line"/>
	  <point x="17" y="606" type="line"/>
	  <point x="17" y="536" type="line"/>
	  <point x="182" y="536" type="line"/>
	  <point x="182" y="0" type="line"/>
	  <point x="260" y="0" type="line"/>
	  <point x="260" y="536" type="line"/>
	  <point x="425" y="536" type="line"/>
	</contour>
	<contour>
	  <point x="222" y="303" type="move" name="center"/>
	</contour>
	<contour>
	  <point x="222" y="0" type="move" name="bottom"/>
	</contour>
	<contour>
	  <point x="222" y="606" type="move" name="top"/>
	</contour>
  </outline>
</glyph>
<glyph name="X" format="1">
  <advance width="484"/>
  <unicode hex="0058"/>
  <outline>
	<contour>
	  <point x="461" y="606" type="line"/>
	  <point x="377" y="606" type="line"/>
	  <point x="241" y="385" type="line"/>
	  <point x="247" y="385" type="line"/>
	  <point x="113" y="606" type="line"/>
	  <point x="21" y="606" type="line"/>
	  <point x="197" y="315" type="line"/>
	  <point x="4" y="0" type="line"/>
	  <point x="87" y="0" type="line"/>
	  <point x="241" y="251" type="line"/>
	  <point x="237" y="251" type="line"/>
	  <point x="388" y="0" type="line"/>
	  <point x="480" y="0" type="line"/>
	  <point x="285" y="322" type="line"/>
	</contour>
  </outline>
</glyph>
<glyph name="Z" format="1">
  <advance width="443"/>
  <unicode hex="005A"/>
  <outline>
	<contour>
	  <point x="417" y="606" type="line"/>
	  <point x="36" y="606" type="line"/>
	  <point x="36" y="536" type="line"/>
	  <point x="306" y="536" type="line"/>
	  <point x="18" y="34" type="line"/>
	  <point x="18" y="0" type="line"/>
	  <point x="423" y="0" type="line"/>
	  <point x="423" y="71" type="line"/>
	  <point x="128" y="71" type="line"/>
	  <point x="417" y="573" type="line"/>
	</contour>
	<contour>
	  <point x="222" y="606" type="move" name="top"/>
	</contour>
  </outline>
</glyph>
<glyph name="grave" format="1">
  <advance width="241"/>
  <unicode hex="0060"/>
  <outline>
	<contour>
	  <point x="180" y="522" type="line"/>
	  <point x="104" y="639" type="line"/>
	  <point x="25" y="639" type="line"/>
	  <point x="24" y="636" type="line"/>
	  <point x="119" y="522" type="line"/>
	</contour>
	<contour>
	  <point x="103" y="465" type="move" name="_top"/>
	</contour>
  </outline>
</glyph>
<glyph name="h" format="1">
  <advance width="403"/>
  <unicode hex="0068"/>
  <outline>
	<contour>
	  <point x="126" y="416" type="line"/>
	  <point x="126" y="639" type="line"/>
	  <point x="53" y="639" type="line"/>
	  <point x="53" y="0" type="line"/>
	  <point x="126" y="0" type="line"/>
	  <point x="126" y="284" type="line" smooth="yes"/>
	  <point x="126" y="364"/>
	  <point x="166" y="411"/>
	  <point x="212" y="411" type="curve" smooth="yes"/>
	  <point x="251" y="411"/>
	  <point x="278" y="394"/>
	  <point x="278" y="330" type="curve" smooth="yes"/>
	  <point x="278" y="0" type="line"/>
	  <point x="350" y="0" type="line"/>
	  <point x="350" y="335" type="line" smooth="yes"/>
	  <point x="350" y="438"/>
	  <point x="305" y="476"/>
	  <point x="235" y="476" type="curve" smooth="yes"/>
	  <point x="189" y="476"/>
	  <point x="155" y="458"/>
	  <point x="131" y="416" type="curve"/>
	</contour>
	<contour>
	  <point x="202" y="232" type="move" name="center"/>
	</contour>
	<contour>
	  <point x="202" y="465" type="move" name="top"/>
	</contour>
  </outline>
</glyph>
<glyph name="l" format="1">
  <advance width="161"/>
  <unicode hex="006C"/>
  <outline>
	<contour>
	  <point x="117" y="0" type="line"/>
	  <point x="117" y="639" type="line"/>
	  <point x="44" y="639" type="line"/>
	  <point x="44" y="0" type="line"/>
	</contour>
	<contour>
	  <point x="80" y="465" type="move" name="top"/>
	</contour>
	<contour>
	  <point x="80" y="0" type="move" name="bottom"/>
	</contour>
	<contour>
	  <point x="143" y="465" type="move" name="topright"/>
	</contour>
  </outline>
</glyph>
<glyph name="q" format="1">
  <advance width="403"/>
  <unicode hex="0071"/>
  <outline>
	<contour>
	  <point x="91" y="476"/>
	  <point x="35" y="402"/>
	  <point x="35" y="232" type="curve" smooth="yes"/>
	  <point x="35" y="63"/>
	  <point x="97" y="-11"/>
	  <point x="174" y="-11" type="curve" smooth="yes"/>
	  <point x="219" y="-11"/>
	  <point x="257" y="9"/>
	  <point x="273" y="41" type="curve"/>
	  <point x="278" y="41" type="line"/>
	  <point x="278" y="-153" type="line"/>
	  <point x="350" y="-153" type="line"/>
	  <point x="350" y="465" type="line"/>
	  <point x="295" y="465" type="line"/>
	  <point x="286" y="411" type="line"/>
	  <point x="281" y="411" type="line"/>
	  <point x="259" y="453"/>
	  <point x="222" y="476"/>
	  <point x="179" y="476" type="curve" smooth="yes"/>
	</contour>
	<contour>
	  <point x="250" y="411"/>
	  <point x="278" y="356"/>
	  <point x="278" y="249" type="curve" smooth="yes"/>
	  <point x="278" y="216" type="line" smooth="yes"/>
	  <point x="278" y="109"/>
	  <point x="250" y="54"/>
	  <point x="194" y="54" type="curve" smooth="yes"/>
	  <point x="139" y="54"/>
	  <point x="111" y="100"/>
	  <point x="111" y="216" type="curve" smooth="yes"/>
	  <point x="111" y="249" type="line" smooth="yes"/>
	  <point x="111" y="365"/>
	  <point x="139" y="411"/>
	  <point x="194" y="411" type="curve" smooth="yes"/>
	</contour>
  </outline>
</glyph>
<glyph name="r" format="1">
  <advance width="241"/>
  <unicode hex="0072"/>
  <outline>
	<contour>
	  <point x="157" y="476"/>
	  <point x="134" y="439"/>
	  <point x="123" y="404" type="curve"/>
	  <point x="118" y="404" type="line"/>
	  <point x="108" y="465" type="line"/>
	  <point x="53" y="465" type="line"/>
	  <point x="53" y="0" type="line"/>
	  <point x="126" y="0" type="line"/>
	  <point x="126" y="284" type="line" smooth="yes"/>
	  <point x="126" y="366"/>
	  <point x="166" y="393"/>
	  <point x="212" y="393" type="curve" smooth="yes"/>
	  <point x="236" y="393" type="line"/>
	  <point x="236" y="469" type="line"/>
	  <point x="236" y="469"/>
	  <point x="221" y="476"/>
	  <point x="202" y="476" type="curve" smooth="yes"/>
	</contour>
	<contour>
	  <point x="121" y="465" type="move" name="top"/>
	</contour>
	<contour>
	  <point x="121" y="0" type="move" name="bottom"/>
	</contour>
  </outline>
</glyph>
<glyph name="t" format="1">
  <advance width="202"/>
  <unicode hex="0074"/>
  <outline>
	<contour>
	  <point x="125" y="465" type="line"/>
	  <point x="125" y="594" type="line"/>
	  <point x="68" y="594" type="line"/>
	  <point x="52" y="465" type="line"/>
	  <point x="12" y="465" type="line"/>
	  <point x="12" y="400" type="line"/>
	  <point x="52" y="400" type="line"/>
	  <point x="52" y="98" type="line" smooth="yes"/>
	  <point x="52" y="45"/>
	  <point x="72" y="-9"/>
	  <point x="135" y="-9" type="curve" smooth="yes"/>
	  <point x="153" y="-9"/>
	  <point x="175" y="-4"/>
	  <point x="187" y="4" type="curve"/>
	  <point x="187" y="54" type="line"/>
	  <point x="166" y="54" type="line" smooth="yes"/>
	  <point x="139" y="54"/>
	  <point x="125" y="69"/>
	  <point x="125" y="96" type="curve" smooth="yes"/>
	  <point x="125" y="400" type="line"/>
	  <point x="187" y="400" type="line"/>
	  <point x="187" y="465" type="line"/>
	</contour>
	<contour>
	  <point x="101" y="232" type="move" name="center"/>
	</contour>
	<contour>
	  <point x="118" y="0" type="move" name="bottom"/>
	</contour>
  </outline>
</glyph>
<glyph name="v" format="1">
  <advance width="362"/>
  <unicode hex="0076"/>
  <outline>
	<contour>
	  <point x="354" y="465" type="line"/>
	  <point x="281" y="465" type="line"/>
	  <point x="217" y="225" type="line" smooth="yes"/>
	  <point x="207" y="187"/>
	  <point x="196" y="149"/>
	  <point x="187" y="111" type="curve"/>
	  <point x="183" y="111" type="line"/>
	  <point x="172" y="150"/>
	  <point x="163" y="188"/>
	  <point x="152" y="227" type="curve" smooth="yes"/>
	  <point x="88" y="465" type="line"/>
	  <point x="9" y="465" type="line"/>
	  <point x="142" y="0" type="line"/>
	  <point x="221" y="0" type="line"/>
	</contour>
  </outline>
</glyph>
<glyph name="x" format="1">
  <advance width="362"/>
  <unicode hex="0078"/>
  <outline>
	<contour>
	  <point x="351" y="465" type="line"/>
	  <point x="270" y="465" type="line"/>
	  <point x="180" y="301" type="line"/>
	  <point x="185" y="301" type="line"/>
	  <point x="99" y="465" type="line"/>
	  <point x="11" y="465" type="line"/>
	  <point x="141" y="235" type="line"/>
	  <point x="5" y="0" type="line"/>
	  <point x="85" y="0" type="line"/>
	  <point x="181" y="175" type="line"/>
	  <point x="177" y="175" type="line"/>
	  <point x="270" y="0" type="line"/>
	  <point x="357" y="0" type="line"/>
	  <point x="221" y="241" type="line"/>
	</contour>
  </outline>
</glyph>
<glyph name="z" format="1">
  <advance width="362"/>
  <unicode hex="007A"/>
  <outline>
	<contour>
	  <point x="327" y="431" type="line"/>
	  <point x="327" y="465" type="line"/>
	  <point x="37" y="465" type="line"/>
	  <point x="37" y="400" type="line"/>
	  <point x="227" y="400" type="line"/>
	  <point x="23" y="34" type="line"/>
	  <point x="23" y="0" type="line"/>
	  <point x="339" y="0" type="line"/>
	  <point x="339" y="65" type="line"/>
	  <point x="122" y="65" type="line"/>
	</contour>
	<contour>
	  <point x="181" y="465" type="move" name="top"/>
	</contour>
  </outline>
</glyph>
<glyph name="braceright" format="1">
  <advance width="242"/>
  <unicode hex="007D"/>
  <outline>
	<contour>
	  <point x="18" y="599" type="line"/>
	  <point x="50" y="599"/>
	  <point x="88" y="589"/>
	  <point x="88" y="537" type="curve" smooth="yes"/>
	  <point x="88" y="476"/>
	  <point x="91" y="416"/>
	  <point x="94" y="354" type="curve" smooth="yes"/>
	  <point x="95" y="294"/>
	  <point x="115" y="259"/>
	  <point x="171" y="259" type="curve"/>
	  <point x="171" y="250" type="line"/>
	  <point x="115" y="250"/>
	  <point x="95" y="215"/>
	  <point x="94" y="155" type="curve" smooth="yes"/>
	  <point x="91" y="93"/>
	  <point x="88" y="34"/>
	  <point x="88" y="-27" type="curve" smooth="yes"/>
	  <point x="88" y="-80"/>
	  <point x="50" y="-90"/>
	  <point x="18" y="-90" type="curve"/>
	  <point x="18" y="-141" type="line"/>
	  <point x="91" y="-141"/>
	  <point x="156" y="-121"/>
	  <point x="156" y="-10" type="curve" smooth="yes"/>
	  <point x="156" y="164" type="line" smooth="yes"/>
	  <point x="156" y="204"/>
	  <point x="193" y="217"/>
	  <point x="225" y="217" type="curve"/>
	  <point x="225" y="292" type="line"/>
	  <point x="193" y="292"/>
	  <point x="156" y="305"/>
	  <point x="156" y="345" type="curve" smooth="yes"/>
	  <point x="156" y="519" type="line" smooth="yes"/>
	  <point x="156" y="630"/>
	  <point x="91" y="650"/>
	  <point x="18" y="650" type="curve"/>
	</contour>
  </outline>
</glyph>
<glyph name="yen" format="1">
  <advance width="403"/>
  <unicode hex="00A5"/>
  <outline>
	<contour>
	  <point x="268" y="326" type="line"/>
	  <point x="400" y="606" type="line"/>
	  <point x="327" y="606" type="line"/>
	  <point x="210" y="347" type="line"/>
	  <point x="206" y="347" type="line"/>
	  <point x="86" y="606" type="line"/>
	  <point x="2" y="606" type="line"/>
	  <point x="135" y="326" type="line"/>
	  <point x="22" y="326" type="line"/>
	  <point x="22" y="269" type="line"/>
	  <point x="163" y="269" type="line"/>
	  <point x="163" y="207" type="line"/>
	  <point x="22" y="207" type="line"/>
	  <point x="22" y="149" type="line"/>
	  <point x="163" y="149" type="line"/>
	  <point x="163" y="0" type="line"/>
	  <point x="240" y="0" type="line"/>
	  <point x="240" y="149" type="line"/>
	  <point x="381" y="149" type="line"/>
	  <point x="381" y="207" type="line"/>
	  <point x="240" y="207" type="line"/>
	  <point x="240" y="269" type="line"/>
	  <point x="381" y="269" type="line"/>
	  <point x="381" y="326" type="line"/>
	</contour>
  </outline>
</glyph>
<glyph name="section" format="1">
  <advance width="403"/>
  <unicode hex="00A7"/>
  <outline>
	<contour>
	  <point x="122" y="617"/>
	  <point x="69" y="567"/>
	  <point x="69" y="484" type="curve" smooth="yes"/>
	  <point x="69" y="426"/>
	  <point x="91" y="390"/>
	  <point x="122" y="363" type="curve"/>
	  <point x="91" y="342"/>
	  <point x="60" y="302"/>
	  <point x="60" y="245" type="curve" smooth="yes"/>
	  <point x="60" y="66"/>
	  <point x="272" y="98"/>
	  <point x="272" y="-34" type="curve" smooth="yes"/>
	  <point x="272" y="-59"/>
	  <point x="260" y="-97"/>
	  <point x="210" y="-97" type="curve" smooth="yes"/>
	  <point x="160" y="-97"/>
	  <point x="145" y="-61"/>
	  <point x="145" y="-25" type="curve" smooth="yes"/>
	  <point x="145" y="-17" type="line"/>
	  <point x="70" y="-17" type="line"/>
	  <point x="70" y="-19"/>
	  <point x="69" y="-27"/>
	  <point x="69" y="-34" type="curve" smooth="yes"/>
	  <point x="69" y="-103"/>
	  <point x="116" y="-161"/>
	  <point x="202" y="-161" type="curve" smooth="yes"/>
	  <point x="294" y="-161"/>
	  <point x="347" y="-111"/>
	  <point x="347" y="-28" type="curve" smooth="yes"/>
	  <point x="347" y="30"/>
	  <point x="324" y="65"/>
	  <point x="294" y="92" type="curve"/>
	  <point x="325" y="114"/>
	  <point x="356" y="154"/>
	  <point x="356" y="211" type="curve" smooth="yes"/>
	  <point x="356" y="390"/>
	  <point x="144" y="358"/>
	  <point x="144" y="490" type="curve" smooth="yes"/>
	  <point x="144" y="515"/>
	  <point x="156" y="553"/>
	  <point x="207" y="553" type="curve" smooth="yes"/>
	  <point x="256" y="553"/>
	  <point x="271" y="517"/>
	  <point x="271" y="481" type="curve" smooth="yes"/>
	  <point x="271" y="473" type="line"/>
	  <point x="347" y="473" type="line"/>
	  <point x="347" y="475"/>
	  <point x="347" y="484"/>
	  <point x="347" y="490" type="curve" smooth="yes"/>
	  <point x="347" y="559"/>
	  <point x="301" y="617"/>
	  <point x="214" y="617" type="curve" smooth="yes"/>
	</contour>
	<contour>
	  <point x="220" y="299"/>
	  <point x="286" y="273"/>
	  <point x="286" y="193" type="curve" smooth="yes"/>
	  <point x="286" y="160"/>
	  <point x="273" y="135"/>
	  <point x="255" y="120" type="curve"/>
	  <point x="196" y="157"/>
	  <point x="131" y="183"/>
	  <point x="131" y="263" type="curve" smooth="yes"/>
	  <point x="131" y="296"/>
	  <point x="142" y="321"/>
	  <point x="161" y="335" type="curve"/>
	</contour>
  </outline>
</glyph>
<glyph name="dieresis" format="1">
  <advance width="241"/>
  <unicode hex="00A8"/>
  <outline>
	<contour>
	  <point x="225" y="555" type="line"/>
	  <point x="225" y="639" type="line"/>
	  <point x="149" y="639" type="line"/>
	  <point x="149" y="555" type="line"/>
	</contour>
	<contour>
	  <point x="93" y="555" type="line"/>
	  <point x="93" y="639" type="line"/>
	  <point x="16" y="639" type="line"/>
	  <point x="16" y="555" type="line"/>
	</contour>
	<contour>
	  <point x="121" y="465" type="move" name="_top"/>
	</contour>
  </outline>
</glyph>
<glyph name="cedilla" format="1">
  <advance width="241"/>
  <unicode hex="00B8"/>
  <outline>
	<contour>
	  <point x="133" y="10" type="line"/>
	  <point x="84" y="10" type="line"/>
	  <point x="72" y="-68" type="line"/>
	  <point x="101" y="-68" type="line" smooth="yes"/>
	  <point x="124" y="-68"/>
	  <point x="131" y="-75"/>
	  <point x="131" y="-89" type="curve" smooth="yes"/>
	  <point x="131" y="-106"/>
	  <point x="118" y="-111"/>
	  <point x="99" y="-111" type="curve" smooth="yes"/>
	  <point x="32" y="-111" type="line"/>
	  <point x="32" y="-154" type="line"/>
	  <point x="53" y="-158"/>
	  <point x="81" y="-161"/>
	  <point x="106" y="-161" type="curve" smooth="yes"/>
	  <point x="142" y="-161"/>
	  <point x="198" y="-149"/>
	  <point x="198" y="-89" type="curve" smooth="yes"/>
	  <point x="198" y="-49"/>
	  <point x="164" y="-34"/>
	  <point x="126" y="-32" type="curve"/>
	</contour>
	<contour>
	  <point x="115" y="0" type="move" name="_bottom"/>
	</contour>
  </outline>
</glyph>
<glyph name="onehalf" format="1">
  <advance width="605"/>
  <unicode hex="00BD"/>
  <outline>
	<contour>
	  <point x="148" y="-11" type="line"/>
	  <point x="514" y="617" type="line"/>
	  <point x="460" y="617" type="line"/>
	  <point x="92" y="-11" type="line"/>
	</contour>
	<contour>
	  <point x="153" y="302" type="line"/>
	  <point x="153" y="606" type="line"/>
	  <point x="127" y="606" type="line"/>
	  <point x="100" y="588"/>
	  <point x="55" y="572"/>
	  <point x="27" y="568" type="curve"/>
	  <point x="27" y="530" type="line"/>
	  <point x="98" y="530" type="line"/>
	  <point x="98" y="302" type="line"/>
	  <point x="28" y="302" type="line"/>
	  <point x="28" y="251" type="line"/>
	  <point x="217" y="251" type="line"/>
	  <point x="217" y="302" type="line"/>
	</contour>
	<contour>
	  <point x="415" y="365"/>
	  <point x="369" y="332"/>
	  <point x="369" y="254" type="curve" smooth="yes"/>
	  <point x="369" y="242"/>
	  <point x="370" y="227"/>
	  <point x="370" y="227" type="curve"/>
	  <point x="426" y="227" type="line"/>
	  <point x="426" y="255" type="line" smooth="yes"/>
	  <point x="426" y="286"/>
	  <point x="438" y="313"/>
	  <point x="468" y="313" type="curve" smooth="yes"/>
	  <point x="499" y="313"/>
	  <point x="507" y="288"/>
	  <point x="507" y="269" type="curve" smooth="yes"/>
	  <point x="507" y="217"/>
	  <point x="465" y="179"/>
	  <point x="426" y="136" type="curve" smooth="yes"/>
	  <point x="394" y="102"/>
	  <point x="365" y="64"/>
	  <point x="365" y="14" type="curve" smooth="yes"/>
	  <point x="365" y="0" type="line"/>
	  <point x="567" y="0" type="line"/>
	  <point x="567" y="56" type="line"/>
	  <point x="433" y="56" type="line"/>
	  <point x="444" y="80"/>
	  <point x="466" y="99"/>
	  <point x="483" y="118" type="curve" smooth="yes"/>
	  <point x="521" y="159"/>
	  <point x="566" y="210"/>
	  <point x="566" y="269" type="curve" smooth="yes"/>
	  <point x="566" y="338"/>
	  <point x="522" y="365"/>
	  <point x="469" y="365" type="curve" smooth="yes"/>
	</contour>
  </outline>
</glyph>
<glyph name="threequarters" format="1">
  <advance width="605"/>
  <unicode hex="00BE"/>
  <outline>
	<contour>
	  <point x="150" y="-11" type="line"/>
	  <point x="517" y="617" type="line"/>
	  <point x="462" y="617" type="line"/>
	  <point x="95" y="-11" type="line"/>
	</contour>
	<contour>
	  <point x="70" y="617"/>
	  <point x="30" y="577"/>
	  <point x="30" y="515" type="curve" smooth="yes"/>
	  <point x="30" y="499" type="line"/>
	  <point x="86" y="499" type="line"/>
	  <point x="86" y="511" type="line" smooth="yes"/>
	  <point x="86" y="549"/>
	  <point x="104" y="567"/>
	  <point x="127" y="567" type="curve" smooth="yes"/>
	  <point x="149" y="567"/>
	  <point x="168" y="551"/>
	  <point x="168" y="513" type="curve" smooth="yes"/>
	  <point x="168" y="476"/>
	  <point x="148" y="460"/>
	  <point x="125" y="460" type="curve" smooth="yes"/>
	  <point x="93" y="460" type="line"/>
	  <point x="93" y="409" type="line"/>
	  <point x="124" y="409" type="line" smooth="yes"/>
	  <point x="149" y="409"/>
	  <point x="173" y="398"/>
	  <point x="173" y="354" type="curve" smooth="yes"/>
	  <point x="173" y="315"/>
	  <point x="154" y="297"/>
	  <point x="125" y="297" type="curve" smooth="yes"/>
	  <point x="95" y="297"/>
	  <point x="80" y="316"/>
	  <point x="80" y="355" type="curve" smooth="yes"/>
	  <point x="80" y="367" type="line"/>
	  <point x="24" y="367" type="line"/>
	  <point x="24" y="357" type="line" smooth="yes"/>
	  <point x="24" y="289"/>
	  <point x="61" y="247"/>
	  <point x="128" y="247" type="curve" smooth="yes"/>
	  <point x="187" y="247"/>
	  <point x="229" y="286"/>
	  <point x="229" y="352" type="curve" smooth="yes"/>
	  <point x="229" y="393"/>
	  <point x="209" y="423"/>
	  <point x="181" y="437" type="curve"/>
	  <point x="208" y="453"/>
	  <point x="224" y="476"/>
	  <point x="224" y="515" type="curve" smooth="yes"/>
	  <point x="224" y="581"/>
	  <point x="185" y="617"/>
	  <point x="126" y="617" type="curve" smooth="yes"/>
	</contour>
	<contour>
	  <point x="436" y="365" type="line"/>
	  <point x="414" y="284"/>
	  <point x="381" y="198"/>
	  <point x="344" y="131" type="curve"/>
	  <point x="344" y="85" type="line"/>
	  <point x="477" y="85" type="line"/>
	  <point x="477" y="0" type="line"/>
	  <point x="532" y="0" type="line"/>
	  <point x="532" y="85" type="line"/>
	  <point x="568" y="85" type="line"/>
	  <point x="568" y="135" type="line"/>
	  <point x="532" y="135" type="line"/>
	  <point x="532" y="314" type="line"/>
	  <point x="508" y="314" type="line"/>
	  <point x="501" y="279"/>
	  <point x="485" y="237"/>
	  <point x="477" y="216" type="curve"/>
	  <point x="477" y="135" type="line"/>
	  <point x="402" y="135" type="line"/>
	  <point x="425" y="174"/>
	  <point x="471" y="275"/>
	  <point x="491" y="365" type="curve"/>
	</contour>
  </outline>
</glyph>
<glyph name="questiondown" format="1">
  <advance width="443"/>
  <unicode hex="00BF"/>
  <outline>
	<contour>
	  <point x="254" y="306" type="line"/>
	  <point x="177" y="306" type="line"/>
	  <point x="177" y="270" type="line" smooth="yes"/>
	  <point x="177" y="163"/>
	  <point x="62" y="165"/>
	  <point x="62" y="2" type="curve" smooth="yes"/>
	  <point x="62" y="-89"/>
	  <point x="129" y="-152"/>
	  <point x="219" y="-152" type="curve" smooth="yes"/>
	  <point x="331" y="-152"/>
	  <point x="385" y="-76"/>
	  <point x="385" y="28" type="curve" smooth="yes"/>
	  <point x="385" y="39"/>
	  <point x="383" y="59"/>
	  <point x="383" y="59" type="curve" smooth="yes"/>
	  <point x="304" y="59" type="line" smooth="yes"/>
	  <point x="304" y="59"/>
	  <point x="305" y="50"/>
	  <point x="305" y="35" type="curve" smooth="yes"/>
	  <point x="305" y="-6"/>
	  <point x="297" y="-84"/>
	  <point x="225" y="-84" type="curve" smooth="yes"/>
	  <point x="151" y="-84"/>
	  <point x="142" y="-12"/>
	  <point x="142" y="11" type="curve" smooth="yes"/>
	  <point x="142" y="129"/>
	  <point x="254" y="136"/>
	  <point x="254" y="256" type="curve" smooth="yes"/>
	</contour>
	<contour>
	  <point x="260" y="370" type="line"/>
	  <point x="260" y="465" type="line"/>
	  <point x="171" y="465" type="line"/>
	  <point x="171" y="370" type="line"/>
	</contour>
  </outline>
</glyph>
<glyph name="Ccedilla" format="1">
  <advance width="523"/>
  <unicode hex="00C7"/>
  <outline>
	<contour>
	  <point x="118" y="617"/>
	  <point x="37" y="514"/>
	  <point x="37" y="303" type="curve" smooth="yes"/>
	  <point x="37" y="115"/>
	  <point x="102" y="12"/>
	  <point x="228" y="-7" type="curve"/>
	  <point x="218" y="-68" type="line"/>
	  <point x="248" y="-68" type="line" smooth="yes"/>
	  <point x="271" y="-68"/>
	  <point x="278" y="-75"/>
	  <point x="278" y="-89" type="curve" smooth="yes"/>
	  <point x="278" y="-106"/>
	  <point x="265" y="-111"/>
	  <point x="246" y="-111" type="curve" smooth="yes"/>
	  <point x="179" y="-111" type="line"/>
	  <point x="179" y="-154" type="line"/>
	  <point x="200" y="-158"/>
	  <point x="228" y="-161"/>
	  <point x="253" y="-161" type="curve" smooth="yes"/>
	  <point x="289" y="-161"/>
	  <point x="345" y="-149"/>
	  <point x="345" y="-89" type="curve" smooth="yes"/>
	  <point x="345" y="-49"/>
	  <point x="311" y="-34"/>
	  <point x="273" y="-32" type="curve"/>
	  <point x="276" y="-11" type="line"/>
	  <point x="400" y="-11"/>
	  <point x="487" y="61"/>
	  <point x="487" y="217" type="curve"/>
	  <point x="410" y="217" type="line"/>
	  <point x="410" y="112"/>
	  <point x="357" y="61"/>
	  <point x="276" y="61" type="curve" smooth="yes"/>
	  <point x="170" y="61"/>
	  <point x="118" y="133"/>
	  <point x="118" y="281" type="curve" smooth="yes"/>
	  <point x="118" y="325" type="line" smooth="yes"/>
	  <point x="118" y="473"/>
	  <point x="170" y="545"/>
	  <point x="276" y="545" type="curve" smooth="yes"/>
	  <point x="355" y="545"/>
	  <point x="408" y="493"/>
	  <point x="408" y="387" type="curve"/>
	  <point x="487" y="387" type="line"/>
	  <point x="487" y="542"/>
	  <point x="400" y="617"/>
	  <point x="276" y="617" type="curve" smooth="yes"/>
	</contour>
  </outline>
</glyph>
<glyph name="Egrave" format="1">
  <advance width="484"/>
  <unicode hex="00C8"/>
  <outline>
	<contour>
	  <point x="436" y="606" type="line"/>
	  <point x="62" y="606" type="line"/>
	  <point x="62" y="0" type="line"/>
	  <point x="441" y="0" type="line"/>
	  <point x="441" y="71" type="line"/>
	  <point x="140" y="71" type="line"/>
	  <point x="140" y="275" type="line"/>
	  <point x="397" y="275" type="line"/>
	  <point x="397" y="346" type="line"/>
	  <point x="140" y="346" type="line"/>
	  <point x="140" y="536" type="line"/>
	  <point x="436" y="536" type="line"/>
	</contour>
	<contour>
	  <point x="218" y="781" type="line"/>
	  <point x="139" y="781" type="line"/>
	  <point x="138" y="778" type="line"/>
	  <point x="233" y="664" type="line"/>
	  <point x="294" y="664" type="line"/>
	</contour>
  </outline>
</glyph>
<glyph name="Ecircumflex" format="1">
  <advance width="484"/>
  <unicode hex="00CA"/>
  <outline>
	<contour>
	  <point x="352" y="660" type="line"/>
	  <point x="277" y="780" type="line"/>
	  <point x="208" y="780" type="line"/>
	  <point x="132" y="660" type="line"/>
	  <point x="202" y="660" type="line"/>
	  <point x="242" y="730" type="line"/>
	  <point x="281" y="660" type="line"/>
	</contour>
	<contour>
	  <point x="62" y="0" type="line"/>
	  <point x="441" y="0" type="line"/>
	  <point x="441" y="71" type="line"/>
	  <point x="140" y="71" type="line"/>
	  <point x="140" y="275" type="line"/>
	  <point x="397" y="275" type="line"/>
	  <point x="397" y="346" type="line"/>
	  <point x="140" y="346" type="line"/>
	  <point x="140" y="536" type="line"/>
	  <point x="436" y="536" type="line"/>
	  <point x="436" y="606" type="line"/>
	  <point x="62" y="606" type="line"/>
	</contour>
  </outline>
</glyph>
<glyph name="Icircumflex" format="1">
  <advance width="202"/>
  <unicode hex="00CE"/>
  <outline>
	<contour>
	  <point x="140" y="0" type="line"/>
	  <point x="140" y="606" type="line"/>
	  <point x="62" y="606" type="line"/>
	  <point x="62" y="0" type="line"/>
	</contour>
	<contour>
	  <point x="211" y="660" type="line"/>
	  <point x="136" y="780" type="line"/>
	  <point x="67" y="780" type="line"/>
	  <point x="-10" y="660" type="line"/>
	  <point x="62" y="660" type="line"/>
	  <point x="102" y="730" type="line"/>
	  <point x="141" y="660" type="line"/>
	</contour>
  </outline>
</glyph>
<glyph name="Idieresis" format="1">
  <advance width="202"/>
  <unicode hex="00CF"/>
  <outline>
	<contour>
	  <point x="140" y="606" type="line"/>
	  <point x="62" y="606" type="line"/>
	  <point x="62" y="0" type="line"/>
	  <point x="140" y="0" type="line"/>
	</contour>
	<contour>
	  <point x="73" y="781" type="line"/>
	  <point x="-4" y="781" type="line"/>
	  <point x="-4" y="697" type="line"/>
	  <point x="73" y="697" type="line"/>
	</contour>
	<contour>
	  <point x="206" y="781" type="line"/>
	  <point x="129" y="781" type="line"/>
	  <point x="129" y="697" type="line"/>
	  <point x="206" y="697" type="line"/>
	</contour>
  </outline>
</glyph>
<glyph name="Otilde" format="1">
  <advance width="564"/>
  <unicode hex="00D5"/>
  <outline>
	<contour>
	  <point x="133" y="617"/>
	  <point x="43" y="514"/>
	  <point x="43" y="303" type="curve" smooth="yes"/>
	  <point x="43" y="93"/>
	  <point x="133" y="-11"/>
	  <point x="282" y="-11" type="curve" smooth="yes"/>
	  <point x="431" y="-11"/>
	  <point x="521" y="93"/>
	  <point x="521" y="303" type="curve" smooth="yes"/>
	  <point x="521" y="514"/>
	  <point x="431" y="617"/>
	  <point x="282" y="617" type="curve" smooth="yes"/>
	</contour>
	<contour>
	  <point x="379" y="545"/>
	  <point x="439" y="473"/>
	  <point x="439" y="325" type="curve" smooth="yes"/>
	  <point x="439" y="281" type="line" smooth="yes"/>
	  <point x="439" y="133"/>
	  <point x="379" y="61"/>
	  <point x="282" y="61" type="curve" smooth="yes"/>
	  <point x="185" y="61"/>
	  <point x="125" y="133"/>
	  <point x="125" y="281" type="curve" smooth="yes"/>
	  <point x="125" y="325" type="line" smooth="yes"/>
	  <point x="125" y="473"/>
	  <point x="185" y="545"/>
	  <point x="282" y="545" type="curve" smooth="yes"/>
	</contour>
	<contour>
	  <point x="360" y="781" type="line"/>
	  <point x="357" y="760"/>
	  <point x="346" y="754"/>
	  <point x="330" y="754" type="curve" smooth="yes"/>
	  <point x="295" y="754"/>
	  <point x="266" y="781"/>
	  <point x="228" y="781" type="curve" smooth="yes"/>
	  <point x="175" y="781"/>
	  <point x="153" y="729"/>
	  <point x="153" y="689" type="curve"/>
	  <point x="204" y="689" type="line"/>
	  <point x="207" y="709"/>
	  <point x="218" y="716"/>
	  <point x="234" y="716" type="curve" smooth="yes"/>
	  <point x="269" y="716"/>
	  <point x="298" y="689"/>
	  <point x="336" y="689" type="curve" smooth="yes"/>
	  <point x="389" y="689"/>
	  <point x="411" y="740"/>
	  <point x="411" y="781" type="curve"/>
	</contour>
  </outline>
</glyph>
<glyph name="Uacute" format="1">
  <advance width="523"/>
  <unicode hex="00DA"/>
  <outline>
	<contour>
	  <point x="461" y="606" type="line"/>
	  <point x="384" y="606" type="line"/>
	  <point x="384" y="193" type="line" smooth="yes"/>
	  <point x="384" y="107"/>
	  <point x="338" y="61"/>
	  <point x="262" y="61" type="curve" smooth="yes"/>
	  <point x="186" y="61"/>
	  <point x="140" y="107"/>
	  <point x="140" y="193" type="curve" smooth="yes"/>
	  <point x="140" y="606" type="line"/>
	  <point x="62" y="606" type="line"/>
	  <point x="62" y="197" type="line" smooth="yes"/>
	  <point x="62" y="61"/>
	  <point x="137" y="-11"/>
	  <point x="262" y="-11" type="curve" smooth="yes"/>
	  <point x="386" y="-11"/>
	  <point x="461" y="61"/>
	  <point x="461" y="197" type="curve" smooth="yes"/>
	</contour>
	<contour>
	  <point x="364" y="781" type="line"/>
	  <point x="285" y="781" type="line"/>
	  <point x="209" y="664" type="line"/>
	  <point x="271" y="664" type="line"/>
	  <point x="365" y="778" type="line"/>
	</contour>
  </outline>
</glyph>
<glyph name="eth" format="1">
  <advance width="403"/>
  <unicode hex="00F0"/>
  <outline>
	<contour>
	  <point x="105" y="639" type="line"/>
	  <point x="103" y="636" type="line"/>
	  <point x="118" y="620"/>
	  <point x="132" y="604"/>
	  <point x="145" y="589" type="curve"/>
	  <point x="82" y="583" type="line"/>
	  <point x="82" y="530" type="line"/>
	  <point x="187" y="539" type="line"/>
	  <point x="206" y="513"/>
	  <point x="224" y="488"/>
	  <point x="238" y="461" type="curve"/>
	  <point x="240" y="463" type="line"/>
	  <point x="225" y="470"/>
	  <point x="210" y="476"/>
	  <point x="192" y="476" type="curve" smooth="yes"/>
	  <point x="101" y="476"/>
	  <point x="35" y="404"/>
	  <point x="35" y="232" type="curve" smooth="yes"/>
	  <point x="35" y="65"/>
	  <point x="93" y="-11"/>
	  <point x="202" y="-11" type="curve" smooth="yes"/>
	  <point x="310" y="-11"/>
	  <point x="368" y="65"/>
	  <point x="368" y="232" type="curve" smooth="yes"/>
	  <point x="368" y="361"/>
	  <point x="326" y="461"/>
	  <point x="263" y="546" type="curve"/>
	  <point x="326" y="552" type="line"/>
	  <point x="326" y="606" type="line"/>
	  <point x="223" y="596" type="line"/>
	  <point x="210" y="611"/>
	  <point x="196" y="625"/>
	  <point x="183" y="639" type="curve"/>
	</contour>
	<contour>
	  <point x="261" y="411"/>
	  <point x="292" y="356"/>
	  <point x="292" y="249" type="curve" smooth="yes"/>
	  <point x="292" y="216" type="line" smooth="yes"/>
	  <point x="292" y="109"/>
	  <point x="262" y="54"/>
	  <point x="202" y="54" type="curve" smooth="yes"/>
	  <point x="141" y="54"/>
	  <point x="111" y="109"/>
	  <point x="111" y="216" type="curve" smooth="yes"/>
	  <point x="111" y="249" type="line" smooth="yes"/>
	  <point x="111" y="356"/>
	  <point x="141" y="411"/>
	  <point x="202" y="411" type="curve" smooth="yes"/>
	</contour>
  </outline>
</glyph>
<glyph name="ntilde" format="1">
  <advance width="403"/>
  <unicode hex="00F1"/>
  <outline>
	<contour>
	  <point x="189" y="476"/>
	  <point x="149" y="457"/>
	  <point x="123" y="411" type="curve"/>
	  <point x="118" y="411" type="line"/>
	  <point x="108" y="465" type="line"/>
	  <point x="53" y="465" type="line"/>
	  <point x="53" y="0" type="line"/>
	  <point x="126" y="0" type="line"/>
	  <point x="126" y="284" type="line" smooth="yes"/>
	  <point x="126" y="364"/>
	  <point x="166" y="411"/>
	  <point x="212" y="411" type="curve" smooth="yes"/>
	  <point x="251" y="411"/>
	  <point x="278" y="394"/>
	  <point x="278" y="330" type="curve" smooth="yes"/>
	  <point x="278" y="0" type="line"/>
	  <point x="350" y="0" type="line"/>
	  <point x="350" y="335" type="line" smooth="yes"/>
	  <point x="350" y="438"/>
	  <point x="305" y="476"/>
	  <point x="235" y="476" type="curve" smooth="yes"/>
	</contour>
	<contour>
	  <point x="279" y="639" type="line"/>
	  <point x="277" y="619"/>
	  <point x="265" y="612"/>
	  <point x="249" y="612" type="curve" smooth="yes"/>
	  <point x="215" y="612"/>
	  <point x="186" y="639"/>
	  <point x="148" y="639" type="curve" smooth="yes"/>
	  <point x="95" y="639"/>
	  <point x="72" y="588"/>
	  <point x="72" y="547" type="curve"/>
	  <point x="124" y="547" type="line"/>
	  <point x="126" y="568"/>
	  <point x="138" y="575"/>
	  <point x="154" y="575" type="curve" smooth="yes"/>
	  <point x="188" y="575"/>
	  <point x="217" y="547"/>
	  <point x="255" y="547" type="curve" smooth="yes"/>
	  <point x="309" y="547"/>
	  <point x="331" y="598"/>
	  <point x="331" y="639" type="curve"/>
	</contour>
  </outline>
</glyph>
<glyph name="oacute" format="1">
  <advance width="403"/>
  <unicode hex="00F3"/>
  <outline>
	<contour>
	  <point x="93" y="476"/>
	  <point x="35" y="400"/>
	  <point x="35" y="232" type="curve" smooth="yes"/>
	  <point x="35" y="65"/>
	  <point x="93" y="-11"/>
	  <point x="202" y="-11" type="curve" smooth="yes"/>
	  <point x="310" y="-11"/>
	  <point x="368" y="65"/>
	  <point x="368" y="232" type="curve" smooth="yes"/>
	  <point x="368" y="400"/>
	  <point x="310" y="476"/>
	  <point x="202" y="476" type="curve" smooth="yes"/>
	</contour>
	<contour>
	  <point x="262" y="411"/>
	  <point x="292" y="356"/>
	  <point x="292" y="249" type="curve" smooth="yes"/>
	  <point x="292" y="216" type="line" smooth="yes"/>
	  <point x="292" y="109"/>
	  <point x="262" y="54"/>
	  <point x="202" y="54" type="curve" smooth="yes"/>
	  <point x="141" y="54"/>
	  <point x="111" y="109"/>
	  <point x="111" y="216" type="curve" smooth="yes"/>
	  <point x="111" y="249" type="line" smooth="yes"/>
	  <point x="111" y="356"/>
	  <point x="141" y="411"/>
	  <point x="202" y="411" type="curve" smooth="yes"/>
	</contour>
	<contour>
	  <point x="304" y="639" type="line"/>
	  <point x="225" y="639" type="line"/>
	  <point x="149" y="522" type="line"/>
	  <point x="210" y="522" type="line"/>
	  <point x="305" y="636" type="line"/>
	</contour>
  </outline>
</glyph>
<glyph name="uacute" format="1">
  <advance width="403"/>
  <unicode hex="00FA"/>
  <outline>
	<contour>
	  <point x="350" y="465" type="line"/>
	  <point x="278" y="465" type="line"/>
	  <point x="278" y="181" type="line" smooth="yes"/>
	  <point x="278" y="101"/>
	  <point x="237" y="54"/>
	  <point x="191" y="54" type="curve" smooth="yes"/>
	  <point x="152" y="54"/>
	  <point x="126" y="71"/>
	  <point x="126" y="135" type="curve" smooth="yes"/>
	  <point x="126" y="465" type="line"/>
	  <point x="53" y="465" type="line"/>
	  <point x="53" y="130" type="line" smooth="yes"/>
	  <point x="53" y="27"/>
	  <point x="98" y="-11"/>
	  <point x="168" y="-11" type="curve" smooth="yes"/>
	  <point x="214" y="-11"/>
	  <point x="255" y="8"/>
	  <point x="280" y="54" type="curve"/>
	  <point x="286" y="54" type="line"/>
	  <point x="295" y="0" type="line"/>
	  <point x="350" y="0" type="line"/>
	</contour>
	<contour>
	  <point x="304" y="639" type="line"/>
	  <point x="225" y="639" type="line"/>
	  <point x="149" y="522" type="line"/>
	  <point x="210" y="522" type="line"/>
	  <point x="305" y="636" type="line"/>
	</contour>
  </outline>
</glyph>
<glyph name="thorn" format="1">
  <advance width="403"/>
  <unicode hex="00FE"/>
  <outline>
	<contour>
	  <point x="126" y="639" type="line"/>
	  <point x="53" y="639" type="line"/>
	  <point x="53" y="-153" type="line"/>
	  <point x="126" y="-153" type="line"/>
	  <point x="126" y="41" type="line"/>
	  <point x="130" y="41" type="line"/>
	  <point x="146" y="9"/>
	  <point x="184" y="-11"/>
	  <point x="229" y="-11" type="curve" smooth="yes"/>
	  <point x="306" y="-11"/>
	  <point x="368" y="63"/>
	  <point x="368" y="232" type="curve" smooth="yes"/>
	  <point x="368" y="402"/>
	  <point x="312" y="476"/>
	  <point x="224" y="476" type="curve" smooth="yes"/>
	  <point x="183" y="476"/>
	  <point x="148" y="455"/>
	  <point x="129" y="423" type="curve"/>
	  <point x="126" y="424" type="line"/>
	</contour>
	<contour>
	  <point x="264" y="411"/>
	  <point x="292" y="365"/>
	  <point x="292" y="249" type="curve" smooth="yes"/>
	  <point x="292" y="216" type="line" smooth="yes"/>
	  <point x="292" y="100"/>
	  <point x="264" y="54"/>
	  <point x="209" y="54" type="curve" smooth="yes"/>
	  <point x="153" y="54"/>
	  <point x="126" y="109"/>
	  <point x="126" y="216" type="curve" smooth="yes"/>
	  <point x="126" y="249" type="line" smooth="yes"/>
	  <point x="126" y="356"/>
	  <point x="153" y="411"/>
	  <point x="209" y="411" type="curve" smooth="yes"/>
	</contour>
  </outline>
</glyph>
<glyph name="Ccircumflex" format="1">
  <advance width="523"/>
  <unicode hex="0108"/>
  <outline>
	<contour>
	  <point x="118" y="617"/>
	  <point x="37" y="514"/>
	  <point x="37" y="303" type="curve" smooth="yes"/>
	  <point x="37" y="93"/>
	  <point x="118" y="-11"/>
	  <point x="276" y="-11" type="curve" smooth="yes"/>
	  <point x="400" y="-11"/>
	  <point x="487" y="61"/>
	  <point x="487" y="217" type="curve"/>
	  <point x="410" y="217" type="line"/>
	  <point x="410" y="112"/>
	  <point x="357" y="61"/>
	  <point x="276" y="61" type="curve" smooth="yes"/>
	  <point x="170" y="61"/>
	  <point x="118" y="133"/>
	  <point x="118" y="281" type="curve" smooth="yes"/>
	  <point x="118" y="325" type="line" smooth="yes"/>
	  <point x="118" y="473"/>
	  <point x="170" y="545"/>
	  <point x="276" y="545" type="curve" smooth="yes"/>
	  <point x="355" y="545"/>
	  <point x="408" y="493"/>
	  <point x="408" y="387" type="curve"/>
	  <point x="487" y="387" type="line"/>
	  <point x="487" y="542"/>
	  <point x="400" y="617"/>
	  <point x="276" y="617" type="curve" smooth="yes"/>
	</contour>
	<contour>
	  <point x="372" y="660" type="line"/>
	  <point x="296" y="780" type="line"/>
	  <point x="227" y="780" type="line"/>
	  <point x="151" y="660" type="line"/>
	  <point x="222" y="660" type="line"/>
	  <point x="263" y="730" type="line"/>
	  <point x="301" y="660" type="line"/>
	</contour>
  </outline>
</glyph>
<glyph name="Cdotaccent" format="1">
  <advance width="523"/>
  <unicode hex="010A"/>
  <outline>
	<contour>
	  <point x="118" y="617"/>
	  <point x="37" y="514"/>
	  <point x="37" y="303" type="curve" smooth="yes"/>
	  <point x="37" y="93"/>
	  <point x="118" y="-11"/>
	  <point x="276" y="-11" type="curve" smooth="yes"/>
	  <point x="400" y="-11"/>
	  <point x="487" y="61"/>
	  <point x="487" y="217" type="curve"/>
	  <point x="410" y="217" type="line"/>
	  <point x="410" y="112"/>
	  <point x="357" y="61"/>
	  <point x="276" y="61" type="curve" smooth="yes"/>
	  <point x="170" y="61"/>
	  <point x="118" y="133"/>
	  <point x="118" y="281" type="curve" smooth="yes"/>
	  <point x="118" y="325" type="line" smooth="yes"/>
	  <point x="118" y="473"/>
	  <point x="170" y="545"/>
	  <point x="276" y="545" type="curve" smooth="yes"/>
	  <point x="355" y="545"/>
	  <point x="408" y="493"/>
	  <point x="408" y="387" type="curve"/>
	  <point x="487" y="387" type="line"/>
	  <point x="487" y="542"/>
	  <point x="400" y="617"/>
	  <point x="276" y="617" type="curve" smooth="yes"/>
	</contour>
	<contour>
	  <point x="301" y="697" type="line"/>
	  <point x="301" y="781" type="line"/>
	  <point x="223" y="781" type="line"/>
	  <point x="223" y="697" type="line"/>
	</contour>
  </outline>
</glyph>
<glyph name="Dcaron" format="1">
  <advance width="523"/>
  <unicode hex="010E"/>
  <outline>
	<contour>
	  <point x="295" y="661" type="line"/>
	  <point x="372" y="781" type="line"/>
	  <point x="301" y="781" type="line"/>
	  <point x="262" y="711" type="line"/>
	  <point x="222" y="781" type="line"/>
	  <point x="151" y="781" type="line"/>
	  <point x="226" y="661" type="line"/>
	</contour>
	<contour>
	  <point x="62" y="0" type="line"/>
	  <point x="250" y="0" type="line" smooth="yes"/>
	  <point x="393" y="0"/>
	  <point x="480" y="104"/>
	  <point x="480" y="312" type="curve" smooth="yes"/>
	  <point x="480" y="507"/>
	  <point x="393" y="606"/>
	  <point x="250" y="606" type="curve" smooth="yes"/>
	  <point x="62" y="606" type="line"/>
	</contour>
	<contour>
	  <point x="140" y="536" type="line"/>
	  <point x="243" y="536" type="line" smooth="yes"/>
	  <point x="339" y="536"/>
	  <point x="399" y="469"/>
	  <point x="399" y="334" type="curve" smooth="yes"/>
	  <point x="399" y="290" type="line" smooth="yes"/>
	  <point x="399" y="142"/>
	  <point x="339" y="71"/>
	  <point x="243" y="71" type="curve" smooth="yes"/>
	  <point x="140" y="71" type="line"/>
	</contour>
  </outline>
</glyph>
<glyph name="Gbreve" format="1">
  <advance width="564"/>
  <unicode hex="011E"/>
  <outline>
	<contour>
	  <point x="335" y="781" type="line"/>
	  <point x="333" y="768"/>
	  <point x="312" y="751"/>
	  <point x="282" y="751" type="curve" smooth="yes"/>
	  <point x="253" y="751"/>
	  <point x="232" y="768"/>
	  <point x="230" y="781" type="curve"/>
	  <point x="173" y="781" type="line"/>
	  <point x="173" y="741"/>
	  <point x="215" y="695"/>
	  <point x="282" y="695" type="curve" smooth="yes"/>
	  <point x="350" y="695"/>
	  <point x="392" y="741"/>
	  <point x="392" y="781" type="curve"/>
	</contour>
	<contour>
	  <point x="135" y="617"/>
	  <point x="43" y="514"/>
	  <point x="43" y="303" type="curve" smooth="yes"/>
	  <point x="43" y="93"/>
	  <point x="129" y="-11"/>
	  <point x="282" y="-11" type="curve" smooth="yes"/>
	  <point x="347" y="-11"/>
	  <point x="401" y="12"/>
	  <point x="438" y="67" type="curve"/>
	  <point x="455" y="0" type="line"/>
	  <point x="507" y="0" type="line"/>
	  <point x="507" y="316" type="line"/>
	  <point x="270" y="316" type="line"/>
	  <point x="270" y="248" type="line"/>
	  <point x="460" y="248" type="line"/>
	  <point x="427" y="280" type="line"/>
	  <point x="427" y="233" type="line" smooth="yes"/>
	  <point x="427" y="118"/>
	  <point x="383" y="61"/>
	  <point x="282" y="61" type="curve" smooth="yes"/>
	  <point x="180" y="61"/>
	  <point x="125" y="133"/>
	  <point x="125" y="281" type="curve" smooth="yes"/>
	  <point x="125" y="325" type="line" smooth="yes"/>
	  <point x="125" y="473"/>
	  <point x="187" y="545"/>
	  <point x="286" y="545" type="curve" smooth="yes"/>
	  <point x="370" y="545"/>
	  <point x="427" y="500"/>
	  <point x="427" y="400" type="curve"/>
	  <point x="507" y="400" type="line"/>
	  <point x="507" y="546"/>
	  <point x="413" y="617"/>
	  <point x="286" y="617" type="curve" smooth="yes"/>
	</contour>
  </outline>
</glyph>
<glyph name="gdotaccent" format="1">
  <advance width="403"/>
  <unicode hex="0121"/>
  <outline>
	<contour>
	  <point x="322" y="540" type="line"/>
	  <point x="317" y="511"/>
	  <point x="306" y="481"/>
	  <point x="264" y="459" type="curve"/>
	  <point x="245" y="469"/>
	  <point x="221" y="476"/>
	  <point x="197" y="476" type="curve" smooth="yes"/>
	  <point x="103" y="476"/>
	  <point x="45" y="416"/>
	  <point x="45" y="319" type="curve" smooth="yes"/>
	  <point x="45" y="267"/>
	  <point x="65" y="226"/>
	  <point x="99" y="199" type="curve"/>
	  <point x="60" y="185"/>
	  <point x="34" y="156"/>
	  <point x="34" y="118" type="curve" smooth="yes"/>
	  <point x="34" y="91"/>
	  <point x="48" y="64"/>
	  <point x="72" y="49" type="curve"/>
	  <point x="34" y="34"/>
	  <point x="11" y="-5"/>
	  <point x="11" y="-50" type="curve" smooth="yes"/>
	  <point x="11" y="-111"/>
	  <point x="50" y="-161"/>
	  <point x="126" y="-161" type="curve" smooth="yes"/>
	  <point x="258" y="-161" type="line" smooth="yes"/>
	  <point x="347" y="-161"/>
	  <point x="394" y="-103"/>
	  <point x="394" y="-29" type="curve" smooth="yes"/>
	  <point x="394" y="30"/>
	  <point x="352" y="80"/>
	  <point x="285" y="80" type="curve" smooth="yes"/>
	  <point x="152" y="80" type="line" smooth="yes"/>
	  <point x="129" y="80"/>
	  <point x="110" y="98"/>
	  <point x="110" y="121" type="curve" smooth="yes"/>
	  <point x="110" y="144"/>
	  <point x="128" y="163"/>
	  <point x="152" y="163" type="curve" smooth="yes"/>
	  <point x="201" y="163" type="line" smooth="yes"/>
	  <point x="291" y="164"/>
	  <point x="349" y="223"/>
	  <point x="349" y="319" type="curve" smooth="yes"/>
	  <point x="349" y="365"/>
	  <point x="333" y="402"/>
	  <point x="308" y="429" type="curve"/>
	  <point x="356" y="441"/>
	  <point x="385" y="484"/>
	  <point x="385" y="540" type="curve"/>
	</contour>
	<contour>
	  <point x="266" y="11" type="line"/>
	  <point x="303" y="11"/>
	  <point x="321" y="-13"/>
	  <point x="321" y="-43" type="curve" smooth="yes"/>
	  <point x="321" y="-73"/>
	  <point x="297" y="-98"/>
	  <point x="266" y="-98" type="curve" smooth="yes"/>
	  <point x="138" y="-98" type="line" smooth="yes"/>
	  <point x="102" y="-98"/>
	  <point x="84" y="-73"/>
	  <point x="84" y="-43" type="curve" smooth="yes"/>
	  <point x="84" y="-13"/>
	  <point x="101" y="11"/>
	  <point x="138" y="11" type="curve" smooth="yes"/>
	</contour>
	<contour>
	  <point x="248" y="415"/>
	  <point x="276" y="381"/>
	  <point x="276" y="319" type="curve" smooth="yes"/>
	  <point x="276" y="260"/>
	  <point x="248" y="223"/>
	  <point x="196" y="223" type="curve" smooth="yes"/>
	  <point x="145" y="223"/>
	  <point x="118" y="257"/>
	  <point x="118" y="319" type="curve" smooth="yes"/>
	  <point x="118" y="378"/>
	  <point x="145" y="415"/>
	  <point x="196" y="415" type="curve" smooth="yes"/>
	</contour>
	<contour>
	  <point x="240" y="555" type="line"/>
	  <point x="240" y="639" type="line"/>
	  <point x="164" y="639" type="line"/>
	  <point x="164" y="555" type="line"/>
	</contour>
  </outline>
</glyph>
<glyph name="Hcircumflex" format="1">
  <advance width="523"/>
  <unicode hex="0124"/>
  <outline>
	<contour>
	  <point x="461" y="606" type="line"/>
	  <point x="384" y="606" type="line"/>
	  <point x="384" y="346" type="line"/>
	  <point x="140" y="346" type="line"/>
	  <point x="140" y="606" type="line"/>
	  <point x="62" y="606" type="line"/>
	  <point x="62" y="0" type="line"/>
	  <point x="140" y="0" type="line"/>
	  <point x="140" y="275" type="line"/>
	  <point x="384" y="275" type="line"/>
	  <point x="384" y="0" type="line"/>
	  <point x="461" y="0" type="line"/>
	</contour>
	<contour>
	  <point x="296" y="780" type="line"/>
	  <point x="227" y="780" type="line"/>
	  <point x="151" y="660" type="line"/>
	  <point x="222" y="660" type="line"/>
	  <point x="263" y="730" type="line"/>
	  <point x="301" y="660" type="line"/>
	  <point x="372" y="660" type="line"/>
	</contour>
  </outline>
</glyph>
<glyph name="Itilde" format="1">
  <advance width="202"/>
  <unicode hex="0128"/>
  <outline>
	<contour>
	  <point x="140" y="0" type="line"/>
	  <point x="140" y="606" type="line"/>
	  <point x="62" y="606" type="line"/>
	  <point x="62" y="0" type="line"/>
	</contour>
	<contour>
	  <point x="179" y="781" type="line"/>
	  <point x="176" y="760"/>
	  <point x="164" y="754"/>
	  <point x="149" y="754" type="curve" smooth="yes"/>
	  <point x="114" y="754"/>
	  <point x="85" y="781"/>
	  <point x="47" y="781" type="curve" smooth="yes"/>
	  <point x="-6" y="781"/>
	  <point x="-28" y="729"/>
	  <point x="-28" y="689" type="curve"/>
	  <point x="23" y="689" type="line"/>
	  <point x="26" y="709"/>
	  <point x="37" y="716"/>
	  <point x="53" y="716" type="curve" smooth="yes"/>
	  <point x="88" y="716"/>
	  <point x="117" y="689"/>
	  <point x="155" y="689" type="curve" smooth="yes"/>
	  <point x="208" y="689"/>
	  <point x="230" y="740"/>
	  <point x="230" y="781" type="curve"/>
	</contour>
  </outline>
</glyph>
<glyph name="Imacron" format="1">
  <advance width="202"/>
  <unicode hex="012A"/>
  <outline>
	<contour>
	  <point x="140" y="0" type="line"/>
	  <point x="140" y="606" type="line"/>
	  <point x="62" y="606" type="line"/>
	  <point x="62" y="0" type="line"/>
	</contour>
	<contour>
	  <point x="212" y="671" type="line"/>
	  <point x="212" y="735" type="line"/>
	  <point x="-10" y="735" type="line"/>
	  <point x="-10" y="671" type="line"/>
	</contour>
  </outline>
</glyph>
<glyph name="ibreve" format="1">
  <advance width="202"/>
  <unicode hex="012D"/>
  <outline>
	<contour>
	  <point x="137" y="0" type="line"/>
	  <point x="137" y="465" type="line"/>
	  <point x="65" y="465" type="line"/>
	  <point x="65" y="0" type="line"/>
	</contour>
	<contour>
	  <point x="154" y="639" type="line"/>
	  <point x="152" y="627"/>
	  <point x="131" y="610"/>
	  <point x="101" y="610" type="curve" smooth="yes"/>
	  <point x="72" y="610"/>
	  <point x="51" y="627"/>
	  <point x="49" y="639" type="curve"/>
	  <point x="-9" y="639" type="line"/>
	  <point x="-9" y="599"/>
	  <point x="34" y="553"/>
	  <point x="101" y="553" type="curve" smooth="yes"/>
	  <point x="169" y="553"/>
	  <point x="210" y="599"/>
	  <point x="210" y="639" type="curve"/>
	</contour>
  </outline>
</glyph>
<glyph name="iogonek" format="1">
  <advance width="161"/>
  <unicode hex="012F"/>
  <outline>
	<contour>
	  <point x="117" y="465" type="line"/>
	  <point x="44" y="465" type="line"/>
	  <point x="44" y="0" type="line"/>
	  <point x="59" y="0" type="line"/>
	  <point x="41" y="-20"/>
	  <point x="27" y="-44"/>
	  <point x="27" y="-81" type="curve" smooth="yes"/>
	  <point x="27" y="-142"/>
	  <point x="72" y="-161"/>
	  <point x="110" y="-161" type="curve" smooth="yes"/>
	  <point x="127" y="-161"/>
	  <point x="145" y="-156"/>
	  <point x="164" y="-149" type="curve"/>
	  <point x="164" y="-103" type="line"/>
	  <point x="135" y="-103" type="line" smooth="yes"/>
	  <point x="106" y="-103"/>
	  <point x="95" y="-80"/>
	  <point x="95" y="-55" type="curve" smooth="yes"/>
	  <point x="95" y="-34"/>
	  <point x="107" y="-13"/>
	  <point x="117" y="0" type="curve"/>
	</contour>
	<contour>
	  <point x="120" y="639" type="line"/>
	  <point x="42" y="639" type="line"/>
	  <point x="42" y="555" type="line"/>
	  <point x="120" y="555" type="line"/>
	</contour>
  </outline>
</glyph>
<glyph name="Idotaccent" format="1">
  <advance width="202"/>
  <unicode hex="0130"/>
  <outline>
	<contour>
	  <point x="140" y="0" type="line"/>
	  <point x="140" y="606" type="line"/>
	  <point x="62" y="606" type="line"/>
	  <point x="62" y="0" type="line"/>
	</contour>
	<contour>
	  <point x="140" y="697" type="line"/>
	  <point x="140" y="781" type="line"/>
	  <point x="63" y="781" type="line"/>
	  <point x="63" y="697" type="line"/>
	</contour>
  </outline>
</glyph>
<glyph name="ij" format="1">
  <advance width="322"/>
  <unicode hex="0133"/>
  <outline>
	<contour>
	  <point x="278" y="465" type="line"/>
	  <point x="205" y="465" type="line"/>
	  <point x="205" y="-57" type="line" smooth="yes"/>
	  <point x="205" y="-85"/>
	  <point x="191" y="-100"/>
	  <point x="164" y="-100" type="curve" smooth="yes"/>
	  <point x="125" y="-100" type="line"/>
	  <point x="125" y="-150" type="line"/>
	  <point x="140" y="-156"/>
	  <point x="164" y="-161"/>
	  <point x="186" y="-161" type="curve" smooth="yes"/>
	  <point x="256" y="-161"/>
	  <point x="278" y="-107"/>
	  <point x="278" y="-54" type="curve" smooth="yes"/>
	</contour>
	<contour>
	  <point x="117" y="465" type="line"/>
	  <point x="44" y="465" type="line"/>
	  <point x="44" y="0" type="line"/>
	  <point x="117" y="0" type="line"/>
	</contour>
	<contour>
	  <point x="117" y="639" type="line"/>
	  <point x="44" y="639" type="line"/>
	  <point x="44" y="552" type="line"/>
	  <point x="117" y="552" type="line"/>
	</contour>
	<contour>
	  <point x="278" y="639" type="line"/>
	  <point x="205" y="639" type="line"/>
	  <point x="205" y="552" type="line"/>
	  <point x="278" y="552" type="line"/>
	</contour>
  </outline>
</glyph>
<glyph name="jcircumflex" format="1">
  <advance width="161"/>
  <unicode hex="0135"/>
  <outline>
	<contour>
	  <point x="117" y="465" type="line"/>
	  <point x="44" y="465" type="line"/>
	  <point x="44" y="-57" type="line" smooth="yes"/>
	  <point x="44" y="-85"/>
	  <point x="30" y="-100"/>
	  <point x="3" y="-100" type="curve" smooth="yes"/>
	  <point x="-36" y="-100" type="line"/>
	  <point x="-36" y="-150" type="line"/>
	  <point x="-21" y="-156"/>
	  <point x="4" y="-161"/>
	  <point x="25" y="-161" type="curve" smooth="yes"/>
	  <point x="95" y="-161"/>
	  <point x="117" y="-107"/>
	  <point x="117" y="-54" type="curve" smooth="yes"/>
	</contour>
	<contour>
	  <point x="191" y="519" type="line"/>
	  <point x="115" y="638" type="line"/>
	  <point x="46" y="638" type="line"/>
	  <point x="-30" y="519" type="line"/>
	  <point x="41" y="519" type="line"/>
	  <point x="81" y="589" type="line"/>
	  <point x="120" y="519" type="line"/>
	</contour>
  </outline>
</glyph>
<glyph name="Lcommaaccent" format="1">
  <advance width="403"/>
  <unicode hex="013B"/>
  <outline>
	<contour>
	  <point x="140" y="606" type="line"/>
	  <point x="62" y="606" type="line"/>
	  <point x="62" y="0" type="line"/>
	  <point x="387" y="0" type="line"/>
	  <point x="387" y="71" type="line"/>
	  <point x="140" y="71" type="line"/>
	</contour>
	<contour>
	  <point x="240" y="-53" type="line"/>
	  <point x="164" y="-53" type="line"/>
	  <point x="164" y="-133" type="line"/>
	  <point x="194" y="-133" type="line"/>
	  <point x="174" y="-196" type="line"/>
	  <point x="214" y="-196" type="line"/>
	  <point x="240" y="-127" type="line"/>
	</contour>
  </outline>
</glyph>
<glyph name="Ldot" format="1">
  <advance width="403"/>
  <unicode hex="013F"/>
  <outline>
	<contour>
	  <point x="140" y="606" type="line"/>
	  <point x="62" y="606" type="line"/>
	  <point x="62" y="0" type="line"/>
	  <point x="387" y="0" type="line"/>
	  <point x="387" y="71" type="line"/>
	  <point x="140" y="71" type="line"/>
	</contour>
	<contour>
	  <point x="350" y="464" type="line"/>
	  <point x="261" y="464" type="line"/>
	  <point x="261" y="366" type="line"/>
	  <point x="350" y="366" type="line"/>
	</contour>
  </outline>
</glyph>
<glyph name="nacute" format="1">
  <advance width="403"/>
  <unicode hex="0144"/>
  <outline>
	<contour>
	  <point x="189" y="476"/>
	  <point x="149" y="457"/>
	  <point x="123" y="411" type="curve"/>
	  <point x="118" y="411" type="line"/>
	  <point x="108" y="465" type="line"/>
	  <point x="53" y="465" type="line"/>
	  <point x="53" y="0" type="line"/>
	  <point x="126" y="0" type="line"/>
	  <point x="126" y="284" type="line" smooth="yes"/>
	  <point x="126" y="364"/>
	  <point x="166" y="411"/>
	  <point x="212" y="411" type="curve" smooth="yes"/>
	  <point x="251" y="411"/>
	  <point x="278" y="394"/>
	  <point x="278" y="330" type="curve" smooth="yes"/>
	  <point x="278" y="0" type="line"/>
	  <point x="350" y="0" type="line"/>
	  <point x="350" y="335" type="line" smooth="yes"/>
	  <point x="350" y="438"/>
	  <point x="305" y="476"/>
	  <point x="235" y="476" type="curve" smooth="yes"/>
	</contour>
	<contour>
	  <point x="304" y="639" type="line"/>
	  <point x="225" y="639" type="line"/>
	  <point x="149" y="522" type="line"/>
	  <point x="210" y="522" type="line"/>
	  <point x="305" y="636" type="line"/>
	</contour>
  </outline>
</glyph>
<glyph name="omacron" format="1">
  <advance width="403"/>
  <unicode hex="014D"/>
  <outline>
	<contour>
	  <point x="93" y="476"/>
	  <point x="35" y="400"/>
	  <point x="35" y="232" type="curve" smooth="yes"/>
	  <point x="35" y="65"/>
	  <point x="93" y="-11"/>
	  <point x="202" y="-11" type="curve" smooth="yes"/>
	  <point x="310" y="-11"/>
	  <point x="368" y="65"/>
	  <point x="368" y="232" type="curve" smooth="yes"/>
	  <point x="368" y="400"/>
	  <point x="310" y="476"/>
	  <point x="202" y="476" type="curve" smooth="yes"/>
	</contour>
	<contour>
	  <point x="262" y="411"/>
	  <point x="292" y="356"/>
	  <point x="292" y="249" type="curve" smooth="yes"/>
	  <point x="292" y="216" type="line" smooth="yes"/>
	  <point x="292" y="109"/>
	  <point x="262" y="54"/>
	  <point x="202" y="54" type="curve" smooth="yes"/>
	  <point x="141" y="54"/>
	  <point x="111" y="109"/>
	  <point x="111" y="216" type="curve" smooth="yes"/>
	  <point x="111" y="249" type="line" smooth="yes"/>
	  <point x="111" y="356"/>
	  <point x="141" y="411"/>
	  <point x="202" y="411" type="curve" smooth="yes"/>
	</contour>
	<contour>
	  <point x="313" y="530" type="line"/>
	  <point x="313" y="593" type="line"/>
	  <point x="91" y="593" type="line"/>
	  <point x="91" y="530" type="line"/>
	</contour>
  </outline>
</glyph>
<glyph name="Ohungarumlaut" format="1">
  <advance width="564"/>
  <unicode hex="0150"/>
  <outline>
	<contour>
	  <point x="133" y="617"/>
	  <point x="43" y="514"/>
	  <point x="43" y="303" type="curve" smooth="yes"/>
	  <point x="43" y="93"/>
	  <point x="133" y="-11"/>
	  <point x="282" y="-11" type="curve" smooth="yes"/>
	  <point x="431" y="-11"/>
	  <point x="521" y="93"/>
	  <point x="521" y="303" type="curve" smooth="yes"/>
	  <point x="521" y="514"/>
	  <point x="431" y="617"/>
	  <point x="282" y="617" type="curve" smooth="yes"/>
	</contour>
	<contour>
	  <point x="379" y="545"/>
	  <point x="439" y="473"/>
	  <point x="439" y="325" type="curve" smooth="yes"/>
	  <point x="439" y="281" type="line" smooth="yes"/>
	  <point x="439" y="133"/>
	  <point x="379" y="61"/>
	  <point x="282" y="61" type="curve" smooth="yes"/>
	  <point x="185" y="61"/>
	  <point x="125" y="133"/>
	  <point x="125" y="281" type="curve" smooth="yes"/>
	  <point x="125" y="325" type="line" smooth="yes"/>
	  <point x="125" y="473"/>
	  <point x="185" y="545"/>
	  <point x="282" y="545" type="curve" smooth="yes"/>
	</contour>
	<contour>
	  <point x="331" y="781" type="line"/>
	  <point x="253" y="781" type="line"/>
	  <point x="198" y="664" type="line"/>
	  <point x="258" y="664" type="line"/>
	  <point x="332" y="778" type="line"/>
	</contour>
	<contour>
	  <point x="447" y="781" type="line"/>
	  <point x="368" y="781" type="line"/>
	  <point x="313" y="664" type="line"/>
	  <point x="374" y="664" type="line"/>
	  <point x="448" y="778" type="line"/>
	</contour>
  </outline>
</glyph>
<glyph name="Racute" format="1">
  <advance width="523"/>
  <unicode hex="0154"/>
  <outline>
	<contour>
	  <point x="62" y="606" type="line"/>
	  <point x="62" y="0" type="line"/>
	  <point x="140" y="0" type="line"/>
	  <point x="140" y="268" type="line"/>
	  <point x="302" y="268" type="line"/>
	  <point x="415" y="0" type="line"/>
	  <point x="501" y="0" type="line"/>
	  <point x="379" y="282" type="line"/>
	  <point x="447" y="305"/>
	  <point x="487" y="363"/>
	  <point x="487" y="438" type="curve" smooth="yes"/>
	  <point x="487" y="538"/>
	  <point x="425" y="606"/>
	  <point x="306" y="606" type="curve" smooth="yes"/>
	</contour>
	<contour>
	  <point x="303" y="536" type="line"/>
	  <point x="370" y="536"/>
	  <point x="406" y="499"/>
	  <point x="406" y="438" type="curve" smooth="yes"/>
	  <point x="406" y="378"/>
	  <point x="365" y="339"/>
	  <point x="303" y="339" type="curve" smooth="yes"/>
	  <point x="140" y="339" type="line"/>
	  <point x="140" y="536" type="line"/>
	</contour>
	<contour>
	  <point x="345" y="781" type="line"/>
	  <point x="265" y="781" type="line"/>
	  <point x="189" y="664" type="line"/>
	  <point x="251" y="664" type="line"/>
	  <point x="346" y="778" type="line"/>
	</contour>
  </outline>
</glyph>
<glyph name="rcommaaccent" format="1">
  <advance width="241"/>
  <unicode hex="0157"/>
  <outline>
	<contour>
	  <point x="157" y="476"/>
	  <point x="134" y="439"/>
	  <point x="123" y="404" type="curve"/>
	  <point x="118" y="404" type="line"/>
	  <point x="108" y="465" type="line"/>
	  <point x="53" y="465" type="line"/>
	  <point x="53" y="0" type="line"/>
	  <point x="126" y="0" type="line"/>
	  <point x="126" y="284" type="line" smooth="yes"/>
	  <point x="126" y="366"/>
	  <point x="166" y="393"/>
	  <point x="212" y="393" type="curve" smooth="yes"/>
	  <point x="236" y="393" type="line"/>
	  <point x="236" y="469" type="line"/>
	  <point x="236" y="469"/>
	  <point x="221" y="476"/>
	  <point x="202" y="476" type="curve" smooth="yes"/>
	</contour>
	<contour>
	  <point x="134" y="-127" type="line"/>
	  <point x="134" y="-53" type="line"/>
	  <point x="58" y="-53" type="line"/>
	  <point x="58" y="-133" type="line"/>
	  <point x="89" y="-133" type="line"/>
	  <point x="69" y="-196" type="line"/>
	  <point x="109" y="-196" type="line"/>
	</contour>
  </outline>
</glyph>
<glyph name="rcaron" format="1">
  <advance width="241"/>
  <unicode hex="0159"/>
  <outline>
	<contour>
	  <point x="157" y="476"/>
	  <point x="134" y="439"/>
	  <point x="123" y="404" type="curve"/>
	  <point x="118" y="404" type="line"/>
	  <point x="108" y="465" type="line"/>
	  <point x="53" y="465" type="line"/>
	  <point x="53" y="0" type="line"/>
	  <point x="126" y="0" type="line"/>
	  <point x="126" y="284" type="line" smooth="yes"/>
	  <point x="126" y="366"/>
	  <point x="166" y="393"/>
	  <point x="212" y="393" type="curve" smooth="yes"/>
	  <point x="236" y="393" type="line"/>
	  <point x="236" y="469" type="line"/>
	  <point x="236" y="469"/>
	  <point x="221" y="476"/>
	  <point x="202" y="476" type="curve" smooth="yes"/>
	</contour>
	<contour>
	  <point x="142" y="520" type="line"/>
	  <point x="218" y="639" type="line"/>
	  <point x="148" y="639" type="line"/>
	  <point x="108" y="569" type="line"/>
	  <point x="69" y="639" type="line"/>
	  <point x="-3" y="639" type="line"/>
	  <point x="73" y="520" type="line"/>
	</contour>
  </outline>
</glyph>
<glyph name="Scircumflex" format="1">
  <advance width="484"/>
  <unicode hex="015C"/>
  <outline>
	<contour>
	  <point x="135" y="617"/>
	  <point x="49" y="566"/>
	  <point x="49" y="454" type="curve" smooth="yes"/>
	  <point x="49" y="235"/>
	  <point x="364" y="315"/>
	  <point x="364" y="162" type="curve" smooth="yes"/>
	  <point x="364" y="96"/>
	  <point x="318" y="61"/>
	  <point x="237" y="61" type="curve" smooth="yes"/>
	  <point x="168" y="61"/>
	  <point x="117" y="96"/>
	  <point x="117" y="171" type="curve" smooth="yes"/>
	  <point x="117" y="176"/>
	  <point x="118" y="188"/>
	  <point x="118" y="189" type="curve"/>
	  <point x="37" y="189" type="line"/>
	  <point x="37" y="187"/>
	  <point x="36" y="178"/>
	  <point x="36" y="171" type="curve" smooth="yes"/>
	  <point x="36" y="38"/>
	  <point x="130" y="-11"/>
	  <point x="240" y="-11" type="curve" smooth="yes"/>
	  <point x="358" y="-11"/>
	  <point x="446" y="39"/>
	  <point x="446" y="175" type="curve" smooth="yes"/>
	  <point x="446" y="388"/>
	  <point x="131" y="316"/>
	  <point x="131" y="461" type="curve" smooth="yes"/>
	  <point x="131" y="519"/>
	  <point x="179" y="545"/>
	  <point x="243" y="545" type="curve" smooth="yes"/>
	  <point x="304" y="545"/>
	  <point x="351" y="511"/>
	  <point x="351" y="449" type="curve" smooth="yes"/>
	  <point x="351" y="436" type="line"/>
	  <point x="431" y="436" type="line"/>
	  <point x="431" y="446" type="line" smooth="yes"/>
	  <point x="431" y="568"/>
	  <point x="347" y="617"/>
	  <point x="241" y="617" type="curve" smooth="yes"/>
	</contour>
	<contour>
	  <point x="352" y="660" type="line"/>
	  <point x="277" y="780" type="line"/>
	  <point x="208" y="780" type="line"/>
	  <point x="132" y="660" type="line"/>
	  <point x="202" y="660" type="line"/>
	  <point x="242" y="730" type="line"/>
	  <point x="281" y="660" type="line"/>
	</contour>
  </outline>
</glyph>
<glyph name="scircumflex" format="1">
  <advance width="362"/>
  <unicode hex="015D"/>
  <outline>
	<contour>
	  <point x="96" y="476"/>
	  <point x="40" y="425"/>
	  <point x="40" y="343" type="curve" smooth="yes"/>
	  <point x="40" y="176"/>
	  <point x="252" y="239"/>
	  <point x="252" y="122" type="curve" smooth="yes"/>
	  <point x="252" y="77"/>
	  <point x="220" y="53"/>
	  <point x="182" y="53" type="curve" smooth="yes"/>
	  <point x="140" y="53"/>
	  <point x="106" y="78"/>
	  <point x="106" y="136" type="curve" smooth="yes"/>
	  <point x="106" y="145" type="line"/>
	  <point x="30" y="145" type="line"/>
	  <point x="30" y="143"/>
	  <point x="29" y="138"/>
	  <point x="29" y="126" type="curve" smooth="yes"/>
	  <point x="29" y="57"/>
	  <point x="72" y="-11"/>
	  <point x="179" y="-11" type="curve" smooth="yes"/>
	  <point x="264" y="-11"/>
	  <point x="327" y="33"/>
	  <point x="327" y="133" type="curve" smooth="yes"/>
	  <point x="327" y="306"/>
	  <point x="115" y="247"/>
	  <point x="115" y="348" type="curve" smooth="yes"/>
	  <point x="115" y="374"/>
	  <point x="126" y="412"/>
	  <point x="178" y="412" type="curve" smooth="yes"/>
	  <point x="227" y="412"/>
	  <point x="242" y="376"/>
	  <point x="242" y="339" type="curve" smooth="yes"/>
	  <point x="242" y="331" type="line"/>
	  <point x="317" y="331" type="line"/>
	  <point x="317" y="333"/>
	  <point x="318" y="342"/>
	  <point x="318" y="348" type="curve" smooth="yes"/>
	  <point x="318" y="417"/>
	  <point x="271" y="476"/>
	  <point x="185" y="476" type="curve" smooth="yes"/>
	</contour>
	<contour>
	  <point x="217" y="638" type="line"/>
	  <point x="148" y="638" type="line"/>
	  <point x="72" y="519" type="line"/>
	  <point x="142" y="519" type="line"/>
	  <point x="182" y="589" type="line"/>
	  <point x="221" y="519" type="line"/>
	  <point x="292" y="519" type="line"/>
	</contour>
  </outline>
</glyph>
<glyph name="Tcaron" format="1">
  <advance width="443"/>
  <unicode hex="0164"/>
  <outline>
	<contour>
	  <point x="425" y="606" type="line"/>
	  <point x="17" y="606" type="line"/>
	  <point x="17" y="536" type="line"/>
	  <point x="182" y="536" type="line"/>
	  <point x="182" y="0" type="line"/>
	  <point x="260" y="0" type="line"/>
	  <point x="260" y="536" type="line"/>
	  <point x="425" y="536" type="line"/>
	</contour>
	<contour>
	  <point x="331" y="781" type="line"/>
	  <point x="261" y="781" type="line"/>
	  <point x="221" y="711" type="line"/>
	  <point x="182" y="781" type="line"/>
	  <point x="111" y="781" type="line"/>
	  <point x="187" y="661" type="line"/>
	  <point x="255" y="661" type="line"/>
	</contour>
  </outline>
</glyph>
<glyph name="Utilde" format="1">
  <advance width="523"/>
  <unicode hex="0168"/>
  <outline>
	<contour>
	  <point x="461" y="606" type="line"/>
	  <point x="384" y="606" type="line"/>
	  <point x="384" y="193" type="line" smooth="yes"/>
	  <point x="384" y="107"/>
	  <point x="338" y="61"/>
	  <point x="262" y="61" type="curve" smooth="yes"/>
	  <point x="186" y="61"/>
	  <point x="140" y="107"/>
	  <point x="140" y="193" type="curve" smooth="yes"/>
	  <point x="140" y="606" type="line"/>
	  <point x="62" y="606" type="line"/>
	  <point x="62" y="197" type="line" smooth="yes"/>
	  <point x="62" y="61"/>
	  <point x="137" y="-11"/>
	  <point x="262" y="-11" type="curve" smooth="yes"/>
	  <point x="386" y="-11"/>
	  <point x="461" y="61"/>
	  <point x="461" y="197" type="curve" smooth="yes"/>
	</contour>
	<contour>
	  <point x="339" y="781" type="line"/>
	  <point x="337" y="760"/>
	  <point x="325" y="754"/>
	  <point x="309" y="754" type="curve" smooth="yes"/>
	  <point x="275" y="754"/>
	  <point x="246" y="781"/>
	  <point x="208" y="781" type="curve" smooth="yes"/>
	  <point x="155" y="781"/>
	  <point x="133" y="729"/>
	  <point x="133" y="689" type="curve"/>
	  <point x="184" y="689" type="line"/>
	  <point x="187" y="709"/>
	  <point x="198" y="716"/>
	  <point x="214" y="716" type="curve" smooth="yes"/>
	  <point x="248" y="716"/>
	  <point x="277" y="689"/>
	  <point x="316" y="689" type="curve" smooth="yes"/>
	  <point x="369" y="689"/>
	  <point x="391" y="740"/>
	  <point x="391" y="781" type="curve"/>
	</contour>
  </outline>
</glyph>
<glyph name="Umacron" format="1">
  <advance width="523"/>
  <unicode hex="016A"/>
  <outline>
	<contour>
	  <point x="461" y="606" type="line"/>
	  <point x="384" y="606" type="line"/>
	  <point x="384" y="193" type="line" smooth="yes"/>
	  <point x="384" y="107"/>
	  <point x="338" y="61"/>
	  <point x="262" y="61" type="curve" smooth="yes"/>
	  <point x="186" y="61"/>
	  <point x="140" y="107"/>
	  <point x="140" y="193" type="curve" smooth="yes"/>
	  <point x="140" y="606" type="line"/>
	  <point x="62" y="606" type="line"/>
	  <point x="62" y="197" type="line" smooth="yes"/>
	  <point x="62" y="61"/>
	  <point x="137" y="-11"/>
	  <point x="262" y="-11" type="curve" smooth="yes"/>
	  <point x="386" y="-11"/>
	  <point x="461" y="61"/>
	  <point x="461" y="197" type="curve" smooth="yes"/>
	</contour>
	<contour>
	  <point x="372" y="735" type="line"/>
	  <point x="151" y="735" type="line"/>
	  <point x="151" y="671" type="line"/>
	  <point x="372" y="671" type="line"/>
	</contour>
  </outline>
</glyph>
<glyph name="Uhungarumlaut" format="1">
  <advance width="523"/>
  <unicode hex="0170"/>
  <outline>
	<contour>
	  <point x="461" y="606" type="line"/>
	  <point x="384" y="606" type="line"/>
	  <point x="384" y="193" type="line" smooth="yes"/>
	  <point x="384" y="107"/>
	  <point x="338" y="61"/>
	  <point x="262" y="61" type="curve" smooth="yes"/>
	  <point x="186" y="61"/>
	  <point x="140" y="107"/>
	  <point x="140" y="193" type="curve" smooth="yes"/>
	  <point x="140" y="606" type="line"/>
	  <point x="62" y="606" type="line"/>
	  <point x="62" y="197" type="line" smooth="yes"/>
	  <point x="62" y="61"/>
	  <point x="137" y="-11"/>
	  <point x="262" y="-11" type="curve" smooth="yes"/>
	  <point x="386" y="-11"/>
	  <point x="461" y="61"/>
	  <point x="461" y="197" type="curve" smooth="yes"/>
	</contour>
	<contour>
	  <point x="311" y="781" type="line"/>
	  <point x="232" y="781" type="line"/>
	  <point x="177" y="664" type="line"/>
	  <point x="238" y="664" type="line"/>
	  <point x="312" y="778" type="line"/>
	</contour>
	<contour>
	  <point x="426" y="781" type="line"/>
	  <point x="347" y="781" type="line"/>
	  <point x="293" y="664" type="line"/>
	  <point x="353" y="664" type="line"/>
	  <point x="427" y="778" type="line"/>
	</contour>
  </outline>
</glyph>
<glyph name="Uogonek" format="1">
  <advance width="523"/>
  <unicode hex="0172"/>
  <outline>
	<contour>
	  <point x="461" y="606" type="line"/>
	  <point x="384" y="606" type="line"/>
	  <point x="384" y="193" type="line" smooth="yes"/>
	  <point x="384" y="107"/>
	  <point x="338" y="61"/>
	  <point x="262" y="61" type="curve" smooth="yes"/>
	  <point x="186" y="61"/>
	  <point x="140" y="107"/>
	  <point x="140" y="193" type="curve" smooth="yes"/>
	  <point x="140" y="606" type="line"/>
	  <point x="62" y="606" type="line"/>
	  <point x="62" y="197" type="line" smooth="yes"/>
	  <point x="62" y="61"/>
	  <point x="137" y="-11"/>
	  <point x="262" y="-11" type="curve" smooth="yes"/>
	  <point x="277" y="-11"/>
	  <point x="287" y="-10"/>
	  <point x="298" y="-7" type="curve"/>
	  <point x="295" y="5" type="line"/>
	  <point x="274" y="-17"/>
	  <point x="258" y="-42"/>
	  <point x="258" y="-81" type="curve" smooth="yes"/>
	  <point x="258" y="-142"/>
	  <point x="303" y="-161"/>
	  <point x="341" y="-161" type="curve" smooth="yes"/>
	  <point x="359" y="-161"/>
	  <point x="377" y="-156"/>
	  <point x="395" y="-149" type="curve"/>
	  <point x="395" y="-103" type="line"/>
	  <point x="368" y="-103" type="line" smooth="yes"/>
	  <point x="338" y="-103"/>
	  <point x="327" y="-80"/>
	  <point x="327" y="-55" type="curve" smooth="yes"/>
	  <point x="327" y="-31"/>
	  <point x="340" y="-8"/>
	  <point x="351" y="4" type="curve"/>
	  <point x="421" y="33"/>
	  <point x="461" y="97"/>
	  <point x="461" y="197" type="curve" smooth="yes"/>
	</contour>
  </outline>
</glyph>
<glyph name="uogonek" format="1">
  <advance width="403"/>
  <unicode hex="0173"/>
  <outline>
	<contour>
	  <point x="350" y="465" type="line"/>
	  <point x="278" y="465" type="line"/>
	  <point x="278" y="181" type="line" smooth="yes"/>
	  <point x="278" y="101"/>
	  <point x="237" y="54"/>
	  <point x="191" y="54" type="curve" smooth="yes"/>
	  <point x="152" y="54"/>
	  <point x="126" y="71"/>
	  <point x="126" y="135" type="curve" smooth="yes"/>
	  <point x="126" y="465" type="line"/>
	  <point x="53" y="465" type="line"/>
	  <point x="53" y="130" type="line" smooth="yes"/>
	  <point x="53" y="27"/>
	  <point x="98" y="-11"/>
	  <point x="168" y="-11" type="curve" smooth="yes"/>
	  <point x="214" y="-11"/>
	  <point x="255" y="8"/>
	  <point x="280" y="54" type="curve"/>
	  <point x="286" y="54" type="line"/>
	  <point x="295" y="0" type="line"/>
	  <point x="301" y="0" type="line"/>
	  <point x="295" y="4" type="line"/>
	  <point x="276" y="-17"/>
	  <point x="260" y="-42"/>
	  <point x="260" y="-81" type="curve" smooth="yes"/>
	  <point x="260" y="-142"/>
	  <point x="305" y="-161"/>
	  <point x="343" y="-161" type="curve" smooth="yes"/>
	  <point x="361" y="-161"/>
	  <point x="378" y="-156"/>
	  <point x="397" y="-149" type="curve"/>
	  <point x="397" y="-103" type="line"/>
	  <point x="369" y="-103" type="line" smooth="yes"/>
	  <point x="339" y="-103"/>
	  <point x="329" y="-80"/>
	  <point x="329" y="-55" type="curve" smooth="yes"/>
	  <point x="329" y="-34"/>
	  <point x="340" y="-13"/>
	  <point x="350" y="0" type="curve"/>
	</contour>
  </outline>
</glyph>
<glyph name="Ycircumflex" format="1">
  <advance width="484"/>
  <unicode hex="0176"/>
  <outline>
	<contour>
	  <point x="281" y="251" type="line"/>
	  <point x="476" y="606" type="line"/>
	  <point x="401" y="606" type="line"/>
	  <point x="250" y="325" type="line"/>
	  <point x="247" y="325" type="line"/>
	  <point x="93" y="606" type="line"/>
	  <point x="7" y="606" type="line"/>
	  <point x="203" y="251" type="line"/>
	  <point x="203" y="0" type="line"/>
	  <point x="281" y="0" type="line"/>
	</contour>
	<contour>
	  <point x="352" y="660" type="line"/>
	  <point x="277" y="780" type="line"/>
	  <point x="208" y="780" type="line"/>
	  <point x="132" y="660" type="line"/>
	  <point x="202" y="660" type="line"/>
	  <point x="242" y="730" type="line"/>
	  <point x="281" y="660" type="line"/>
	</contour>
  </outline>
</glyph>
<glyph name="ycircumflex" format="1">
  <advance width="362"/>
  <unicode hex="0177"/>
  <outline>
	<contour>
	  <point x="292" y="519" type="line"/>
	  <point x="217" y="638" type="line"/>
	  <point x="148" y="638" type="line"/>
	  <point x="72" y="519" type="line"/>
	  <point x="142" y="519" type="line"/>
	  <point x="182" y="589" type="line"/>
	  <point x="221" y="519" type="line"/>
	</contour>
	<contour>
	  <point x="354" y="465" type="line"/>
	  <point x="281" y="465" type="line"/>
	  <point x="224" y="225" type="line"/>
	  <point x="214" y="185"/>
	  <point x="204" y="145"/>
	  <point x="194" y="104" type="curve"/>
	  <point x="191" y="104" type="line"/>
	  <point x="179" y="145"/>
	  <point x="168" y="186"/>
	  <point x="156" y="226" type="curve"/>
	  <point x="88" y="465" type="line"/>
	  <point x="9" y="465" type="line"/>
	  <point x="151" y="0" type="line"/>
	  <point x="134" y="-80"/>
	  <point x="98" y="-103"/>
	  <point x="59" y="-103" type="curve" smooth="yes"/>
	  <point x="34" y="-103" type="line"/>
	  <point x="34" y="-154" type="line"/>
	  <point x="49" y="-159"/>
	  <point x="65" y="-161"/>
	  <point x="86" y="-161" type="curve" smooth="yes"/>
	  <point x="167" y="-161"/>
	  <point x="209" y="-78"/>
	  <point x="236" y="24" type="curve" smooth="yes"/>
	</contour>
  </outline>
</glyph>
<glyph name="Ydieresis" format="1">
  <advance width="484"/>
  <unicode hex="0178"/>
  <outline>
	<contour>
	  <point x="476" y="606" type="line"/>
	  <point x="401" y="606" type="line"/>
	  <point x="250" y="325" type="line"/>
	  <point x="247" y="325" type="line"/>
	  <point x="93" y="606" type="line"/>
	  <point x="7" y="606" type="line"/>
	  <point x="203" y="251" type="line"/>
	  <point x="203" y="0" type="line"/>
	  <point x="281" y="0" type="line"/>
	  <point x="281" y="251" type="line"/>
	</contour>
	<contour>
	  <point x="214" y="781" type="line"/>
	  <point x="137" y="781" type="line"/>
	  <point x="137" y="697" type="line"/>
	  <point x="214" y="697" type="line"/>
	</contour>
	<contour>
	  <point x="347" y="781" type="line"/>
	  <point x="270" y="781" type="line"/>
	  <point x="270" y="697" type="line"/>
	  <point x="347" y="697" type="line"/>
	</contour>
  </outline>
</glyph>
<glyph name="zacute" format="1">
  <advance width="362"/>
  <unicode hex="017A"/>
  <outline>
	<contour>
	  <point x="327" y="465" type="line"/>
	  <point x="37" y="465" type="line"/>
	  <point x="37" y="400" type="line"/>
	  <point x="227" y="400" type="line"/>
	  <point x="23" y="34" type="line"/>
	  <point x="23" y="0" type="line"/>
	  <point x="339" y="0" type="line"/>
	  <point x="339" y="65" type="line"/>
	  <point x="122" y="65" type="line"/>
	  <point x="327" y="431" type="line"/>
	</contour>
	<contour>
	  <point x="284" y="639" type="line"/>
	  <point x="204" y="639" type="line"/>
	  <point x="129" y="522" type="line"/>
	  <point x="190" y="522" type="line"/>
	  <point x="285" y="636" type="line"/>
	</contour>
  </outline>
</glyph>
<glyph name="tcommaaccent" format="1">
  <advance width="202"/>
  <unicode hex="021B"/>
  <outline>
	<contour>
	  <point x="125" y="465" type="line"/>
	  <point x="125" y="594" type="line"/>
	  <point x="68" y="594" type="line"/>
	  <point x="52" y="465" type="line"/>
	  <point x="12" y="465" type="line"/>
	  <point x="12" y="400" type="line"/>
	  <point x="52" y="400" type="line"/>
	  <point x="52" y="98" type="line" smooth="yes"/>
	  <point x="52" y="45"/>
	  <point x="72" y="-9"/>
	  <point x="135" y="-9" type="curve" smooth="yes"/>
	  <point x="153" y="-9"/>
	  <point x="175" y="-4"/>
	  <point x="187" y="4" type="curve"/>
	  <point x="187" y="54" type="line"/>
	  <point x="166" y="54" type="line" smooth="yes"/>
	  <point x="139" y="54"/>
	  <point x="125" y="69"/>
	  <point x="125" y="96" type="curve" smooth="yes"/>
	  <point x="125" y="400" type="line"/>
	  <point x="187" y="400" type="line"/>
	  <point x="187" y="465" type="line"/>
	</contour>
	<contour>
	  <point x="139" y="-127" type="line"/>
	  <point x="139" y="-53" type="line"/>
	  <point x="64" y="-53" type="line"/>
	  <point x="64" y="-133" type="line"/>
	  <point x="94" y="-133" type="line"/>
	  <point x="73" y="-196" type="line"/>
	  <point x="113" y="-196" type="line"/>
	</contour>
  </outline>
</glyph>
<glyph name="circumflex" format="1">
  <advance width="241"/>
  <unicode hex="02C6"/>
  <outline>
	<contour>
	  <point x="229" y="519" type="line"/>
	  <point x="154" y="638" type="line"/>
	  <point x="85" y="638" type="line"/>
	  <point x="9" y="519" type="line"/>
	  <point x="80" y="519" type="line"/>
	  <point x="119" y="589" type="line"/>
	  <point x="158" y="519" type="line"/>
	</contour>
	<contour>
	  <point x="119" y="465" type="move" name="_top"/>
	</contour>
  </outline>
</glyph>
<glyph name="firsttonechinese" format="1">
  <advance width="442"/>
  <unicode hex="02C9"/>
  <outline>
	<contour>
	  <point x="443" y="699" type="line"/>
	  <point x="443" y="746" type="line"/>
	  <point x="0" y="746" type="line"/>
	  <point x="0" y="699" type="line"/>
	</contour>
  </outline>
</glyph>
<glyph name="ogonek" format="1">
  <advance width="241"/>
  <unicode hex="02DB"/>
  <outline>
	<contour>
	  <point x="159" y="11" type="line"/>
	  <point x="106" y="11" type="line"/>
	  <point x="84" y="-12"/>
	  <point x="64" y="-38"/>
	  <point x="64" y="-81" type="curve" smooth="yes"/>
	  <point x="64" y="-142"/>
	  <point x="109" y="-161"/>
	  <point x="147" y="-161" type="curve" smooth="yes"/>
	  <point x="164" y="-161"/>
	  <point x="182" y="-156"/>
	  <point x="201" y="-149" type="curve"/>
	  <point x="201" y="-103" type="line"/>
	  <point x="172" y="-103" type="line" smooth="yes"/>
	  <point x="143" y="-103"/>
	  <point x="133" y="-80"/>
	  <point x="133" y="-55" type="curve" smooth="yes"/>
	  <point x="133" y="-30"/>
	  <point x="149" y="-5"/>
	  <point x="159" y="7" type="curve"/>
	</contour>
	<contour>
	  <point x="160" y="9" type="move" name="_ogonek"/>
	</contour>
  </outline>
</glyph>
<glyph name="hungarumlaut" format="1">
  <advance width="241"/>
  <unicode hex="02DD"/>
  <outline>
	<contour>
	  <point x="254" y="636" type="line"/>
	  <point x="253" y="639" type="line"/>
	  <point x="173" y="639" type="line"/>
	  <point x="118" y="522" type="line"/>
	  <point x="179" y="522" type="line"/>
	</contour>
	<contour>
	  <point x="139" y="636" type="line"/>
	  <point x="138" y="639" type="line"/>
	  <point x="58" y="639" type="line"/>
	  <point x="4" y="522" type="line"/>
	  <point x="65" y="522" type="line"/>
	</contour>
	<contour>
	  <point x="129" y="465" type="move" name="_top"/>
	</contour>
  </outline>
</glyph>
<glyph name="commaaccent" format="1">
  <advance width="0"/>
  <unicode hex="0326"/>
  <outline>
	<contour>
	  <point x="-81" y="-127" type="line"/>
	  <point x="-81" y="-53" type="line"/>
	  <point x="-156" y="-53" type="line"/>
	  <point x="-156" y="-133" type="line"/>
	  <point x="-126" y="-133" type="line"/>
	  <point x="-147" y="-196" type="line"/>
	  <point x="-107" y="-196" type="line"/>
	</contour>
	<contour>
	  <point x="-118" y="0" type="move" name="_bottom"/>
	</contour>
  </outline>
</glyph>
<glyph name="mu" format="1">
  <advance width="403"/>
  <unicode hex="03BC"/>
  <outline>
	<contour>
	  <point x="350" y="0" type="line"/>
	  <point x="350" y="465" type="line"/>
	  <point x="278" y="465" type="line"/>
	  <point x="278" y="181" type="line" smooth="yes"/>
	  <point x="278" y="101"/>
	  <point x="237" y="54"/>
	  <point x="191" y="54" type="curve" smooth="yes"/>
	  <point x="154" y="54"/>
	  <point x="126" y="69"/>
	  <point x="126" y="126" type="curve" smooth="yes"/>
	  <point x="126" y="465" type="line"/>
	  <point x="53" y="465" type="line"/>
	  <point x="53" y="-153" type="line"/>
	  <point x="126" y="-153" type="line"/>
	  <point x="126" y="-4" type="line"/>
	  <point x="138" y="-9"/>
	  <point x="152" y="-11"/>
	  <point x="168" y="-11" type="curve" smooth="yes"/>
	  <point x="214" y="-11"/>
	  <point x="255" y="8"/>
	  <point x="280" y="54" type="curve"/>
	  <point x="286" y="54" type="line"/>
	  <point x="295" y="0" type="line"/>
	</contour>
  </outline>
</glyph>
<glyph name="candraBindu-deva" format="1">
  <advance width="0"/>
  <unicode hex="0901"/>
  <outline>
	<contour>
	  <point x="-27" y="793" type="line"/>
	  <point x="-27" y="733"/>
	  <point x="-59" y="709"/>
	  <point x="-110" y="709" type="curve" smooth="yes"/>
	  <point x="-160" y="709"/>
	  <point x="-191" y="733"/>
	  <point x="-191" y="793" type="curve"/>
	  <point x="-261" y="793" type="line"/>
	  <point x="-261" y="713"/>
	  <point x="-198" y="657"/>
	  <point x="-110" y="657" type="curve" smooth="yes"/>
	  <point x="-20" y="657"/>
	  <point x="43" y="713"/>
	  <point x="43" y="793" type="curve"/>
	</contour>
	<component base="anusvara-deva" xOffset="-1" yOffset="81"/>
	<contour>
	  <point x="-181" y="673" type="move" name="_post"/>
	</contour>
	<contour>
	  <point x="-109" y="606" type="move" name="_top"/>
	</contour>
  </outline>
</glyph>
<glyph name="anusvara-deva" format="1">
  <advance width="0"/>
  <unicode hex="0902"/>
  <outline>
	<contour>
	  <point x="-76" y="674" type="line"/>
	  <point x="-76" y="742" type="line"/>
	  <point x="-144" y="742" type="line"/>
	  <point x="-144" y="674" type="line"/>
	</contour>
	<contour>
	  <point x="-107" y="606" type="move" name="_anusvara"/>
	</contour>
	<contour>
	  <point x="-111" y="606" type="move" name="_top"/>
	</contour>
  </outline>
</glyph>
<glyph name="visarga-deva" format="1">
  <advance width="197"/>
  <unicode hex="0903"/>
  <outline>
	<contour>
	  <point x="60" y="388" type="line"/>
	  <point x="137" y="388" type="line"/>
	  <point x="137" y="465" type="line"/>
	  <point x="60" y="465" type="line"/>
	</contour>
	<contour>
	  <point x="60" y="92" type="line"/>
	  <point x="137" y="92" type="line"/>
	  <point x="137" y="169" type="line"/>
	  <point x="60" y="169" type="line"/>
	</contour>
  </outline>
</glyph>
<glyph name="a-deva" format="1">
  <advance width="590"/>
  <unicode hex="0905"/>
  <outline>
	<contour>
	  <point x="107" y="617"/>
	  <point x="48" y="563"/>
	  <point x="48" y="478" type="curve" smooth="yes"/>
	  <point x="48" y="473"/>
	  <point x="49" y="463"/>
	  <point x="50" y="459" type="curve"/>
	  <point x="122" y="459" type="line"/>
	  <point x="122" y="468" type="line" smooth="yes"/>
	  <point x="122" y="527"/>
	  <point x="151" y="554"/>
	  <point x="192" y="554" type="curve" smooth="yes"/>
	  <point x="232" y="554"/>
	  <point x="261" y="525"/>
	  <point x="261" y="464" type="curve" smooth="yes"/>
	  <point x="261" y="402"/>
	  <point x="230" y="370"/>
	  <point x="188" y="370" type="curve" smooth="yes"/>
	  <point x="145" y="370" type="line"/>
	  <point x="145" y="308" type="line"/>
	  <point x="186" y="308" type="line" smooth="yes"/>
	  <point x="234" y="308"/>
	  <point x="270" y="281"/>
	  <point x="270" y="214" type="curve" smooth="yes"/>
	  <point x="270" y="150"/>
	  <point x="238" y="116"/>
	  <point x="188" y="116" type="curve" smooth="yes"/>
	  <point x="140" y="116"/>
	  <point x="112" y="147"/>
	  <point x="112" y="205" type="curve" smooth="yes"/>
	  <point x="112" y="216" type="line"/>
	  <point x="40" y="216" type="line"/>
	  <point x="39" y="212"/>
	  <point x="38" y="202"/>
	  <point x="38" y="197" type="curve" smooth="yes"/>
	  <point x="38" y="110"/>
	  <point x="94" y="52"/>
	  <point x="190" y="52" type="curve" smooth="yes"/>
	  <point x="284" y="52"/>
	  <point x="345" y="112"/>
	  <point x="345" y="209" type="curve" smooth="yes"/>
	  <point x="345" y="281"/>
	  <point x="310" y="327"/>
	  <point x="264" y="342" type="curve"/>
	  <point x="264" y="345" type="line"/>
	  <point x="305" y="366"/>
	  <point x="335" y="402"/>
	  <point x="335" y="470" type="curve" smooth="yes"/>
	  <point x="335" y="564"/>
	  <point x="280" y="617"/>
	  <point x="192" y="617" type="curve" smooth="yes"/>
	</contour>
	<contour>
	  <point x="450" y="606" type="line"/>
	  <point x="450" y="0" type="line"/>
	  <point x="522" y="0" type="line"/>
	  <point x="522" y="606" type="line"/>
	</contour>
	<contour>
	  <point x="372" y="606" type="line"/>
	  <point x="372" y="541" type="line"/>
	  <point x="600" y="541" type="line"/>
	  <point x="600" y="606" type="line"/>
	</contour>
	<contour>
	  <point x="291" y="306" type="line"/>
	  <point x="291" y="241" type="line"/>
	  <point x="485" y="241" type="line"/>
	  <point x="485" y="306" type="line"/>
	</contour>
	<contour>
	  <point x="486" y="606" type="move" name="top"/>
	</contour>
	<contour>
	  <point x="486" y="0" type="move" name="bottom"/>
	</contour>
	<contour>
	  <point x="308" y="0" type="move" name="uesign-deva"/>
	</contour>
  </outline>
</glyph>
<glyph name="i-deva" format="1">
  <advance width="406"/>
  <unicode hex="0907"/>
  <outline>
	<contour>
	  <point x="112" y="145" type="line"/>
	  <point x="40" y="145" type="line"/>
	  <point x="40" y="-86" type="line"/>
	  <point x="112" y="-86" type="line"/>
	</contour>
	<contour>
	  <point x="337" y="606" type="line"/>
	  <point x="264" y="606" type="line"/>
	  <point x="264" y="370" type="line"/>
	  <point x="337" y="370" type="line"/>
	</contour>
	<contour>
	  <point x="416" y="606" type="line"/>
	  <point x="-10" y="606" type="line"/>
	  <point x="-10" y="541" type="line"/>
	  <point x="416" y="541" type="line"/>
	</contour>
	<contour>
	  <point x="199" y="434" type="line" smooth="yes"/>
	  <point x="113" y="434"/>
	  <point x="50" y="402"/>
	  <point x="50" y="314" type="curve" smooth="yes"/>
	  <point x="50" y="238"/>
	  <point x="96" y="199"/>
	  <point x="186" y="199" type="curve" smooth="yes"/>
	  <point x="215" y="199" type="line" smooth="yes"/>
	  <point x="261" y="199"/>
	  <point x="288" y="175"/>
	  <point x="288" y="130" type="curve" smooth="yes"/>
	  <point x="288" y="77"/>
	  <point x="251" y="53"/>
	  <point x="202" y="53" type="curve" smooth="yes"/>
	  <point x="152" y="53"/>
	  <point x="112" y="78"/>
	  <point x="112" y="136" type="curve" smooth="yes"/>
	  <point x="112" y="145" type="line"/>
	  <point x="56" y="145" type="line"/>
	  <point x="55" y="138"/>
	  <point x="55" y="131"/>
	  <point x="55" y="126" type="curve" smooth="yes"/>
	  <point x="56" y="56"/>
	  <point x="101" y="-11"/>
	  <point x="211" y="-11" type="curve" smooth="yes"/>
	  <point x="302" y="-11"/>
	  <point x="364" y="34"/>
	  <point x="364" y="129" type="curve" smooth="yes"/>
	  <point x="364" y="214"/>
	  <point x="311" y="265"/>
	  <point x="220" y="265" type="curve" smooth="yes"/>
	  <point x="183" y="265" type="line" smooth="yes"/>
	  <point x="146" y="265"/>
	  <point x="126" y="283"/>
	  <point x="126" y="314" type="curve" smooth="yes"/>
	  <point x="126" y="353"/>
	  <point x="157" y="370"/>
	  <point x="195" y="370" type="curve" smooth="yes"/>
	  <point x="308" y="370" type="line"/>
	  <point x="308" y="434" type="line"/>
	</contour>
	<contour>
	  <point x="300" y="606" type="move" name="top"/>
	</contour>
	<contour>
	  <point x="218" y="0" type="move" name="bottom"/>
	</contour>
  </outline>
</glyph>
<glyph name="ii-deva" format="1">
  <advance width="406"/>
  <unicode hex="0908"/>
  <outline>
	<component base="i-deva"/>
	<component base="reph-deva" xOffset="407"/>
	<contour>
	  <point x="271" y="606" type="move" name="top"/>
	</contour>
	<contour>
	  <point x="271" y="0" type="move" name="bottom"/>
	</contour>
  </outline>
</glyph>
<glyph name="e-deva" format="1">
  <advance width="438"/>
  <unicode hex="090F"/>
  <outline>
	<contour>
	  <point x="73" y="606" type="line"/>
	  <point x="73" y="289" type="line" smooth="yes"/>
	  <point x="73" y="258"/>
	  <point x="81" y="236"/>
	  <point x="100" y="215" type="curve" smooth="yes"/>
	  <point x="276" y="42" type="line" smooth="yes"/>
	  <point x="290" y="27"/>
	  <point x="295" y="14"/>
	  <point x="295" y="-2" type="curve" smooth="yes"/>
	  <point x="295" y="-7"/>
	  <point x="294" y="-24"/>
	  <point x="289" y="-47" type="curve"/>
	  <point x="349" y="-47" type="line"/>
	  <point x="360" y="-26"/>
	  <point x="365" y="-7"/>
	  <point x="365" y="13" type="curve" smooth="yes"/>
	  <point x="365" y="38"/>
	  <point x="349" y="63"/>
	  <point x="324" y="90" type="curve" smooth="yes"/>
	  <point x="160" y="250" type="line" smooth="yes"/>
	  <point x="150" y="261"/>
	  <point x="146" y="274"/>
	  <point x="146" y="294" type="curve" smooth="yes"/>
	  <point x="146" y="606" type="line"/>
	</contour>
	<contour>
	  <point x="292" y="606" type="line"/>
	  <point x="292" y="356" type="line" smooth="yes"/>
	  <point x="292" y="328"/>
	  <point x="277" y="313"/>
	  <point x="251" y="313" type="curve" smooth="yes"/>
	  <point x="234" y="313" type="line"/>
	  <point x="234" y="257" type="line"/>
	  <point x="246" y="254"/>
	  <point x="260" y="252"/>
	  <point x="273" y="252" type="curve" smooth="yes"/>
	  <point x="344" y="252"/>
	  <point x="365" y="306"/>
	  <point x="365" y="359" type="curve" smooth="yes"/>
	  <point x="365" y="606" type="line"/>
	</contour>
	<contour>
	  <point x="-10" y="606" type="line"/>
	  <point x="-10" y="541" type="line"/>
	  <point x="448" y="541" type="line"/>
	  <point x="448" y="606" type="line"/>
	</contour>
	<contour>
	  <point x="328" y="606" type="move" name="top"/>
	</contour>
	<contour>
	  <point x="219" y="0" type="move" name="bottom"/>
	</contour>
  </outline>
</glyph>
<glyph name="o-deva" format="1">
  <advance width="809"/>
  <unicode hex="0913"/>
  <outline>
	<component base="a-deva"/>
	<component base="aaMatra-deva" xOffset="590"/>
	<component base="eMatra-deva" xOffset="811"/>
	<contour>
	  <point x="701" y="606" type="move" name="top"/>
	</contour>
	<contour>
	  <point x="701" y="0" type="move" name="bottom"/>
	</contour>
  </outline>
</glyph>
<glyph name="ga-deva" format="1">
  <advance width="542"/>
  <unicode hex="0917"/>
  <outline>
	<contour>
	  <point x="409" y="606" type="line"/>
	  <point x="-10" y="606" type="line"/>
	  <point x="-10" y="541" type="line"/>
	  <point x="409" y="541" type="line"/>
	</contour>
	<contour>
	  <point x="265" y="575" type="line"/>
	  <point x="193" y="575" type="line"/>
	  <point x="193" y="234" type="line" smooth="yes"/>
	  <point x="193" y="198"/>
	  <point x="174" y="174"/>
	  <point x="141" y="174" type="curve" smooth="yes"/>
	  <point x="111" y="174"/>
	  <point x="90" y="201"/>
	  <point x="90" y="234" type="curve" smooth="yes"/>
	  <point x="90" y="270"/>
	  <point x="110" y="293"/>
	  <point x="141" y="293" type="curve" smooth="yes"/>
	  <point x="234" y="293" type="line"/>
	  <point x="234" y="359" type="line"/>
	  <point x="141" y="359" type="line" smooth="yes"/>
	  <point x="65" y="359"/>
	  <point x="18" y="309"/>
	  <point x="18" y="234" type="curve" smooth="yes"/>
	  <point x="18" y="164"/>
	  <point x="72" y="109"/>
	  <point x="141" y="109" type="curve" smooth="yes"/>
	  <point x="217" y="109"/>
	  <point x="265" y="159"/>
	  <point x="265" y="234" type="curve" smooth="yes"/>
	</contour>
	<component base="aaMatra-deva" xOffset="323"/>
	<contour>
	  <point x="223" y="134" type="move" name="nukta"/>
	</contour>
	<contour>
	  <point x="432" y="0" type="move" name="bottom"/>
	</contour>
	<contour>
	  <point x="432" y="606" type="move" name="top"/>
	</contour>
  </outline>
</glyph>
<glyph name="ca-deva" format="1">
  <advance width="462"/>
  <unicode hex="091A"/>
  <outline>
	<contour>
	  <point x="250" y="423" type="line"/>
	  <point x="13" y="423" type="line"/>
	  <point x="13" y="357" type="line"/>
	  <point x="250" y="357" type="line"/>
	</contour>
	<contour>
	  <point x="334" y="606" type="line"/>
	  <point x="-10" y="606" type="line"/>
	  <point x="-10" y="541" type="line"/>
	  <point x="334" y="541" type="line"/>
	</contour>
	<contour>
	  <point x="215" y="400" type="line"/>
	  <point x="132" y="400"/>
	  <point x="74" y="357"/>
	  <point x="74" y="255" type="curve" smooth="yes"/>
	  <point x="74" y="149"/>
	  <point x="132" y="103"/>
	  <point x="215" y="103" type="curve" smooth="yes"/>
	  <point x="261" y="103"/>
	  <point x="294" y="119"/>
	  <point x="313" y="139" type="curve"/>
	  <point x="316" y="139" type="line"/>
	  <point x="316" y="134" type="line"/>
	  <point x="389" y="134" type="line"/>
	  <point x="389" y="280" type="line"/>
	  <point x="316" y="280" type="line"/>
	  <point x="316" y="271" type="line" smooth="yes"/>
	  <point x="316" y="202"/>
	  <point x="289" y="167"/>
	  <point x="233" y="167" type="curve" smooth="yes"/>
	  <point x="178" y="167"/>
	  <point x="150" y="191"/>
	  <point x="150" y="253" type="curve" smooth="yes"/>
	  <point x="150" y="271" type="line" smooth="yes"/>
	  <point x="150" y="333"/>
	  <point x="178" y="357"/>
	  <point x="233" y="357" type="curve"/>
	</contour>
	<component base="aaMatra-deva" xOffset="243"/>
	<contour>
	  <point x="352" y="606" type="move" name="top"/>
	</contour>
	<contour>
	  <point x="352" y="0" type="move" name="bottom"/>
	</contour>
  </outline>
</glyph>
<glyph name="cha-deva" format="1">
  <advance width="515"/>
  <unicode hex="091B"/>
  <outline>
	<contour>
	  <point x="349" y="606" type="line"/>
	  <point x="349" y="416" type="line"/>
	  <point x="422" y="416" type="line"/>
	  <point x="422" y="606" type="line"/>
	</contour>
	<contour>
	  <point x="349" y="606" type="line"/>
	  <point x="349" y="541" type="line"/>
	  <point x="525" y="541" type="line"/>
	  <point x="525" y="606" type="line"/>
	</contour>
	<component base="ch-deva"/>
	<contour>
	  <point x="385" y="606" type="move" name="top"/>
	</contour>
	<contour>
	  <point x="273" y="0" type="move" name="bottom"/>
	</contour>
  </outline>
</glyph>
<glyph name="tta-deva" format="1">
  <advance width="392"/>
  <unicode hex="091F"/>
  <outline>
	<contour>
	  <point x="207" y="434" type="line" smooth="yes"/>
	  <point x="97" y="434"/>
	  <point x="29" y="365"/>
	  <point x="29" y="240" type="curve" smooth="yes"/>
	  <point x="29" y="118"/>
	  <point x="93" y="51"/>
	  <point x="203" y="51" type="curve" smooth="yes"/>
	  <point x="316" y="51"/>
	  <point x="365" y="115"/>
	  <point x="365" y="199" type="curve" smooth="yes"/>
	  <point x="365" y="205"/>
	  <point x="364" y="212"/>
	  <point x="363" y="217" type="curve"/>
	  <point x="294" y="217" type="line"/>
	  <point x="294" y="209" type="line" smooth="yes"/>
	  <point x="293" y="151"/>
	  <point x="270" y="116"/>
	  <point x="208" y="116" type="curve" smooth="yes"/>
	  <point x="140" y="116"/>
	  <point x="105" y="159"/>
	  <point x="105" y="240" type="curve" smooth="yes"/>
	  <point x="105" y="329"/>
	  <point x="149" y="370"/>
	  <point x="207" y="370" type="curve" smooth="yes"/>
	  <point x="274" y="370" type="line"/>
	  <point x="274" y="434" type="line"/>
	</contour>
	<contour>
	  <point x="244" y="606" type="line"/>
	  <point x="244" y="370" type="line"/>
	  <point x="316" y="370" type="line"/>
	  <point x="316" y="606" type="line"/>
	</contour>
	<contour>
	  <point x="-10" y="606" type="line"/>
	  <point x="-10" y="541" type="line"/>
	  <point x="402" y="541" type="line"/>
	  <point x="402" y="606" type="line"/>
	</contour>
	<contour>
	  <point x="280" y="606" type="move" name="top"/>
	</contour>
	<contour>
	  <point x="204" y="0" type="move" name="bottom"/>
	</contour>
  </outline>
</glyph>
<glyph name="ta-deva" format="1">
  <advance width="459"/>
  <unicode hex="0924"/>
  <outline>
	<contour>
	  <point x="326" y="405" type="line"/>
	  <point x="196" y="405" type="line" smooth="yes"/>
	  <point x="94" y="405"/>
	  <point x="40" y="357"/>
	  <point x="40" y="265" type="curve" smooth="yes"/>
	  <point x="40" y="225"/>
	  <point x="48" y="153"/>
	  <point x="129" y="0" type="curve"/>
	  <point x="208" y="0" type="line"/>
	  <point x="125" y="152"/>
	  <point x="116" y="227"/>
	  <point x="116" y="262" type="curve" smooth="yes"/>
	  <point x="116" y="311"/>
	  <point x="132" y="339"/>
	  <point x="191" y="339" type="curve" smooth="yes"/>
	  <point x="326" y="339" type="line"/>
	</contour>
	<contour>
	  <point x="326" y="606" type="line"/>
	  <point x="-10" y="606" type="line"/>
	  <point x="-10" y="541" type="line"/>
	  <point x="326" y="541" type="line"/>
	</contour>
	<component base="aaMatra-deva" xOffset="240"/>
	<contour>
	  <point x="349" y="606" type="move" name="top"/>
	</contour>
	<contour>
	  <point x="349" y="0" type="move" name="bottom"/>
	</contour>
  </outline>
</glyph>
<glyph name="dha-deva" format="1">
  <advance width="485"/>
  <unicode hex="0927"/>
  <outline>
	<contour>
	  <point x="87" y="617"/>
	  <point x="43" y="576"/>
	  <point x="43" y="501" type="curve" smooth="yes"/>
	  <point x="43" y="434"/>
	  <point x="76" y="403"/>
	  <point x="118" y="383" type="curve"/>
	  <point x="75" y="365"/>
	  <point x="42" y="326"/>
	  <point x="42" y="265" type="curve" smooth="yes"/>
	  <point x="42" y="175"/>
	  <point x="112" y="124"/>
	  <point x="211" y="124" type="curve" smooth="yes"/>
	  <point x="316" y="124"/>
	  <point x="374" y="181"/>
	  <point x="374" y="270" type="curve" smooth="yes"/>
	  <point x="374" y="325" type="line"/>
	  <point x="339" y="325" type="line"/>
	  <point x="339" y="313" type="line" smooth="yes"/>
	  <point x="339" y="225"/>
	  <point x="297" y="186"/>
	  <point x="220" y="186" type="curve" smooth="yes"/>
	  <point x="161" y="186"/>
	  <point x="117" y="209"/>
	  <point x="117" y="270" type="curve" smooth="yes"/>
	  <point x="117" y="329"/>
	  <point x="157" y="348"/>
	  <point x="199" y="348" type="curve" smooth="yes"/>
	  <point x="245" y="348" type="line"/>
	  <point x="245" y="409" type="line"/>
	  <point x="198" y="409" type="line" smooth="yes"/>
	  <point x="154" y="409"/>
	  <point x="117" y="436"/>
	  <point x="117" y="497" type="curve" smooth="yes"/>
	  <point x="117" y="532"/>
	  <point x="125" y="556"/>
	  <point x="149" y="556" type="curve" smooth="yes"/>
	  <point x="173" y="556"/>
	  <point x="181" y="539"/>
	  <point x="181" y="518" type="curve" smooth="yes"/>
	  <point x="181" y="499" type="line"/>
	  <point x="245" y="499" type="line"/>
	  <point x="247" y="505"/>
	  <point x="249" y="516"/>
	  <point x="249" y="528" type="curve" smooth="yes"/>
	  <point x="249" y="586"/>
	  <point x="206" y="617"/>
	  <point x="145" y="617" type="curve" smooth="yes"/>
	</contour>
	<contour>
	  <point x="339" y="606" type="line"/>
	  <point x="339" y="0" type="line"/>
	  <point x="412" y="0" type="line"/>
	  <point x="412" y="606" type="line"/>
	</contour>
	<contour>
	  <point x="279" y="606" type="line"/>
	  <point x="279" y="541" type="line"/>
	  <point x="495" y="541" type="line"/>
	  <point x="495" y="606" type="line"/>
	</contour>
	<contour>
	  <point x="375" y="606" type="move" name="top"/>
	</contour>
	<contour>
	  <point x="375" y="0" type="move" name="bottom"/>
	</contour>
  </outline>
</glyph>
<glyph name="pa-deva" format="1">
  <advance width="423"/>
  <unicode hex="092A"/>
  <outline>
	<contour>
	  <point x="126" y="606" type="line"/>
	  <point x="53" y="606" type="line"/>
	  <point x="53" y="264" type="line" smooth="yes"/>
	  <point x="53" y="170"/>
	  <point x="101" y="119"/>
	  <point x="183" y="119" type="curve" smooth="yes"/>
	  <point x="265" y="119"/>
	  <point x="315" y="170"/>
	  <point x="315" y="264" type="curve" smooth="yes"/>
	  <point x="315" y="301" type="line"/>
	  <point x="278" y="301" type="line"/>
	  <point x="278" y="260" type="line" smooth="yes"/>
	  <point x="278" y="212"/>
	  <point x="246" y="185"/>
	  <point x="202" y="185" type="curve" smooth="yes"/>
	  <point x="154" y="185"/>
	  <point x="126" y="216"/>
	  <point x="126" y="269" type="curve" smooth="yes"/>
	</contour>
	<contour>
	  <point x="295" y="606" type="line"/>
	  <point x="-10" y="606" type="line"/>
	  <point x="-10" y="541" type="line"/>
	  <point x="295" y="541" type="line"/>
	</contour>
	<component base="aaMatra-deva" xOffset="204"/>
	<contour>
	  <point x="313" y="606" type="move" name="top"/>
	</contour>
	<contour>
	  <point x="313" y="0" type="move" name="bottom"/>
	</contour>
  </outline>
</glyph>
<glyph name="ba-deva" format="1">
  <advance width="417"/>
  <unicode hex="092C"/>
  <outline>
	<contour>
	  <point x="229" y="171" type="line"/>
	  <point x="263" y="198" type="line"/>
	  <point x="131" y="441" type="line"/>
	  <point x="99" y="410" type="line"/>
	</contour>
	<component base="va-deva"/>
	<contour>
	  <point x="307" y="606" type="move" name="top"/>
	</contour>
	<contour>
	  <point x="307" y="0" type="move" name="bottom"/>
	</contour>
  </outline>
</glyph>
<glyph name="bha-deva" format="1">
  <advance width="566"/>
  <unicode hex="092D"/>
  <outline>
	<contour>
	  <point x="420" y="606" type="line"/>
	  <point x="420" y="0" type="line"/>
	  <point x="492" y="0" type="line"/>
	  <point x="492" y="606" type="line"/>
	</contour>
	<contour>
	  <point x="333" y="606" type="line"/>
	  <point x="333" y="541" type="line"/>
	  <point x="576" y="541" type="line"/>
	  <point x="576" y="606" type="line"/>
	</contour>
	<contour>
	  <point x="214" y="312" type="line"/>
	  <point x="286" y="312" type="line"/>
	  <point x="286" y="499" type="line" smooth="yes"/>
	  <point x="286" y="573"/>
	  <point x="245" y="617"/>
	  <point x="169" y="617" type="curve" smooth="yes"/>
	  <point x="97" y="617"/>
	  <point x="42" y="575"/>
	  <point x="42" y="497" type="curve" smooth="yes"/>
	  <point x="42" y="484"/>
	  <point x="44" y="467"/>
	  <point x="46" y="459" type="curve"/>
	  <point x="115" y="459" type="line"/>
	  <point x="115" y="488" type="line" smooth="yes"/>
	  <point x="115" y="519"/>
	  <point x="129" y="552"/>
	  <point x="164" y="552" type="curve" smooth="yes"/>
	  <point x="203" y="552"/>
	  <point x="214" y="525"/>
	  <point x="214" y="490" type="curve" smooth="yes"/>
	</contour>
	<contour>
	  <point x="286" y="273" type="line"/>
	  <point x="214" y="273" type="line"/>
	  <point x="214" y="209" type="line" smooth="yes"/>
	  <point x="214" y="178"/>
	  <point x="195" y="157"/>
	  <point x="167" y="157" type="curve" smooth="yes"/>
	  <point x="141" y="157"/>
	  <point x="119" y="180"/>
	  <point x="119" y="209" type="curve" smooth="yes"/>
	  <point x="119" y="239"/>
	  <point x="139" y="259"/>
	  <point x="167" y="259" type="curve" smooth="yes"/>
	  <point x="441" y="259" type="line"/>
	  <point x="441" y="324" type="line"/>
	  <point x="167" y="324" type="line" smooth="yes"/>
	  <point x="95" y="324"/>
	  <point x="47" y="278"/>
	  <point x="47" y="209" type="curve" smooth="yes"/>
	  <point x="47" y="144"/>
	  <point x="101" y="92"/>
	  <point x="167" y="92" type="curve" smooth="yes"/>
	  <point x="239" y="92"/>
	  <point x="286" y="139"/>
	  <point x="286" y="209" type="curve" smooth="yes"/>
	</contour>
	<contour>
	  <point x="456" y="606" type="move" name="top"/>
	</contour>
	<contour>
	  <point x="456" y="0" type="move" name="bottom"/>
	</contour>
  </outline>
</glyph>
<glyph name="ma-deva" format="1">
  <advance width="530"/>
  <unicode hex="092E"/>
  <outline>
	<contour>
	  <point x="243" y="575" type="line"/>
	  <point x="171" y="575" type="line"/>
	  <point x="171" y="209" type="line" smooth="yes"/>
	  <point x="171" y="178"/>
	  <point x="152" y="157"/>
	  <point x="124" y="157" type="curve" smooth="yes"/>
	  <point x="97" y="157"/>
	  <point x="76" y="180"/>
	  <point x="76" y="209" type="curve" smooth="yes"/>
	  <point x="76" y="239"/>
	  <point x="95" y="259"/>
	  <point x="124" y="259" type="curve" smooth="yes"/>
	  <point x="398" y="259" type="line"/>
	  <point x="398" y="324" type="line"/>
	  <point x="124" y="324" type="line" smooth="yes"/>
	  <point x="51" y="324"/>
	  <point x="4" y="278"/>
	  <point x="4" y="209" type="curve" smooth="yes"/>
	  <point x="4" y="144"/>
	  <point x="57" y="92"/>
	  <point x="124" y="92" type="curve" smooth="yes"/>
	  <point x="195" y="92"/>
	  <point x="243" y="139"/>
	  <point x="243" y="209" type="curve" smooth="yes"/>
	</contour>
	<contour>
	  <point x="398" y="606" type="line"/>
	  <point x="-10" y="606" type="line"/>
	  <point x="-10" y="541" type="line"/>
	  <point x="398" y="541" type="line"/>
	</contour>
	<component base="aaMatra-deva" xOffset="311"/>
	<contour>
	  <point x="420" y="606" type="move" name="top"/>
	</contour>
	<contour>
	  <point x="420" y="0" type="move" name="bottom"/>
	</contour>
  </outline>
</glyph>
<glyph name="ra-deva" format="1">
  <advance width="320"/>
  <unicode hex="0930"/>
  <outline>
	<contour>
	  <point x="249" y="586" type="line"/>
	  <point x="177" y="586" type="line"/>
	  <point x="177" y="398" type="line" smooth="yes"/>
	  <point x="177" y="337"/>
	  <point x="153" y="304"/>
	  <point x="108" y="304" type="curve" smooth="yes"/>
	  <point x="59" y="304" type="line"/>
	  <point x="59" y="258" type="line"/>
	  <point x="126" y="246" type="line"/>
	  <point x="206" y="246"/>
	  <point x="249" y="301"/>
	  <point x="249" y="405" type="curve" smooth="yes"/>
	</contour>
	<contour>
	  <point x="330" y="606" type="line"/>
	  <point x="-10" y="606" type="line"/>
	  <point x="-10" y="541" type="line"/>
	  <point x="330" y="541" type="line"/>
	</contour>
	<contour>
	  <point x="113" y="292" type="line"/>
	  <point x="59" y="258" type="line"/>
	  <point x="179" y="0" type="line"/>
	  <point x="257" y="0" type="line"/>
	</contour>
	<contour>
	  <point x="66" y="144" type="move" name="nukta"/>
	</contour>
	<contour>
	  <point x="143" y="0" type="move" name="bottom"/>
	</contour>
	<contour>
	  <point x="213" y="606" type="move" name="top"/>
	</contour>
  </outline>
</glyph>
<glyph name="va-deva" format="1">
  <advance width="417"/>
  <unicode hex="0935"/>
  <outline>
	<contour>
	  <point x="244" y="405"/>
	  <point x="271" y="370"/>
	  <point x="271" y="301" type="curve" smooth="yes"/>
	  <point x="271" y="279" type="line" smooth="yes"/>
	  <point x="271" y="211"/>
	  <point x="244" y="176"/>
	  <point x="188" y="176" type="curve" smooth="yes"/>
	  <point x="133" y="176"/>
	  <point x="105" y="205"/>
	  <point x="105" y="279" type="curve" smooth="yes"/>
	  <point x="105" y="301" type="line" smooth="yes"/>
	  <point x="105" y="376"/>
	  <point x="133" y="405"/>
	  <point x="188" y="405" type="curve" smooth="yes"/>
	</contour>
	<contour>
	  <point x="271" y="606" type="line"/>
	  <point x="-10" y="606" type="line"/>
	  <point x="-10" y="541" type="line"/>
	  <point x="271" y="541" type="line"/>
	</contour>
	<contour>
	  <point x="87" y="469"/>
	  <point x="29" y="416"/>
	  <point x="29" y="291" type="curve" smooth="yes"/>
	  <point x="29" y="165"/>
	  <point x="87" y="111"/>
	  <point x="170" y="111" type="curve" smooth="yes"/>
	  <point x="216" y="111"/>
	  <point x="249" y="128"/>
	  <point x="268" y="148" type="curve"/>
	  <point x="271" y="148" type="line"/>
	  <point x="271" y="143" type="line"/>
	  <point x="344" y="143" type="line"/>
	  <point x="344" y="438" type="line"/>
	  <point x="271" y="438" type="line"/>
	  <point x="271" y="433" type="line"/>
	  <point x="268" y="433" type="line"/>
	  <point x="249" y="453"/>
	  <point x="217" y="469"/>
	  <point x="170" y="469" type="curve" smooth="yes"/>
	</contour>
	<component base="aaMatra-deva" xOffset="198"/>
	<contour>
	  <point x="307" y="606" type="move" name="top"/>
	</contour>
	<contour>
	  <point x="307" y="0" type="move" name="bottom"/>
	</contour>
  </outline>
</glyph>
<glyph name="ssa-deva" format="1">
  <advance width="423"/>
  <unicode hex="0937"/>
  <outline>
	<contour>
	  <point x="268" y="191" type="line"/>
	  <point x="302" y="217" type="line"/>
	  <point x="122" y="547" type="line"/>
	  <point x="90" y="516" type="line"/>
	</contour>
	<component base="pa-deva" xOffset="1"/>
	<contour>
	  <point x="314" y="606" type="move" name="top"/>
	</contour>
	<contour>
	  <point x="314" y="0" type="move" name="bottom"/>
	</contour>
  </outline>
</glyph>
<glyph name="sa-deva" format="1">
  <advance width="525"/>
  <unicode hex="0938"/>
  <outline>
	<contour>
	  <point x="120" y="256" type="line"/>
	  <point x="120" y="196" type="line"/>
	  <point x="425" y="196" type="line"/>
	  <point x="425" y="256" type="line"/>
	</contour>
	<component base="ra-deva"/>
	<component base="aaMatra-deva" xOffset="306"/>
	<contour>
	  <point x="415" y="606" type="move" name="top"/>
	</contour>
	<contour>
	  <point x="415" y="0" type="move" name="bottom"/>
	</contour>
  </outline>
</glyph>
<glyph name="ha-deva" format="1">
  <advance width="391"/>
  <unicode hex="0939"/>
  <outline>
	<contour>
	  <point x="168" y="434" type="line" smooth="yes"/>
	  <point x="85" y="434"/>
	  <point x="42" y="394"/>
	  <point x="42" y="334" type="curve" smooth="yes"/>
	  <point x="42" y="282"/>
	  <point x="74" y="237"/>
	  <point x="186" y="231" type="curve"/>
	  <point x="193" y="285" type="line"/>
	  <point x="161" y="287"/>
	  <point x="118" y="289"/>
	  <point x="118" y="329" type="curve" smooth="yes"/>
	  <point x="118" y="354"/>
	  <point x="134" y="370"/>
	  <point x="167" y="370" type="curve" smooth="yes"/>
	  <point x="302" y="370" type="line"/>
	  <point x="302" y="434" type="line"/>
	</contour>
	<contour>
	  <point x="249" y="606" type="line"/>
	  <point x="249" y="370" type="line"/>
	  <point x="322" y="370" type="line"/>
	  <point x="322" y="606" type="line"/>
	</contour>
	<contour>
	  <point x="-10" y="606" type="line"/>
	  <point x="-10" y="541" type="line"/>
	  <point x="401" y="541" type="line"/>
	  <point x="401" y="606" type="line"/>
	</contour>
	<contour>
	  <point x="97" y="286"/>
	  <point x="41" y="236"/>
	  <point x="41" y="142" type="curve" smooth="yes"/>
	  <point x="41" y="29"/>
	  <point x="122" y="-31"/>
	  <point x="262" y="-31" type="curve" smooth="yes"/>
	  <point x="277" y="-31"/>
	  <point x="299" y="-29"/>
	  <point x="311" y="-26" type="curve"/>
	  <point x="311" y="33" type="line"/>
	  <point x="270" y="33" type="line" smooth="yes"/>
	  <point x="170" y="33"/>
	  <point x="116" y="69"/>
	  <point x="116" y="142" type="curve" smooth="yes"/>
	  <point x="116" y="198"/>
	  <point x="148" y="221"/>
	  <point x="196" y="221" type="curve" smooth="yes"/>
	  <point x="241" y="221"/>
	  <point x="264" y="200"/>
	  <point x="264" y="159" type="curve" smooth="yes"/>
	  <point x="264" y="139" type="line"/>
	  <point x="336" y="139" type="line"/>
	  <point x="337" y="145"/>
	  <point x="338" y="154"/>
	  <point x="338" y="165" type="curve" smooth="yes"/>
	  <point x="338" y="245"/>
	  <point x="283" y="286"/>
	  <point x="195" y="286" type="curve" smooth="yes"/>
	</contour>
	<contour>
	  <point x="285" y="606" type="move" name="top"/>
	</contour>
	<contour>
	  <point x="228" y="-30" type="move" name="bottom"/>
	</contour>
  </outline>
</glyph>
<glyph name="avagraha-deva" format="1">
  <advance width="389"/>
  <unicode hex="093D"/>
  <outline>
	<contour>
	  <point x="374" y="541" type="line"/>
	  <point x="374" y="606" type="line"/>
	  <point x="194" y="606" type="line" smooth="yes"/>
	  <point x="104" y="606"/>
	  <point x="42" y="563"/>
	  <point x="42" y="476" type="curve" smooth="yes"/>
	  <point x="42" y="392"/>
	  <point x="101" y="345"/>
	  <point x="168" y="293" type="curve" smooth="yes"/>
	  <point x="239" y="238"/>
	  <point x="278" y="202"/>
	  <point x="278" y="142" type="curve" smooth="yes"/>
	  <point x="278" y="83"/>
	  <point x="241" y="53"/>
	  <point x="195" y="53" type="curve" smooth="yes"/>
	  <point x="153" y="53"/>
	  <point x="112" y="78"/>
	  <point x="112" y="136" type="curve" smooth="yes"/>
	  <point x="112" y="155" type="line"/>
	  <point x="36" y="155" type="line"/>
	  <point x="35" y="144"/>
	  <point x="35" y="139"/>
	  <point x="35" y="131" type="curve" smooth="yes"/>
	  <point x="35" y="56"/>
	  <point x="83" y="-11"/>
	  <point x="192" y="-11" type="curve" smooth="yes"/>
	  <point x="287" y="-11"/>
	  <point x="354" y="40"/>
	  <point x="354" y="141" type="curve" smooth="yes"/>
	  <point x="354" y="233"/>
	  <point x="298" y="279"/>
	  <point x="224" y="334" type="curve" smooth="yes"/>
	  <point x="178" y="369"/>
	  <point x="118" y="412"/>
	  <point x="118" y="473" type="curve" smooth="yes"/>
	  <point x="118" y="518"/>
	  <point x="150" y="541"/>
	  <point x="187" y="541" type="curve" smooth="yes"/>
	</contour>
  </outline>
</glyph>
<glyph name="iiMatra-deva" format="1">
  <advance width="219"/>
  <unicode hex="0940"/>
  <outline>
	<contour>
	  <point x="73" y="465" type="line"/>
	  <point x="146" y="465" type="line"/>
	  <point x="146" y="695" type="line" smooth="yes"/>
	  <point x="146" y="779"/>
	  <point x="99" y="827"/>
	  <point x="10" y="827" type="curve" smooth="yes"/>
	  <point x="-75" y="827"/>
	  <point x="-137" y="781"/>
	  <point x="-137" y="693" type="curve" smooth="yes"/>
	  <point x="-137" y="685"/>
	  <point x="-137" y="678"/>
	  <point x="-136" y="673" type="curve"/>
	  <point x="-65" y="673" type="line"/>
	  <point x="-65" y="684" type="line" smooth="yes"/>
	  <point x="-65" y="722"/>
	  <point x="-48" y="763"/>
	  <point x="4" y="763" type="curve" smooth="yes"/>
	  <point x="59" y="763"/>
	  <point x="73" y="731"/>
	  <point x="73" y="685" type="curve" smooth="yes"/>
	</contour>
	<component base="aaMatra-deva"/>
	<contour>
	  <point x="-101" y="465" type="move" name="iimatra"/>
	</contour>
	<contour>
	  <point x="105" y="0" type="move" name="bottom"/>
	</contour>
	<contour>
	  <point x="229" y="606" type="move" name="top"/>
	</contour>
  </outline>
</glyph>
<glyph name="uMatra-deva" format="1">
  <advance width="0"/>
  <unicode hex="0941"/>
  <outline>
	<contour>
	  <point x="-323" y="-118" type="line"/>
	  <point x="-260" y="-178"/>
	  <point x="-194" y="-218"/>
	  <point x="-122" y="-218" type="curve" smooth="yes"/>
	  <point x="-49" y="-218"/>
	  <point x="11" y="-174"/>
	  <point x="11" y="-96" type="curve" smooth="yes"/>
	  <point x="11" y="-19"/>
	  <point x="-53" y="27"/>
	  <point x="-120" y="27" type="curve" smooth="yes"/>
	  <point x="-149" y="27"/>
	  <point x="-174" y="20"/>
	  <point x="-196" y="11" type="curve"/>
	  <point x="-196" y="-50" type="line"/>
	  <point x="-175" y="-43"/>
	  <point x="-152" y="-38"/>
	  <point x="-125" y="-38" type="curve" smooth="yes"/>
	  <point x="-88" y="-38"/>
	  <point x="-61" y="-63"/>
	  <point x="-61" y="-95" type="curve" smooth="yes"/>
	  <point x="-61" y="-126"/>
	  <point x="-83" y="-153"/>
	  <point x="-126" y="-153" type="curve" smooth="yes"/>
	  <point x="-188" y="-153"/>
	  <point x="-248" y="-108"/>
	  <point x="-323" y="-30" type="curve"/>
	</contour>
	<contour>
	  <point x="-111" y="0" type="move" name="_bottom"/>
	</contour>
  </outline>
</glyph>
<glyph name="eShortMatra-deva" format="1">
  <advance width="0"/>
  <unicode hex="0946"/>
  <outline>
	<contour>
	  <point x="-73" y="662" type="line" smooth="yes"/>
	  <point x="-73" y="734"/>
	  <point x="-108" y="765"/>
	  <point x="-191" y="765" type="curve" smooth="yes"/>
	  <point x="-359" y="765" type="line" smooth="yes"/>
	  <point x="-391" y="765"/>
	  <point x="-404" y="777"/>
	  <point x="-404" y="805" type="curve" smooth="yes"/>
	  <point x="-404" y="827" type="line"/>
	  <point x="-476" y="827" type="line"/>
	  <point x="-476" y="805" type="line" smooth="yes"/>
	  <point x="-476" y="732"/>
	  <point x="-441" y="701"/>
	  <point x="-359" y="701" type="curve" smooth="yes"/>
	  <point x="-191" y="701" type="line" smooth="yes"/>
	  <point x="-159" y="701"/>
	  <point x="-145" y="689"/>
	  <point x="-145" y="662" type="curve" smooth="yes"/>
	  <point x="-145" y="573" type="line"/>
	  <point x="-73" y="573" type="line"/>
	</contour>
	<contour>
	  <point x="-110" y="606" type="move" name="_top"/>
	</contour>
  </outline>
</glyph>
<glyph name="eMatra-deva" format="1">
  <advance width="0"/>
  <unicode hex="0947"/>
  <outline>
	<contour>
	  <point x="-143" y="821" type="line"/>
	  <point x="-216" y="821" type="line"/>
	  <point x="-148" y="606" type="line"/>
	  <point x="-84" y="606" type="line"/>
	</contour>
	<contour>
	  <point x="-75" y="606" type="line"/>
	  <point x="-156" y="606" type="line"/>
	  <point x="-156" y="541" type="line"/>
	  <point x="-75" y="541" type="line"/>
	</contour>
	<contour>
	  <point x="-112" y="606" type="move" name="_top"/>
	</contour>
  </outline>
</glyph>
<glyph name="aiMatra-deva" format="1">
  <advance width="0"/>
  <unicode hex="0948"/>
  <outline>
	<contour>
	  <point x="-217" y="821" type="line"/>
	  <point x="-290" y="821" type="line"/>
	  <point x="-222" y="606" type="line"/>
	  <point x="-158" y="606" type="line"/>
	</contour>
	<contour>
	  <point x="-68" y="606" type="line"/>
	  <point x="-231" y="606" type="line"/>
	  <point x="-231" y="541" type="line"/>
	  <point x="-68" y="541" type="line"/>
	</contour>
	<contour>
	  <point x="-77" y="821" type="line"/>
	  <point x="-149" y="821" type="line"/>
	  <point x="-149" y="743" type="line"/>
	  <point x="-149" y="697"/>
	  <point x="-146" y="652"/>
	  <point x="-141" y="606" type="curve"/>
	  <point x="-77" y="606" type="line"/>
	</contour>
	<contour>
	  <point x="-109" y="606" type="move" name="_top"/>
	</contour>
  </outline>
</glyph>
<glyph name="oCandraMatra-deva" format="1">
  <advance width="219"/>
  <unicode hex="0949"/>
  <outline>
	<component base="aaMatra-deva"/>
	<component base="eCandraMatra-deva" xOffset="218"/>
	<contour>
	  <point x="109" y="0" type="move" name="bottom"/>
	</contour>
  </outline>
</glyph>
<glyph name="auMatra-deva" format="1">
  <advance width="219"/>
  <unicode hex="094C"/>
  <outline>
	<component base="aaMatra-deva"/>
	<component base="aiMatra-deva" xOffset="218"/>
	<contour>
	  <point x="109" y="0" type="move" name="bottom"/>
	</contour>
  </outline>
</glyph>
<glyph name="om-deva" format="1">
  <advance width="739"/>
  <unicode hex="0950"/>
  <outline>
	<contour>
	  <point x="107" y="617"/>
	  <point x="42" y="559"/>
	  <point x="42" y="468" type="curve" smooth="yes"/>
	  <point x="42" y="452" type="line"/>
	  <point x="116" y="452" type="line"/>
	  <point x="116" y="461" type="line" smooth="yes"/>
	  <point x="116" y="524"/>
	  <point x="151" y="554"/>
	  <point x="200" y="554" type="curve" smooth="yes"/>
	  <point x="244" y="554"/>
	  <point x="283" y="528"/>
	  <point x="283" y="464" type="curve" smooth="yes"/>
	  <point x="283" y="401"/>
	  <point x="242" y="370"/>
	  <point x="195" y="370" type="curve" smooth="yes"/>
	  <point x="143" y="370" type="line"/>
	  <point x="143" y="308" type="line"/>
	  <point x="194" y="308" type="line" smooth="yes"/>
	  <point x="245" y="308"/>
	  <point x="293" y="288"/>
	  <point x="293" y="213" type="curve" smooth="yes"/>
	  <point x="293" y="144"/>
	  <point x="254" y="115"/>
	  <point x="196" y="115" type="curve" smooth="yes"/>
	  <point x="137" y="115"/>
	  <point x="105" y="149"/>
	  <point x="105" y="213" type="curve" smooth="yes"/>
	  <point x="105" y="224" type="line"/>
	  <point x="31" y="224" type="line"/>
	  <point x="31" y="216" type="line" smooth="yes"/>
	  <point x="31" y="116"/>
	  <point x="91" y="51"/>
	  <point x="202" y="51" type="curve" smooth="yes"/>
	  <point x="299" y="51"/>
	  <point x="368" y="110"/>
	  <point x="368" y="209" type="curve" smooth="yes"/>
	  <point x="368" y="281"/>
	  <point x="330" y="324"/>
	  <point x="278" y="342" type="curve"/>
	  <point x="278" y="345" type="line"/>
	  <point x="324" y="369"/>
	  <point x="357" y="403"/>
	  <point x="357" y="468" type="curve" smooth="yes"/>
	  <point x="357" y="565"/>
	  <point x="293" y="617"/>
	  <point x="199" y="617" type="curve" smooth="yes"/>
	</contour>
	<contour>
	  <point x="435" y="438"/>
	  <point x="431" y="353"/>
	  <point x="424" y="291" type="curve" smooth="yes"/>
	  <point x="420" y="256"/>
	  <point x="403" y="229"/>
	  <point x="352" y="229" type="curve"/>
	  <point x="352" y="165" type="line"/>
	  <point x="372" y="165" type="line"/>
	  <point x="466" y="165"/>
	  <point x="491" y="225"/>
	  <point x="498" y="287" type="curve" smooth="yes"/>
	  <point x="503" y="331"/>
	  <point x="508" y="373"/>
	  <point x="564" y="373" type="curve" smooth="yes"/>
	  <point x="610" y="373"/>
	  <point x="634" y="337"/>
	  <point x="634" y="274" type="curve" smooth="yes"/>
	  <point x="634" y="216"/>
	  <point x="601" y="176"/>
	  <point x="551" y="176" type="curve" smooth="yes"/>
	  <point x="539" y="176" type="line"/>
	  <point x="539" y="113" type="line"/>
	  <point x="546" y="112"/>
	  <point x="554" y="111"/>
	  <point x="563" y="111" type="curve" smooth="yes"/>
	  <point x="650" y="111"/>
	  <point x="710" y="176"/>
	  <point x="710" y="275" type="curve" smooth="yes"/>
	  <point x="710" y="373"/>
	  <point x="655" y="438"/>
	  <point x="564" y="438" type="curve" smooth="yes"/>
	</contour>
	<component base="candraBindu-deva" xOffset="666" yOffset="-144"/>
  </outline>
</glyph>
<glyph name="anudatta-deva" format="1">
  <advance width="0"/>
  <unicode hex="0952"/>
  <outline>
	<contour>
	  <point x="-369" y="-121" type="line"/>
	  <point x="-73" y="-121" type="line"/>
	  <point x="-73" y="-65" type="line"/>
	  <point x="-369" y="-65" type="line"/>
	</contour>
  </outline>
</glyph>
<glyph name="eLongCandra-deva" format="1">
  <advance width="0"/>
  <unicode hex="0955"/>
  <outline>
	<contour>
	  <point x="-37" y="827" type="line"/>
	  <point x="-37" y="783"/>
	  <point x="-67" y="764"/>
	  <point x="-110" y="764" type="curve" smooth="yes"/>
	  <point x="-147" y="764"/>
	  <point x="-181" y="783"/>
	  <point x="-181" y="827" type="curve"/>
	  <point x="-251" y="827" type="line"/>
	  <point x="-251" y="759"/>
	  <point x="-198" y="711"/>
	  <point x="-110" y="711" type="curve" smooth="yes"/>
	  <point x="-20" y="711"/>
	  <point x="31" y="759"/>
	  <point x="33" y="827" type="curve"/>
	</contour>
	<contour>
	  <point x="22" y="637" type="line"/>
	  <point x="22" y="690" type="line"/>
	  <point x="-241" y="690" type="line"/>
	  <point x="-241" y="637" type="line"/>
	</contour>
	<contour>
	  <point x="-109" y="606" type="move" name="_top"/>
	</contour>
  </outline>
</glyph>
<glyph name="ueMatra-deva" format="1">
  <advance width="0"/>
  <unicode hex="0956"/>
  <outline>
	<contour>
	  <point x="-138" y="-30" type="line"/>
	  <point x="-148" y="-54"/>
	  <point x="-176" y="-89"/>
	  <point x="-241" y="-89" type="curve"/>
	  <point x="-306" y="-89"/>
	  <point x="-334" y="-54"/>
	  <point x="-344" y="-30" type="curve"/>
	  <point x="-404" y="-30" type="line"/>
	  <point x="-399" y="-85"/>
	  <point x="-348" y="-146"/>
	  <point x="-241" y="-146" type="curve"/>
	  <point x="-134" y="-146"/>
	  <point x="-83" y="-85"/>
	  <point x="-78" y="-30" type="curve"/>
	</contour>
	<contour>
	  <point x="-238" y="0" type="move" name="_uesign-deva"/>
	</contour>
  </outline>
</glyph>
<glyph name="ghha-deva" format="1">
  <advance width="542"/>
  <unicode hex="095A"/>
  <outline>
	<component base="ga-deva"/>
	<component base="nukta-deva" xOffset="330" yOffset="134"/>
	<contour>
	  <point x="432" y="606" type="move" name="top"/>
	</contour>
	<contour>
	  <point x="432" y="0" type="move" name="bottom"/>
	</contour>
  </outline>
</glyph>
<glyph name="yya-deva" format="1">
  <advance width="472"/>
  <unicode hex="095F"/>
  <outline>
	<component base="ya-deva"/>
	<component base="nukta-deva" xOffset="193" yOffset="128"/>
	<contour>
	  <point x="362" y="606" type="move" name="top"/>
	</contour>
	<contour>
	  <point x="362" y="0" type="move" name="bottom"/>
	</contour>
  </outline>
</glyph>
<glyph name="llVocalic-deva" format="1">
  <advance width="610"/>
  <unicode hex="0961"/>
  <outline>
	<contour>
	  <point x="-10" y="606" type="line"/>
	  <point x="-10" y="541" type="line"/>
	  <point x="620" y="541" type="line"/>
	  <point x="620" y="606" type="line"/>
	</contour>
	<contour>
	  <point x="464" y="606" type="line"/>
	  <point x="464" y="96" type="line"/>
	  <point x="537" y="96" type="line"/>
	  <point x="537" y="606" type="line"/>
	</contour>
	<contour>
	  <point x="334" y="434"/>
	  <point x="301" y="396"/>
	  <point x="286" y="344" type="curve"/>
	  <point x="283" y="344" type="line"/>
	  <point x="267" y="396"/>
	  <point x="230" y="434"/>
	  <point x="167" y="434" type="curve" smooth="yes"/>
	  <point x="80" y="434"/>
	  <point x="29" y="357"/>
	  <point x="29" y="243" type="curve" smooth="yes"/>
	  <point x="29" y="74"/>
	  <point x="103" y="0"/>
	  <point x="238" y="0" type="curve" smooth="yes"/>
	  <point x="250" y="0"/>
	  <point x="261" y="1"/>
	  <point x="272" y="4" type="curve"/>
	  <point x="272" y="64" type="line"/>
	  <point x="256" y="64" type="line" smooth="yes"/>
	  <point x="148" y="64"/>
	  <point x="104" y="116"/>
	  <point x="104" y="232" type="curve" smooth="yes"/>
	  <point x="104" y="319"/>
	  <point x="125" y="370"/>
	  <point x="177" y="370" type="curve" smooth="yes"/>
	  <point x="231" y="370"/>
	  <point x="247" y="317"/>
	  <point x="247" y="260" type="curve" smooth="yes"/>
	  <point x="247" y="202" type="line"/>
	  <point x="322" y="202" type="line"/>
	  <point x="322" y="260" type="line" smooth="yes"/>
	  <point x="322" y="317"/>
	  <point x="338" y="370"/>
	  <point x="391" y="370" type="curve" smooth="yes"/>
	  <point x="443" y="370"/>
	  <point x="464" y="331"/>
	  <point x="464" y="267" type="curve"/>
	  <point x="519" y="268" type="line"/>
	  <point x="519" y="365"/>
	  <point x="472" y="434"/>
	  <point x="397" y="434" type="curve" smooth="yes"/>
	</contour>
	<component base="rrVocalicMatra-deva" xOffset="608" yOffset="96"/>
	<contour>
	  <point x="500" y="606" type="move" name="top"/>
	</contour>
	<contour>
	  <point x="500" y="0" type="move" name="bottom"/>
	</contour>
  </outline>
</glyph>
<glyph name="lVocalicMatra-deva" format="1">
  <advance width="0"/>
  <unicode hex="0962"/>
  <outline>
	<contour>
	  <point x="-72" y="-239"/>
	  <point x="-29" y="-264"/>
	  <point x="13" y="-264" type="curve" smooth="yes"/>
	  <point x="35" y="-264"/>
	  <point x="57" y="-257"/>
	  <point x="72" y="-248" type="curve"/>
	  <point x="72" y="-191" type="line"/>
	  <point x="58" y="-198"/>
	  <point x="40" y="-203"/>
	  <point x="26" y="-203" type="curve" smooth="yes"/>
	  <point x="6" y="-203"/>
	  <point x="-4" y="-193"/>
	  <point x="-4" y="-174" type="curve" smooth="yes"/>
	  <point x="-4" y="-133"/>
	  <point x="42" y="-83"/>
	  <point x="42" y="-20" type="curve" smooth="yes"/>
	  <point x="42" y="35"/>
	  <point x="7" y="56"/>
	  <point x="-35" y="56" type="curve" smooth="yes"/>
	  <point x="-82" y="56"/>
	  <point x="-100" y="30"/>
	  <point x="-110" y="3" type="curve"/>
	  <point x="-121" y="34"/>
	  <point x="-142" y="56"/>
	  <point x="-180" y="56" type="curve" smooth="yes"/>
	  <point x="-229" y="56"/>
	  <point x="-261" y="21"/>
	  <point x="-261" y="-56" type="curve" smooth="yes"/>
	  <point x="-261" y="-137"/>
	  <point x="-226" y="-178"/>
	  <point x="-154" y="-178" type="curve" smooth="yes"/>
	  <point x="-145" y="-178" type="line"/>
	  <point x="-145" y="-122" type="line"/>
	  <point x="-152" y="-122" type="line" smooth="yes"/>
	  <point x="-181" y="-122"/>
	  <point x="-193" y="-100"/>
	  <point x="-193" y="-55" type="curve" smooth="yes"/>
	  <point x="-193" y="-21"/>
	  <point x="-186" y="-3"/>
	  <point x="-167" y="-3" type="curve" smooth="yes"/>
	  <point x="-149" y="-3"/>
	  <point x="-142" y="-20"/>
	  <point x="-142" y="-44" type="curve" smooth="yes"/>
	  <point x="-142" y="-68" type="line"/>
	  <point x="-78" y="-68" type="line"/>
	  <point x="-78" y="-44" type="line" smooth="yes"/>
	  <point x="-78" y="-19"/>
	  <point x="-72" y="-3"/>
	  <point x="-50" y="-3" type="curve" smooth="yes"/>
	  <point x="-35" y="-3"/>
	  <point x="-25" y="-10"/>
	  <point x="-25" y="-33" type="curve" smooth="yes"/>
	  <point x="-25" y="-82"/>
	  <point x="-72" y="-131"/>
	  <point x="-72" y="-186" type="curve" smooth="yes"/>
	</contour>
	<contour>
	  <point x="-110" y="0" type="move" name="_bottom"/>
	</contour>
  </outline>
</glyph>
<glyph name="one-deva" format="1">
  <advance width="342"/>
  <unicode hex="0967"/>
  <outline>
	<contour>
	  <point x="95" y="637"/>
	  <point x="42" y="591"/>
	  <point x="42" y="514" type="curve" smooth="yes"/>
	  <point x="42" y="430"/>
	  <point x="104" y="376"/>
	  <point x="192" y="376" type="curve" smooth="yes"/>
	  <point x="204" y="376"/>
	  <point x="219" y="377"/>
	  <point x="233" y="379" type="curve"/>
	  <point x="232" y="436" type="line"/>
	  <point x="190" y="436" type="line" smooth="yes"/>
	  <point x="143" y="436"/>
	  <point x="114" y="462"/>
	  <point x="114" y="510" type="curve" smooth="yes"/>
	  <point x="114" y="550"/>
	  <point x="135" y="573"/>
	  <point x="172" y="573" type="curve" smooth="yes"/>
	  <point x="208" y="573"/>
	  <point x="228" y="551"/>
	  <point x="228" y="492" type="curve" smooth="yes"/>
	  <point x="228" y="370"/>
	  <point x="142" y="303"/>
	  <point x="61" y="267" type="curve"/>
	  <point x="60" y="216" type="line"/>
	  <point x="98" y="210" type="line"/>
	  <point x="172" y="251"/>
	  <point x="300" y="343"/>
	  <point x="300" y="495" type="curve" smooth="yes"/>
	  <point x="300" y="593"/>
	  <point x="247" y="637"/>
	  <point x="172" y="637" type="curve" smooth="yes"/>
	</contour>
	<contour>
	  <point x="60" y="216" type="line"/>
	  <point x="189" y="89" type="line" smooth="yes"/>
	  <point x="203" y="74"/>
	  <point x="208" y="61"/>
	  <point x="208" y="46" type="curve" smooth="yes"/>
	  <point x="208" y="40"/>
	  <point x="207" y="23"/>
	  <point x="202" y="0" type="curve"/>
	  <point x="262" y="0" type="line"/>
	  <point x="273" y="21"/>
	  <point x="278" y="41"/>
	  <point x="278" y="57" type="curve" smooth="yes"/>
	  <point x="278" y="86"/>
	  <point x="262" y="110"/>
	  <point x="237" y="137" type="curve" smooth="yes"/>
	  <point x="123" y="248" type="line"/>
	</contour>
	<contour>
	  <point x="169" y="606" type="move" name="top"/>
	</contour>
	<contour>
	  <point x="267" y="0" type="move" name="bottom"/>
	</contour>
  </outline>
</glyph>
<glyph name="three-deva" format="1">
  <advance width="404"/>
  <unicode hex="0969"/>
  <outline>
	<contour>
	  <point x="117" y="637"/>
	  <point x="57" y="579"/>
	  <point x="57" y="488" type="curve" smooth="yes"/>
	  <point x="57" y="472" type="line"/>
	  <point x="131" y="472" type="line"/>
	  <point x="131" y="481" type="line" smooth="yes"/>
	  <point x="131" y="545"/>
	  <point x="162" y="574"/>
	  <point x="205" y="574" type="curve" smooth="yes"/>
	  <point x="244" y="574"/>
	  <point x="278" y="549"/>
	  <point x="278" y="493" type="curve" smooth="yes"/>
	  <point x="278" y="438"/>
	  <point x="246" y="405"/>
	  <point x="198" y="405" type="curve" smooth="yes"/>
	  <point x="146" y="405" type="line"/>
	  <point x="146" y="343" type="line"/>
	  <point x="197" y="343" type="line" smooth="yes"/>
	  <point x="252" y="343"/>
	  <point x="288" y="310"/>
	  <point x="288" y="252" type="curve" smooth="yes"/>
	  <point x="288" y="194"/>
	  <point x="253" y="165"/>
	  <point x="202" y="165" type="curve" smooth="yes"/>
	  <point x="147" y="165"/>
	  <point x="120" y="199"/>
	  <point x="120" y="263" type="curve" smooth="yes"/>
	  <point x="120" y="274" type="line"/>
	  <point x="61" y="274" type="line"/>
	  <point x="61" y="266" type="line" smooth="yes"/>
	  <point x="61" y="166"/>
	  <point x="115" y="101"/>
	  <point x="211" y="101" type="curve" smooth="yes"/>
	  <point x="301" y="101"/>
	  <point x="363" y="157"/>
	  <point x="363" y="248" type="curve" smooth="yes"/>
	  <point x="363" y="320"/>
	  <point x="325" y="366"/>
	  <point x="273" y="377" type="curve"/>
	  <point x="273" y="380" type="line"/>
	  <point x="320" y="398"/>
	  <point x="352" y="434"/>
	  <point x="352" y="498" type="curve" smooth="yes"/>
	  <point x="352" y="588"/>
	  <point x="289" y="637"/>
	  <point x="207" y="637" type="curve" smooth="yes"/>
	</contour>
	<contour>
	  <point x="48" y="274" type="line"/>
	  <point x="46" y="0" type="line"/>
	  <point x="118" y="0" type="line"/>
	  <point x="120" y="274" type="line"/>
	</contour>
  </outline>
</glyph>
<glyph name="four-deva" format="1">
  <advance width="423"/>
  <unicode hex="096A"/>
  <outline>
	<contour>
	  <point x="45" y="627" type="line"/>
	  <point x="45" y="440" type="line" smooth="yes"/>
	  <point x="45" y="374"/>
	  <point x="68" y="322"/>
	  <point x="123" y="295" type="curve"/>
	  <point x="80" y="266"/>
	  <point x="58" y="215"/>
	  <point x="58" y="158" type="curve" smooth="yes"/>
	  <point x="58" y="65"/>
	  <point x="110" y="-11"/>
	  <point x="212" y="-11" type="curve" smooth="yes"/>
	  <point x="313" y="-11"/>
	  <point x="365" y="65"/>
	  <point x="365" y="158" type="curve" smooth="yes"/>
	  <point x="365" y="215"/>
	  <point x="343" y="266"/>
	  <point x="299" y="295" type="curve"/>
	  <point x="355" y="322"/>
	  <point x="378" y="374"/>
	  <point x="378" y="440" type="curve" smooth="yes"/>
	  <point x="378" y="627" type="line"/>
	  <point x="303" y="627" type="line"/>
	  <point x="303" y="440" type="line" smooth="yes"/>
	  <point x="303" y="371"/>
	  <point x="272" y="328"/>
	  <point x="212" y="328" type="curve" smooth="yes"/>
	  <point x="151" y="328"/>
	  <point x="120" y="371"/>
	  <point x="120" y="440" type="curve" smooth="yes"/>
	  <point x="120" y="627" type="line"/>
	</contour>
	<contour>
	  <point x="162" y="54"/>
	  <point x="130" y="93"/>
	  <point x="130" y="159" type="curve" smooth="yes"/>
	  <point x="130" y="224"/>
	  <point x="162" y="264"/>
	  <point x="212" y="264" type="curve" smooth="yes"/>
	  <point x="261" y="264"/>
	  <point x="294" y="224"/>
	  <point x="294" y="159" type="curve" smooth="yes"/>
	  <point x="294" y="93"/>
	  <point x="261" y="54"/>
	  <point x="212" y="54" type="curve" smooth="yes"/>
	</contour>
  </outline>
</glyph>
<glyph name="five-deva" format="1">
  <advance width="403"/>
  <unicode hex="096B"/>
  <outline>
	<contour>
	  <point x="104" y="627" type="line"/>
	  <point x="51" y="487"/>
	  <point x="46" y="394"/>
	  <point x="46" y="348" type="curve" smooth="yes"/>
	  <point x="46" y="242"/>
	  <point x="74" y="119"/>
	  <point x="195" y="119" type="curve" smooth="yes"/>
	  <point x="310" y="119"/>
	  <point x="345" y="215"/>
	  <point x="345" y="332" type="curve"/>
	  <point x="283" y="332" type="line"/>
	  <point x="283" y="235"/>
	  <point x="259" y="183"/>
	  <point x="201" y="183" type="curve" smooth="yes"/>
	  <point x="139" y="183"/>
	  <point x="119" y="249"/>
	  <point x="119" y="335" type="curve" smooth="yes"/>
	  <point x="119" y="360" type="line" smooth="yes"/>
	  <point x="119" y="406"/>
	  <point x="127" y="496"/>
	  <point x="181" y="627" type="curve"/>
	</contour>
	<contour>
	  <point x="283" y="364" type="line"/>
	  <point x="283" y="0" type="line"/>
	  <point x="355" y="0" type="line"/>
	  <point x="355" y="364" type="line"/>
	</contour>
	<contour>
	  <point x="212" y="626" type="move" name="top"/>
	</contour>
  </outline>
</glyph>
<glyph name="eight-deva" format="1">
  <advance width="427"/>
  <unicode hex="096E"/>
  <outline>
	<contour>
	  <point x="268" y="628" type="line"/>
	  <point x="142" y="479"/>
	  <point x="40" y="315"/>
	  <point x="40" y="171" type="curve" smooth="yes"/>
	  <point x="40" y="49"/>
	  <point x="113" y="-11"/>
	  <point x="217" y="-11" type="curve" smooth="yes"/>
	  <point x="334" y="-11"/>
	  <point x="389" y="65"/>
	  <point x="389" y="151" type="curve" smooth="yes"/>
	  <point x="389" y="163"/>
	  <point x="388" y="178"/>
	  <point x="385" y="188" type="curve"/>
	  <point x="312" y="188" type="line"/>
	  <point x="312" y="159" type="line" smooth="yes"/>
	  <point x="312" y="83"/>
	  <point x="262" y="53"/>
	  <point x="215" y="53" type="curve" smooth="yes"/>
	  <point x="156" y="53"/>
	  <point x="116" y="100"/>
	  <point x="116" y="174" type="curve" smooth="yes"/>
	  <point x="116" y="301"/>
	  <point x="225" y="464"/>
	  <point x="363" y="628" type="curve"/>
	</contour>
  </outline>
</glyph>
<glyph name="nine-deva" format="1">
  <advance width="387"/>
  <unicode hex="096F"/>
  <outline>
	<contour>
	  <point x="93" y="637"/>
	  <point x="41" y="557"/>
	  <point x="41" y="448" type="curve" smooth="yes"/>
	  <point x="41" y="303"/>
	  <point x="132" y="199"/>
	  <point x="230" y="89" type="curve" smooth="yes"/>
	  <point x="244" y="73"/>
	  <point x="249" y="63"/>
	  <point x="249" y="47" type="curve" smooth="yes"/>
	  <point x="249" y="40"/>
	  <point x="248" y="23"/>
	  <point x="243" y="0" type="curve"/>
	  <point x="303" y="0" type="line"/>
	  <point x="314" y="21"/>
	  <point x="319" y="41"/>
	  <point x="319" y="58" type="curve" smooth="yes"/>
	  <point x="319" y="89"/>
	  <point x="301" y="112"/>
	  <point x="278" y="137" type="curve" smooth="yes"/>
	  <point x="187" y="237"/>
	  <point x="113" y="322"/>
	  <point x="113" y="449" type="curve" smooth="yes"/>
	  <point x="113" y="525"/>
	  <point x="140" y="573"/>
	  <point x="195" y="573" type="curve" smooth="yes"/>
	  <point x="240" y="573"/>
	  <point x="269" y="541"/>
	  <point x="269" y="489" type="curve" smooth="yes"/>
	  <point x="269" y="431"/>
	  <point x="232" y="396"/>
	  <point x="168" y="396" type="curve" smooth="yes"/>
	  <point x="106" y="396" type="line"/>
	  <point x="105" y="339" type="line"/>
	  <point x="125" y="337"/>
	  <point x="149" y="336"/>
	  <point x="163" y="336" type="curve" smooth="yes"/>
	  <point x="271" y="336"/>
	  <point x="341" y="397"/>
	  <point x="341" y="495" type="curve" smooth="yes"/>
	  <point x="341" y="583"/>
	  <point x="285" y="637"/>
	  <point x="198" y="637" type="curve" smooth="yes"/>
	</contour>
	<contour>
	  <point x="190" y="606" type="move" name="top"/>
	</contour>
	<contour>
	  <point x="288" y="0" type="move" name="bottom"/>
	</contour>
  </outline>
</glyph>
<glyph name="aw-deva" format="1">
  <advance width="809"/>
  <unicode hex="0975"/>
  <outline>
	<component base="a-deva"/>
	<component base="awMatra-deva" xOffset="590"/>
	<contour>
	  <point x="703" y="606" type="move" name="top"/>
	</contour>
	<contour>
	  <point x="703" y="0" type="move" name="bottom"/>
	</contour>
  </outline>
</glyph>
<glyph name="dda-deva.MAW" format="1">
  <advance width="440"/>
  <unicode hex="0978"/>
  <outline>
	<contour>
	  <point x="249" y="586" type="line"/>
	  <point x="177" y="586" type="line"/>
	  <point x="177" y="398" type="line" smooth="yes"/>
	  <point x="177" y="337"/>
	  <point x="150" y="304"/>
	  <point x="98" y="304" type="curve" smooth="yes"/>
	  <point x="59" y="304" type="line"/>
	  <point x="59" y="246" type="line"/>
	  <point x="116" y="246" type="line"/>
	  <point x="203" y="246"/>
	  <point x="249" y="301"/>
	  <point x="249" y="405" type="curve" smooth="yes"/>
	</contour>
	<contour>
	  <point x="450" y="606" type="line"/>
	  <point x="-10" y="606" type="line"/>
	  <point x="-10" y="541" type="line"/>
	  <point x="450" y="541" type="line"/>
	</contour>
	<contour>
	  <point x="338" y="0" type="line"/>
	  <point x="378" y="78"/>
	  <point x="384" y="122"/>
	  <point x="384" y="151" type="curve" smooth="yes"/>
	  <point x="384" y="230"/>
	  <point x="334" y="304"/>
	  <point x="207" y="304" type="curve" smooth="yes"/>
	  <point x="59" y="304" type="line"/>
	  <point x="59" y="238" type="line"/>
	  <point x="212" y="238" type="line" smooth="yes"/>
	  <point x="273" y="238"/>
	  <point x="308" y="206"/>
	  <point x="308" y="147" type="curve" smooth="yes"/>
	  <point x="308" y="122"/>
	  <point x="300" y="78"/>
	  <point x="262" y="0" type="curve"/>
	</contour>
	<contour>
	  <point x="116" y="144" type="move" name="nukta"/>
	</contour>
	<contour>
	  <point x="300" y="0" type="move" name="bottom"/>
	</contour>
	<contour>
	  <point x="213" y="606" type="move" name="top"/>
	</contour>
  </outline>
</glyph>
<glyph name="jjya-deva" format="1">
  <advance width="472"/>
  <unicode hex="097A"/>
  <outline>
	<contour>
	  <point x="333" y="191" type="line"/>
	  <point x="367" y="217" type="line"/>
	  <point x="187" y="547" type="line"/>
	  <point x="155" y="516" type="line"/>
	</contour>
	<component base="ya-deva"/>
	<contour>
	  <point x="86" y="128" type="move" name="nukta"/>
	</contour>
	<contour>
	  <point x="362" y="0" type="move" name="bottom"/>
	</contour>
	<contour>
	  <point x="362" y="606" type="move" name="top"/>
	</contour>
  </outline>
</glyph>
<glyph name="uni1CDB" format="1">
  <advance width="0"/>
  <unicode hex="1CDB"/>
  <outline>
	<component base="udatta-deva" xOffset="210"/>
	<component base="udatta-deva" xOffset="103"/>
	<component base="udatta-deva"/>
	<contour>
	  <point x="-110" y="606" type="move" name="_top"/>
	</contour>
  </outline>
</glyph>
<glyph name="uni1CF5" format="1">
  <advance width="485"/>
  <unicode hex="1CF5"/>
  <outline>
	<contour>
	  <point x="459" y="606" type="line"/>
	  <point x="378" y="606" type="line"/>
	  <point x="242" y="381" type="line"/>
	  <point x="247" y="381" type="line"/>
	  <point x="114" y="606" type="line"/>
	  <point x="26" y="606" type="line"/>
	  <point x="203" y="315" type="line"/>
	  <point x="8" y="0" type="line"/>
	  <point x="88" y="0" type="line"/>
	  <point x="243" y="255" type="line"/>
	  <point x="239" y="255" type="line"/>
	  <point x="390" y="0" type="line"/>
	  <point x="477" y="0" type="line"/>
	  <point x="283" y="321" type="line"/>
	</contour>
  </outline>
</glyph>
<glyph name="uni1CF6" format="1">
  <advance width="571"/>
  <unicode hex="1CF6"/>
  <outline>
	<contour>
	  <point x="541" y="63" type="line"/>
	  <point x="541" y="109" type="line" smooth="yes"/>
	  <point x="541" y="228"/>
	  <point x="490" y="305"/>
	  <point x="402" y="305" type="curve" smooth="yes"/>
	  <point x="343" y="305"/>
	  <point x="304" y="270"/>
	  <point x="287" y="215" type="curve"/>
	  <point x="284" y="215" type="line"/>
	  <point x="267" y="270"/>
	  <point x="228" y="305"/>
	  <point x="169" y="305" type="curve" smooth="yes"/>
	  <point x="81" y="305"/>
	  <point x="30" y="228"/>
	  <point x="30" y="109" type="curve" smooth="yes"/>
	  <point x="30" y="63" type="line"/>
	  <point x="105" y="63" type="line"/>
	  <point x="105" y="98" type="line" smooth="yes"/>
	  <point x="105" y="190"/>
	  <point x="126" y="241"/>
	  <point x="178" y="241" type="curve" smooth="yes"/>
	  <point x="232" y="241"/>
	  <point x="248" y="188"/>
	  <point x="248" y="131" type="curve" smooth="yes"/>
	  <point x="248" y="63" type="line"/>
	  <point x="323" y="63" type="line"/>
	  <point x="323" y="131" type="line" smooth="yes"/>
	  <point x="323" y="188"/>
	  <point x="339" y="241"/>
	  <point x="393" y="241" type="curve" smooth="yes"/>
	  <point x="445" y="241"/>
	  <point x="466" y="190"/>
	  <point x="466" y="98" type="curve" smooth="yes"/>
	  <point x="466" y="63" type="line"/>
	</contour>
	<contour>
	  <point x="466" y="571" type="line" smooth="yes"/>
	  <point x="466" y="479"/>
	  <point x="445" y="428"/>
	  <point x="393" y="428" type="curve" smooth="yes"/>
	  <point x="339" y="428"/>
	  <point x="323" y="481"/>
	  <point x="323" y="538" type="curve" smooth="yes"/>
	  <point x="323" y="606" type="line"/>
	  <point x="248" y="606" type="line"/>
	  <point x="248" y="538" type="line" smooth="yes"/>
	  <point x="248" y="481"/>
	  <point x="232" y="428"/>
	  <point x="178" y="428" type="curve" smooth="yes"/>
	  <point x="126" y="428"/>
	  <point x="105" y="479"/>
	  <point x="105" y="571" type="curve" smooth="yes"/>
	  <point x="105" y="606" type="line"/>
	  <point x="30" y="606" type="line"/>
	  <point x="30" y="560" type="line" smooth="yes"/>
	  <point x="30" y="441"/>
	  <point x="81" y="364"/>
	  <point x="169" y="364" type="curve" smooth="yes"/>
	  <point x="228" y="364"/>
	  <point x="267" y="399"/>
	  <point x="284" y="454" type="curve"/>
	  <point x="287" y="454" type="line"/>
	  <point x="304" y="399"/>
	  <point x="343" y="364"/>
	  <point x="402" y="364" type="curve" smooth="yes"/>
	  <point x="490" y="364"/>
	  <point x="541" y="441"/>
	  <point x="541" y="560" type="curve" smooth="yes"/>
	  <point x="541" y="606" type="line"/>
	  <point x="466" y="606" type="line"/>
	</contour>
  </outline>
</glyph>
<glyph name="Wdieresis" format="1">
  <advance width="684"/>
  <unicode hex="1E84"/>
  <outline>
	<contour>
	  <point x="675" y="606" type="line"/>
	  <point x="605" y="606" type="line"/>
	  <point x="512" y="187" type="line" smooth="yes"/>
	  <point x="503" y="148"/>
	  <point x="493" y="80"/>
	  <point x="493" y="80" type="curve" smooth="yes"/>
	  <point x="490" y="80" type="line" smooth="yes"/>
	  <point x="490" y="80"/>
	  <point x="482" y="143"/>
	  <point x="474" y="187" type="curve" smooth="yes"/>
	  <point x="399" y="606" type="line"/>
	  <point x="291" y="606" type="line"/>
	  <point x="221" y="187" type="line" smooth="yes"/>
	  <point x="212" y="134"/>
	  <point x="206" y="80"/>
	  <point x="206" y="80" type="curve" smooth="yes"/>
	  <point x="202" y="80" type="line" smooth="yes"/>
	  <point x="202" y="80"/>
	  <point x="192" y="152"/>
	  <point x="184" y="187" type="curve" smooth="yes"/>
	  <point x="91" y="606" type="line"/>
	  <point x="9" y="606" type="line"/>
	  <point x="149" y="0" type="line"/>
	  <point x="250" y="0" type="line"/>
	  <point x="323" y="411" type="line" smooth="yes"/>
	  <point x="330" y="452"/>
	  <point x="339" y="533"/>
	  <point x="339" y="533" type="curve"/>
	  <point x="343" y="533" type="line"/>
	  <point x="343" y="533"/>
	  <point x="353" y="452"/>
	  <point x="360" y="411" type="curve" smooth="yes"/>
	  <point x="434" y="0" type="line"/>
	  <point x="535" y="0" type="line"/>
	</contour>
	<contour>
	  <point x="314" y="781" type="line"/>
	  <point x="238" y="781" type="line"/>
	  <point x="238" y="697" type="line"/>
	  <point x="314" y="697" type="line"/>
	</contour>
	<contour>
	  <point x="447" y="781" type="line"/>
	  <point x="370" y="781" type="line"/>
	  <point x="370" y="697" type="line"/>
	  <point x="447" y="697" type="line"/>
	</contour>
  </outline>
</glyph>
<glyph name="ygrave" format="1">
  <advance width="362"/>
  <unicode hex="1EF3"/>
  <outline>
	<contour>
	  <point x="354" y="465" type="line"/>
	  <point x="281" y="465" type="line"/>
	  <point x="224" y="225" type="line"/>
	  <point x="214" y="185"/>
	  <point x="204" y="145"/>
	  <point x="194" y="104" type="curve"/>
	  <point x="191" y="104" type="line"/>
	  <point x="179" y="145"/>
	  <point x="168" y="186"/>
	  <point x="156" y="226" type="curve"/>
	  <point x="88" y="465" type="line"/>
	  <point x="9" y="465" type="line"/>
	  <point x="151" y="0" type="line"/>
	  <point x="134" y="-80"/>
	  <point x="98" y="-103"/>
	  <point x="59" y="-103" type="curve" smooth="yes"/>
	  <point x="34" y="-103" type="line"/>
	  <point x="34" y="-154" type="line"/>
	  <point x="49" y="-159"/>
	  <point x="65" y="-161"/>
	  <point x="86" y="-161" type="curve" smooth="yes"/>
	  <point x="167" y="-161"/>
	  <point x="209" y="-78"/>
	  <point x="236" y="24" type="curve" smooth="yes"/>
	</contour>
	<contour>
	  <point x="158" y="639" type="line"/>
	  <point x="78" y="639" type="line"/>
	  <point x="77" y="636" type="line"/>
	  <point x="173" y="522" type="line"/>
	  <point x="234" y="522" type="line"/>
	</contour>
  </outline>
</glyph>
<glyph name="zerowidthnonjoiner" format="1">
  <advance width="0"/>
  <unicode hex="200C"/>
  <outline>
	<contour>
	  <point x="0" y="827" type="line"/>
	  <point x="0" y="-404" type="line"/>
	  <point x="66" y="-404" type="line"/>
	  <point x="66" y="827" type="line"/>
	</contour>
  </outline>
</glyph>
<glyph name="emdash" format="1">
  <advance width="725"/>
  <unicode hex="2014"/>
  <outline>
	<contour>
	  <point x="725" y="206" type="line"/>
	  <point x="725" y="272" type="line"/>
	  <point x="0" y="272" type="line"/>
	  <point x="0" y="206" type="line"/>
	</contour>
  </outline>
</glyph>
<glyph name="quoteright" format="1">
  <advance width="161"/>
  <unicode hex="2019"/>
  <outline>
	<contour>
	  <point x="125" y="519" type="line"/>
	  <point x="125" y="606" type="line"/>
	  <point x="36" y="606" type="line"/>
	  <point x="36" y="511" type="line"/>
	  <point x="72" y="511" type="line"/>
	  <point x="36" y="401" type="line"/>
	  <point x="82" y="401" type="line"/>
	</contour>
  </outline>
</glyph>
<glyph name="quotesinglbase" format="1">
  <advance width="161"/>
  <unicode hex="201A"/>
  <outline>
	<contour>
	  <point x="121" y="8" type="line"/>
	  <point x="121" y="95" type="line"/>
	  <point x="33" y="95" type="line"/>
	  <point x="33" y="0" type="line"/>
	  <point x="68" y="0" type="line"/>
	  <point x="33" y="-110" type="line"/>
	  <point x="79" y="-110" type="line"/>
	</contour>
  </outline>
</glyph>
<glyph name="quotedblbase" format="1">
  <advance width="241"/>
  <unicode hex="201E"/>
  <outline>
	<contour>
	  <point x="222" y="8" type="line"/>
	  <point x="222" y="95" type="line"/>
	  <point x="133" y="95" type="line"/>
	  <point x="133" y="0" type="line"/>
	  <point x="169" y="0" type="line"/>
	  <point x="133" y="-110" type="line"/>
	  <point x="179" y="-110" type="line"/>
	</contour>
	<contour>
	  <point x="110" y="8" type="line"/>
	  <point x="110" y="95" type="line"/>
	  <point x="21" y="95" type="line"/>
	  <point x="21" y="0" type="line"/>
	  <point x="57" y="0" type="line"/>
	  <point x="21" y="-110" type="line"/>
	  <point x="67" y="-110" type="line"/>
	</contour>
  </outline>
</glyph>
<glyph name="dagger" format="1">
  <advance width="403"/>
  <unicode hex="2020"/>
  <outline>
	<contour>
	  <point x="225" y="436" type="line"/>
	  <point x="240" y="606" type="line"/>
	  <point x="162" y="606" type="line"/>
	  <point x="177" y="436" type="line"/>
	  <point x="31" y="451" type="line"/>
	  <point x="31" y="369" type="line"/>
	  <point x="177" y="385" type="line"/>
	  <point x="159" y="-150" type="line"/>
	  <point x="242" y="-150" type="line"/>
	  <point x="225" y="385" type="line"/>
	  <point x="371" y="369" type="line"/>
	  <point x="371" y="451" type="line"/>
	</contour>
  </outline>
</glyph>
<glyph name="ellipsis" format="1">
  <advance width="725"/>
  <unicode hex="2026"/>
  <outline>
	<contour>
	  <point x="647" y="0" type="line"/>
	  <point x="647" y="95" type="line"/>
	  <point x="559" y="95" type="line"/>
	  <point x="559" y="0" type="line"/>
	</contour>
	<contour>
	  <point x="165" y="0" type="line"/>
	  <point x="165" y="95" type="line"/>
	  <point x="77" y="95" type="line"/>
	  <point x="77" y="0" type="line"/>
	</contour>
	<contour>
	  <point x="407" y="0" type="line"/>
	  <point x="407" y="95" type="line"/>
	  <point x="318" y="95" type="line"/>
	  <point x="318" y="0" type="line"/>
	</contour>
  </outline>
</glyph>
<glyph name="second" format="1">
  <advance width="257"/>
  <unicode hex="2033"/>
  <outline>
	<contour>
	  <point x="235" y="604" type="line"/>
	  <point x="234" y="606" type="line"/>
	  <point x="155" y="606" type="line"/>
	  <point x="133" y="465" type="line"/>
	  <point x="194" y="465" type="line"/>
	</contour>
	<contour>
	  <point x="123" y="604" type="line"/>
	  <point x="122" y="606" type="line"/>
	  <point x="42" y="606" type="line"/>
	  <point x="20" y="465" type="line"/>
	  <point x="81" y="465" type="line"/>
	</contour>
  </outline>
</glyph>
<glyph name="caret" format="1">
  <advance width="250"/>
  <unicode hex="2038"/>
  <outline>
	<contour>
	  <point x="240" y="-196" type="line"/>
	  <point x="156" y="44" type="line"/>
	  <point x="94" y="44" type="line"/>
	  <point x="10" y="-196" type="line"/>
	  <point x="84" y="-196" type="line"/>
	  <point x="125" y="-68" type="line"/>
	  <point x="166" y="-196" type="line"/>
	</contour>
  </outline>
</glyph>
<glyph name="guilsinglright" format="1">
  <advance width="241"/>
  <unicode hex="203A"/>
  <outline>
	<contour>
	  <point x="216" y="288" type="line"/>
	  <point x="91" y="465" type="line"/>
	  <point x="28" y="465" type="line"/>
	  <point x="128" y="288" type="line"/>
	  <point x="28" y="111" type="line"/>
	  <point x="91" y="111" type="line"/>
	</contour>
  </outline>
</glyph>
<glyph name="rupeeIndian" format="1">
  <advance width="390"/>
  <unicode hex="20B9"/>
  <outline>
	<contour>
	  <point x="22" y="596" type="line"/>
	  <point x="22" y="550" type="line"/>
	  <point x="100" y="550" type="line"/>
	  <point x="167" y="550"/>
	  <point x="203" y="501"/>
	  <point x="203" y="432" type="curve" smooth="yes"/>
	  <point x="203" y="364"/>
	  <point x="162" y="319"/>
	  <point x="100" y="319" type="curve" smooth="yes"/>
	  <point x="22" y="319" type="line"/>
	  <point x="22" y="248" type="line"/>
	  <point x="93" y="248" type="line" smooth="yes"/>
	  <point x="221" y="248"/>
	  <point x="284" y="331"/>
	  <point x="284" y="428" type="curve" smooth="yes"/>
	  <point x="284" y="534"/>
	  <point x="222" y="596"/>
	  <point x="103" y="596" type="curve" smooth="yes"/>
	</contour>
	<contour>
	  <point x="22" y="248" type="line"/>
	  <point x="206" y="0" type="line"/>
	  <point x="298" y="0" type="line"/>
	  <point x="98" y="262" type="line"/>
	</contour>
	<contour>
	  <point x="22" y="463" type="line"/>
	  <point x="22" y="406" type="line"/>
	  <point x="350" y="406" type="line"/>
	  <point x="350" y="463" type="line"/>
	</contour>
	<contour>
	  <point x="22" y="608" type="line"/>
	  <point x="22" y="551" type="line"/>
	  <point x="350" y="551" type="line"/>
	  <point x="350" y="608" type="line"/>
	</contour>
	<contour>
	  <point x="189" y="606" type="move" name="top"/>
	</contour>
	<contour>
	  <point x="189" y="0" type="move" name="bottom"/>
	</contour>
  </outline>
</glyph>
<glyph name="seveneighths" format="1">
  <advance width="605"/>
  <unicode hex="215E"/>
  <outline>
	<contour>
	  <point x="507" y="617" type="line"/>
	  <point x="452" y="617" type="line"/>
	  <point x="84" y="-11" type="line"/>
	  <point x="140" y="-11" type="line"/>
	</contour>
	<contour>
	  <point x="508" y="154"/>
	  <point x="523" y="132"/>
	  <point x="523" y="97" type="curve" smooth="yes"/>
	  <point x="523" y="62"/>
	  <point x="508" y="41"/>
	  <point x="478" y="41" type="curve" smooth="yes"/>
	  <point x="448" y="41"/>
	  <point x="432" y="62"/>
	  <point x="432" y="97" type="curve" smooth="yes"/>
	  <point x="432" y="132"/>
	  <point x="448" y="154"/>
	  <point x="478" y="154" type="curve" smooth="yes"/>
	</contour>
	<contour>
	  <point x="261" y="606" type="line"/>
	  <point x="52" y="606" type="line"/>
	  <point x="52" y="551" type="line"/>
	  <point x="191" y="551" type="line"/>
	  <point x="147" y="479"/>
	  <point x="95" y="373"/>
	  <point x="95" y="253" type="curve"/>
	  <point x="156" y="253" type="line"/>
	  <point x="156" y="264"/>
	  <point x="155" y="276"/>
	  <point x="155" y="285" type="curve" smooth="yes"/>
	  <point x="155" y="392"/>
	  <point x="211" y="496"/>
	  <point x="261" y="573" type="curve"/>
	</contour>
	<contour>
	  <point x="416" y="361"/>
	  <point x="384" y="314"/>
	  <point x="384" y="257" type="curve" smooth="yes"/>
	  <point x="384" y="226"/>
	  <point x="397" y="199"/>
	  <point x="419" y="180" type="curve"/>
	  <point x="391" y="163"/>
	  <point x="377" y="133"/>
	  <point x="377" y="97" type="curve" smooth="yes"/>
	  <point x="377" y="39"/>
	  <point x="406" y="-11"/>
	  <point x="478" y="-11" type="curve" smooth="yes"/>
	  <point x="550" y="-11"/>
	  <point x="579" y="39"/>
	  <point x="579" y="97" type="curve" smooth="yes"/>
	  <point x="579" y="133"/>
	  <point x="568" y="161"/>
	  <point x="537" y="179" type="curve"/>
	  <point x="560" y="198"/>
	  <point x="573" y="226"/>
	  <point x="573" y="257" type="curve" smooth="yes"/>
	  <point x="573" y="314"/>
	  <point x="540" y="361"/>
	  <point x="478" y="361" type="curve" smooth="yes"/>
	</contour>
	<contour>
	  <point x="502" y="309"/>
	  <point x="518" y="290"/>
	  <point x="518" y="257" type="curve" smooth="yes"/>
	  <point x="518" y="224"/>
	  <point x="502" y="204"/>
	  <point x="478" y="204" type="curve" smooth="yes"/>
	  <point x="454" y="204"/>
	  <point x="438" y="224"/>
	  <point x="438" y="257" type="curve" smooth="yes"/>
	  <point x="438" y="290"/>
	  <point x="454" y="309"/>
	  <point x="478" y="309" type="curve" smooth="yes"/>
	</contour>
  </outline>
</glyph>
<glyph name="arrowleft" format="1">
  <advance width="884"/>
  <unicode hex="2190"/>
  <outline>
	<contour>
	  <point x="197" y="255" type="line"/>
	  <point x="248" y="377" type="line"/>
	  <point x="211" y="377" type="line"/>
	  <point x="37" y="232" type="line"/>
	  <point x="37" y="214" type="line"/>
	  <point x="211" y="70" type="line"/>
	  <point x="248" y="70" type="line"/>
	  <point x="197" y="191" type="line"/>
	  <point x="849" y="191" type="line"/>
	  <point x="849" y="255" type="line"/>
	</contour>
  </outline>
</glyph>
<glyph name="arrowright" format="1">
  <advance width="884"/>
  <unicode hex="2192"/>
  <outline>
	<contour>
	  <point x="848" y="232" type="line"/>
	  <point x="674" y="377" type="line"/>
	  <point x="636" y="377" type="line"/>
	  <point x="688" y="255" type="line"/>
	  <point x="36" y="255" type="line"/>
	  <point x="36" y="191" type="line"/>
	  <point x="688" y="191" type="line"/>
	  <point x="636" y="70" type="line"/>
	  <point x="674" y="70" type="line"/>
	  <point x="848" y="214" type="line"/>
	</contour>
  </outline>
</glyph>
<glyph name="arrowboth" format="1">
  <advance width="884"/>
  <unicode hex="2194"/>
  <outline>
	<contour>
	  <point x="848" y="232" type="line"/>
	  <point x="674" y="377" type="line"/>
	  <point x="636" y="377" type="line"/>
	  <point x="688" y="255" type="line"/>
	  <point x="202" y="255" type="line"/>
	  <point x="248" y="377" type="line"/>
	  <point x="211" y="377" type="line"/>
	  <point x="37" y="232" type="line"/>
	  <point x="37" y="214" type="line"/>
	  <point x="211" y="70" type="line"/>
	  <point x="248" y="70" type="line"/>
	  <point x="202" y="191" type="line"/>
	  <point x="688" y="191" type="line"/>
	  <point x="636" y="70" type="line"/>
	  <point x="674" y="70" type="line"/>
	  <point x="848" y="214" type="line"/>
	</contour>
  </outline>
</glyph>
<glyph name="arrowupdownbase" format="1">
  <advance width="442"/>
  <unicode hex="21A8"/>
  <outline>
	<contour>
	  <point x="374" y="454" type="line"/>
	  <point x="230" y="629" type="line"/>
	  <point x="211" y="629" type="line"/>
	  <point x="67" y="454" type="line"/>
	  <point x="67" y="417" type="line"/>
	  <point x="188" y="464" type="line"/>
	  <point x="188" y="-22" type="line"/>
	  <point x="67" y="29" type="line"/>
	  <point x="67" y="-8" type="line"/>
	  <point x="211" y="-182" type="line"/>
	  <point x="230" y="-182" type="line"/>
	  <point x="374" y="-8" type="line"/>
	  <point x="374" y="29" type="line"/>
	  <point x="253" y="-22" type="line"/>
	  <point x="253" y="464" type="line"/>
	  <point x="374" y="417" type="line"/>
	</contour>
	<contour>
	  <point x="376" y="-268" type="line"/>
	  <point x="376" y="-225" type="line"/>
	  <point x="66" y="-225" type="line"/>
	  <point x="66" y="-268" type="line"/>
	</contour>
  </outline>
</glyph>
<glyph name="divisionslash" format="1">
  <advance width="83"/>
  <unicode hex="2215"/>
  <outline>
	<contour>
	  <point x="-100" y="-11" type="line"/>
	  <point x="267" y="617" type="line"/>
	  <point x="212" y="617" type="line"/>
	  <point x="-156" y="-11" type="line"/>
	</contour>
  </outline>
</glyph>
<glyph name="radical" format="1">
  <advance width="485"/>
  <unicode hex="221A"/>
  <outline>
	<contour>
	  <point x="341" y="-131" type="line"/>
	  <point x="484" y="758" type="line"/>
	  <point x="422" y="758" type="line"/>
	  <point x="301" y="-27" type="line"/>
	  <point x="296" y="-8"/>
	  <point x="291" y="14"/>
	  <point x="282" y="39" type="curve" smooth="yes"/>
	  <point x="245" y="141"/>
	  <point x="206" y="243"/>
	  <point x="170" y="346" type="curve"/>
	  <point x="27" y="286" type="line"/>
	  <point x="44" y="232" type="line"/>
	  <point x="112" y="259" type="line"/>
	  <point x="162" y="129"/>
	  <point x="211" y="-1"/>
	  <point x="262" y="-131" type="curve"/>
	</contour>
  </outline>
</glyph>
<glyph name="infinity" format="1">
  <advance width="630"/>
  <unicode hex="221E"/>
  <outline>
	<contour>
	  <point x="395" y="400"/>
	  <point x="352" y="360"/>
	  <point x="315" y="315" type="curve"/>
	  <point x="277" y="360"/>
	  <point x="233" y="400"/>
	  <point x="172" y="400" type="curve" smooth="yes"/>
	  <point x="91" y="400"/>
	  <point x="42" y="339"/>
	  <point x="42" y="263" type="curve" smooth="yes"/>
	  <point x="42" y="187"/>
	  <point x="90" y="126"/>
	  <point x="171" y="126" type="curve" smooth="yes"/>
	  <point x="233" y="126"/>
	  <point x="277" y="165"/>
	  <point x="315" y="210" type="curve"/>
	  <point x="352" y="165"/>
	  <point x="395" y="126"/>
	  <point x="458" y="126" type="curve" smooth="yes"/>
	  <point x="539" y="126"/>
	  <point x="588" y="187"/>
	  <point x="588" y="263" type="curve" smooth="yes"/>
	  <point x="588" y="339"/>
	  <point x="538" y="400"/>
	  <point x="457" y="400" type="curve" smooth="yes"/>
	</contour>
	<contour>
	  <point x="211" y="333"/>
	  <point x="242" y="301"/>
	  <point x="273" y="263" type="curve"/>
	  <point x="241" y="222"/>
	  <point x="211" y="189"/>
	  <point x="171" y="189" type="curve" smooth="yes"/>
	  <point x="136" y="189"/>
	  <point x="107" y="221"/>
	  <point x="107" y="261" type="curve" smooth="yes"/>
	  <point x="107" y="301"/>
	  <point x="137" y="333"/>
	  <point x="172" y="333" type="curve" smooth="yes"/>
	</contour>
	<contour>
	  <point x="492" y="333"/>
	  <point x="522" y="301"/>
	  <point x="522" y="261" type="curve" smooth="yes"/>
	  <point x="522" y="221"/>
	  <point x="493" y="189"/>
	  <point x="458" y="189" type="curve" smooth="yes"/>
	  <point x="418" y="189"/>
	  <point x="387" y="222"/>
	  <point x="355" y="263" type="curve"/>
	  <point x="387" y="301"/>
	  <point x="417" y="333"/>
	  <point x="457" y="333" type="curve" smooth="yes"/>
	</contour>
  </outline>
</glyph>
<glyph name="integral" format="1">
  <advance width="242"/>
  <unicode hex="222B"/>
  <outline>
	<contour>
	  <point x="220" y="759" type="line"/>
	  <point x="144" y="759"/>
	  <point x="80" y="743"/>
	  <point x="80" y="660" type="curve" smooth="yes"/>
	  <point x="80" y="524"/>
	  <point x="104" y="-29"/>
	  <point x="104" y="-29" type="curve"/>
	  <point x="104" y="-68"/>
	  <point x="72" y="-80"/>
	  <point x="29" y="-80" type="curve"/>
	  <point x="29" y="-125" type="line"/>
	  <point x="105" y="-125"/>
	  <point x="168" y="-110"/>
	  <point x="168" y="-26" type="curve" smooth="yes"/>
	  <point x="168" y="110"/>
	  <point x="143" y="666"/>
	  <point x="143" y="666" type="curve"/>
	  <point x="143" y="704"/>
	  <point x="177" y="716"/>
	  <point x="220" y="716" type="curve"/>
	</contour>
  </outline>
</glyph>
<glyph name="approxequal" format="1">
  <advance width="485"/>
  <unicode hex="2248"/>
  <outline>
	<contour>
	  <point x="453" y="371" type="line"/>
	  <point x="453" y="371"/>
	  <point x="402" y="306"/>
	  <point x="331" y="306" type="curve" smooth="yes"/>
	  <point x="265" y="306"/>
	  <point x="217" y="361"/>
	  <point x="153" y="361" type="curve" smooth="yes"/>
	  <point x="71" y="361"/>
	  <point x="31" y="295"/>
	  <point x="31" y="295" type="curve"/>
	  <point x="31" y="212" type="line"/>
	  <point x="31" y="212"/>
	  <point x="81" y="278"/>
	  <point x="153" y="278" type="curve" smooth="yes"/>
	  <point x="218" y="278"/>
	  <point x="267" y="223"/>
	  <point x="331" y="223" type="curve" smooth="yes"/>
	  <point x="413" y="223"/>
	  <point x="453" y="288"/>
	  <point x="453" y="288" type="curve"/>
	</contour>
	<contour>
	  <point x="453" y="183" type="line"/>
	  <point x="453" y="183"/>
	  <point x="402" y="118"/>
	  <point x="331" y="118" type="curve" smooth="yes"/>
	  <point x="265" y="118"/>
	  <point x="217" y="172"/>
	  <point x="153" y="172" type="curve" smooth="yes"/>
	  <point x="71" y="172"/>
	  <point x="31" y="107"/>
	  <point x="31" y="107" type="curve"/>
	  <point x="31" y="24" type="line"/>
	  <point x="31" y="24"/>
	  <point x="81" y="89"/>
	  <point x="153" y="89" type="curve" smooth="yes"/>
	  <point x="218" y="89"/>
	  <point x="267" y="34"/>
	  <point x="331" y="34" type="curve" smooth="yes"/>
	  <point x="413" y="34"/>
	  <point x="453" y="100"/>
	  <point x="453" y="100" type="curve"/>
	</contour>
  </outline>
</glyph>
<glyph name="equivalence" format="1">
  <advance width="423"/>
  <unicode hex="2261"/>
  <outline>
	<contour>
	  <point x="385" y="382" type="line"/>
	  <point x="385" y="456" type="line"/>
	  <point x="38" y="456" type="line"/>
	  <point x="38" y="382" type="line"/>
	</contour>
	<contour>
	  <point x="385" y="6" type="line"/>
	  <point x="385" y="80" type="line"/>
	  <point x="38" y="80" type="line"/>
	  <point x="38" y="6" type="line"/>
	</contour>
	<contour>
	  <point x="385" y="194" type="line"/>
	  <point x="385" y="268" type="line"/>
	  <point x="38" y="268" type="line"/>
	  <point x="38" y="194" type="line"/>
	</contour>
  </outline>
</glyph>
<glyph name="greaterequal" format="1">
  <advance width="485"/>
  <unicode hex="2265"/>
  <outline>
	<contour>
	  <point x="416" y="360" type="line"/>
	  <point x="70" y="534" type="line"/>
	  <point x="70" y="454" type="line"/>
	  <point x="345" y="313" type="line"/>
	  <point x="70" y="171" type="line"/>
	  <point x="70" y="92" type="line"/>
	  <point x="416" y="265" type="line"/>
	</contour>
	<contour>
	  <point x="415" y="0" type="line"/>
	  <point x="415" y="73" type="line"/>
	  <point x="69" y="73" type="line"/>
	  <point x="69" y="0" type="line"/>
	</contour>
  </outline>
</glyph>
<glyph name="house" format="1">
  <advance width="530"/>
  <unicode hex="2302"/>
  <outline>
	<contour>
	  <point x="464" y="274" type="line"/>
	  <point x="265" y="498" type="line"/>
	  <point x="66" y="274" type="line"/>
	  <point x="66" y="0" type="line"/>
	  <point x="464" y="0" type="line"/>
	</contour>
	<contour>
	  <point x="123" y="254" type="line"/>
	  <point x="265" y="414" type="line"/>
	  <point x="408" y="254" type="line"/>
	  <point x="408" y="53" type="line"/>
	  <point x="123" y="53" type="line"/>
	</contour>
  </outline>
</glyph>
<glyph name="combiningZero-deva" format="1">
  <advance width="0"/>
  <unicode hex="A8E0"/>
  <outline>
	<contour>
	  <point x="-154" y="801"/>
	  <point x="-178" y="780"/>
	  <point x="-178" y="742" type="curve" smooth="yes"/>
	  <point x="-178" y="704"/>
	  <point x="-154" y="684"/>
	  <point x="-109" y="684" type="curve" smooth="yes"/>
	  <point x="-65" y="684"/>
	  <point x="-41" y="704"/>
	  <point x="-41" y="742" type="curve" smooth="yes"/>
	  <point x="-41" y="780"/>
	  <point x="-65" y="801"/>
	  <point x="-109" y="801" type="curve" smooth="yes"/>
	</contour>
	<contour>
	  <point x="-90" y="773"/>
	  <point x="-80" y="763"/>
	  <point x="-80" y="746" type="curve" smooth="yes"/>
	  <point x="-80" y="739" type="line" smooth="yes"/>
	  <point x="-80" y="721"/>
	  <point x="-90" y="712"/>
	  <point x="-109" y="712" type="curve" smooth="yes"/>
	  <point x="-128" y="712"/>
	  <point x="-139" y="721"/>
	  <point x="-139" y="739" type="curve" smooth="yes"/>
	  <point x="-139" y="746" type="line" smooth="yes"/>
	  <point x="-139" y="763"/>
	  <point x="-128" y="773"/>
	  <point x="-109" y="773" type="curve" smooth="yes"/>
	</contour>
	<contour>
	  <point x="-109" y="606" type="move" name="_top"/>
	</contour>
  </outline>
</glyph>
<glyph name="combiningOne-deva" format="1">
  <advance width="0"/>
  <unicode hex="A8E1"/>
  <outline>
	<contour>
	  <point x="-142" y="836"/>
	  <point x="-165" y="822"/>
	  <point x="-165" y="798" type="curve" smooth="yes"/>
	  <point x="-165" y="773"/>
	  <point x="-138" y="759"/>
	  <point x="-102" y="759" type="curve" smooth="yes"/>
	  <point x="-96" y="759"/>
	  <point x="-90" y="759"/>
	  <point x="-85" y="760" type="curve"/>
	  <point x="-85" y="784" type="line"/>
	  <point x="-102" y="784" type="line" smooth="yes"/>
	  <point x="-117" y="784"/>
	  <point x="-126" y="789"/>
	  <point x="-126" y="797" type="curve" smooth="yes"/>
	  <point x="-126" y="803"/>
	  <point x="-120" y="809"/>
	  <point x="-109" y="809" type="curve" smooth="yes"/>
	  <point x="-98" y="809"/>
	  <point x="-91" y="804"/>
	  <point x="-91" y="790" type="curve" smooth="yes"/>
	  <point x="-91" y="760"/>
	  <point x="-125" y="740"/>
	  <point x="-159" y="733" type="curve"/>
	  <point x="-159" y="712" type="line"/>
	  <point x="-134" y="712" type="line"/>
	  <point x="-104" y="719"/>
	  <point x="-53" y="748"/>
	  <point x="-53" y="792" type="curve" smooth="yes"/>
	  <point x="-53" y="821"/>
	  <point x="-76" y="836"/>
	  <point x="-109" y="836" type="curve" smooth="yes"/>
	</contour>
	<contour>
	  <point x="-159" y="712" type="line"/>
	  <point x="-116" y="682" type="line" smooth="yes"/>
	  <point x="-102" y="672"/>
	  <point x="-99" y="664"/>
	  <point x="-99" y="656" type="curve" smooth="yes"/>
	  <point x="-99" y="651" type="line"/>
	  <point x="-65" y="651" type="line"/>
	  <point x="-63" y="658"/>
	  <point x="-61" y="663"/>
	  <point x="-61" y="668" type="curve" smooth="yes"/>
	  <point x="-61" y="677"/>
	  <point x="-68" y="685"/>
	  <point x="-84" y="697" type="curve" smooth="yes"/>
	  <point x="-130" y="730" type="line"/>
	</contour>
	<contour>
	  <point x="-105" y="606" type="move" name="_top"/>
	</contour>
  </outline>
</glyph>
<glyph name="combiningTwo-deva" format="1">
  <advance width="0"/>
  <unicode hex="A8E2"/>
  <outline>
	<contour>
	  <point x="-146" y="835"/>
	  <point x="-170" y="819"/>
	  <point x="-170" y="791" type="curve" smooth="yes"/>
	  <point x="-170" y="788"/>
	  <point x="-170" y="785"/>
	  <point x="-169" y="781" type="curve"/>
	  <point x="-131" y="781" type="line"/>
	  <point x="-131" y="798"/>
	  <point x="-125" y="807"/>
	  <point x="-110" y="807" type="curve" smooth="yes"/>
	  <point x="-92" y="807"/>
	  <point x="-85" y="794"/>
	  <point x="-85" y="770" type="curve" smooth="yes"/>
	  <point x="-85" y="760" type="line" smooth="yes"/>
	  <point x="-85" y="735"/>
	  <point x="-92" y="722"/>
	  <point x="-110" y="722" type="curve" smooth="yes"/>
	  <point x="-124" y="722"/>
	  <point x="-130" y="730"/>
	  <point x="-130" y="748" type="curve"/>
	  <point x="-163" y="748" type="line"/>
	  <point x="-163" y="708"/>
	  <point x="-142" y="694"/>
	  <point x="-107" y="694" type="curve" smooth="yes"/>
	  <point x="-64" y="694"/>
	  <point x="-44" y="716"/>
	  <point x="-44" y="765" type="curve" smooth="yes"/>
	  <point x="-44" y="813"/>
	  <point x="-64" y="835"/>
	  <point x="-108" y="835" type="curve" smooth="yes"/>
	</contour>
	<contour>
	  <point x="-170" y="748" type="line"/>
	  <point x="-170" y="651" type="line"/>
	  <point x="-134" y="651" type="line"/>
	  <point x="-134" y="748" type="line"/>
	</contour>
	<contour>
	  <point x="-107" y="606" type="move" name="_top"/>
	</contour>
  </outline>
</glyph>
<glyph name="combiningFive-deva" format="1">
  <advance width="0"/>
  <unicode hex="A8E5"/>
  <outline>
	<contour>
	  <point x="-178" y="798"/>
	  <point x="-183" y="775"/>
	  <point x="-183" y="751" type="curve" smooth="yes"/>
	  <point x="-183" y="705"/>
	  <point x="-163" y="680"/>
	  <point x="-120" y="680" type="curve" smooth="yes"/>
	  <point x="-79" y="680"/>
	  <point x="-58" y="703"/>
	  <point x="-58" y="752" type="curve"/>
	  <point x="-87" y="752" type="line"/>
	  <point x="-87" y="720"/>
	  <point x="-96" y="713"/>
	  <point x="-114" y="713" type="curve" smooth="yes"/>
	  <point x="-135" y="713"/>
	  <point x="-144" y="724"/>
	  <point x="-144" y="748" type="curve" smooth="yes"/>
	  <point x="-144" y="768"/>
	  <point x="-138" y="797"/>
	  <point x="-116" y="833" type="curve"/>
	  <point x="-158" y="833" type="line"/>
	</contour>
	<contour>
	  <point x="-87" y="757" type="line"/>
	  <point x="-87" y="651" type="line"/>
	  <point x="-51" y="651" type="line"/>
	  <point x="-51" y="757" type="line"/>
	</contour>
	<contour>
	  <point x="-117" y="606" type="move" name="_top"/>
	</contour>
  </outline>
</glyph>
